<?xml version="1.0" standalone="no"?>
<!DOCTYPE svg PUBLIC "-//W3C//DTD SVG 1.1//EN" "http://www.w3.org/Graphics/SVG/1.1/DTD/svg11.dtd" >
<svg xmlns="http://www.w3.org/2000/svg">
<metadata></metadata>
<defs>
<font id="dumbledor_1_shadowregular" horiz-adv-x="871" >
<font-face units-per-em="2048" ascent="1638" descent="-410" />
<missing-glyph horiz-adv-x="832" />
<glyph horiz-adv-x="0" />
<glyph unicode="&#xd;" horiz-adv-x="832" />
<glyph unicode=" "  horiz-adv-x="832" />
<glyph unicode="&#x09;" horiz-adv-x="832" />
<glyph unicode="&#xa0;" horiz-adv-x="832" />
<glyph unicode="!" horiz-adv-x="527" d="M-10 276l102 99q12 14 12 37v530q0 22 -24 43q-40 35 -68 35l-8 106q82 13 168 64q18 14 57 41l123 74q-22 -107 -22 -119q0 -1 2 5.5t2 0.5q-1 -21 -4 -62v-4q0 2 2 2l123 74q-23 -103 -23 -119q0 -1 2 6t2 1q-1 -21 -4 -62v-18q0 -15 -3 -36q0 -5 -1 -18q-2 -36 -2 -28 v-619q0 -22 113 -135h-205q15 -24 18 -45q107 -23 107 -133q0 -61 -41 -99t-103 -38q-116 0 -139 106q-104 22 -104 133q0 84 63 119l60 55l1 1q1 1 1 3h-207zM37 1100l4 -49q10 0 59 -43q35 -31 35 -66v-530q0 -35 -20 -58l-49 -47h294q-67 68 -67 105v618q0 -3 5 65 q1 12 1 17v21q2 36 8 108l-61 -37q-43 -26 -51 -37q-101 -57 -158 -67zM102 98q0 -47 32 -76.5t79 -29.5q48 0 80.5 29.5t32.5 76.5t-32.5 77t-80.5 30t-79.5 -29.5t-31.5 -77.5z" />
<glyph unicode="&#x22;" horiz-adv-x="445" d="M6 1225q0 88 96 88q56 0 78 -27q27 27 78 27q96 0 96 -80v-23h6q97 0 97 -80q0 -32 -6 -57v2q-33 -149 -117 -149q-25 20 -31 43q-8 19 -20 63q-39 -106 -115 -106q-25 51 -43 123q-23 -21 -59 -21q-35 84 -60 197zM37 1231q24 -115 49 -172q45 0 76 125q6 24 6 49 q0 49 -66 49q-65 0 -65 -51zM193 1231q20 -111 36 -148q0 -8 17 -24q43 0 71 125q7 32 7 49q0 49 -66 49q-65 0 -65 -51z" />
<glyph unicode="#" horiz-adv-x="877" d="M10 401q68 35 96 107h93v2h-154l-12 51q67 33 94 107l141 2l43 286q51 -100 99 -131l4 29q7 -13 20 -39q4 -2 15 -2l-3 -16v-2l25 163q51 -100 98 -131l4 29q7 -15 23 -43h12l-2 -14q53 -86 105 -88l-6 -39h67l14 -58q-32 -18 -53 -45h141l15 -57q-66 -37 -78 -100 l-98 -2q-2 0 -2 -2l155 2l13 -50q-78 -47 -91 -108l-145 -2l-45 -299q-45 102 -96 141l-6 -39q-9 17 -15 30l-12 26q-4 0 -6 2v6l-25 -166q-51 104 -96 139l-6 -37q-8 15 -14 28l-13 25q-2 0 -3 1.5t-3 1.5v6q-49 84 -102 96l4 37h-80l-12 51q41 20 63 51h-153zM37 381h219 l-20 -145q57 -13 86 -74l32 221h64l-23 -145q60 -17 86 -76l33 221l145 2q11 49 91 96l-222 -2l11 64l143 2q8 49 90 96h-219l20 143q-47 2 -86 76l-32 -221h-64l23 145q-49 2 -86 74l-33 -219l-145 -2q-23 -62 -91 -96h222l-11 -64h-143q-25 -61 -90 -96zM369 479l10 64h61 l-10 -64h-61z" />
<glyph unicode="$" horiz-adv-x="1090" d="M-4 72l53 118q8 19 14 35q11 33 11 185l51 12q23 -47 65 -113l37 10q46 -87 82 -135l19 -12v274q-121 52 -174 140q-142 92 -142 256q0 170 156 295q39 32 74 55q33 170 92 244q28 35 145 104v-168q25 20 90 60l4 4q27 34 146 104v-168q39 29 102 66v-224l58 -20 q28 -10 61 -25l-25 -53q37 -12 127 -49l-34 -80q-19 -25 -29 -63v6l-2 -23q2 -16 2 -28v-23q0 -31 -10 -41v2q-17 -22 -90 -80q-25 98 -52 144l-6 -7v-239q94 -49 140 -123q141 -92 141 -252q0 -203 -187 -309h3q-41 -25 -97 -43q7 -58 41 -176h-229q16 50 26 102h-65 q11 -56 27 -102h-230q9 34 25 102h-127q5 22 16 66q-83 20 -207 69q9 18 23 56q-74 24 -125 47zM37 88q168 -70 317 -84v-8q0 -33 -24 -131h147q-26 92 -26 133h4q53 0 141 10v-12q0 -37 -27 -131h150q-31 94 -31 166q55 18 111 49q170 96 170 282q0 185 -209 269l-72 18 v424q80 -59 109 -180q41 31 47 47q2 4 2 18v23q0 12 -2 29l2 24q8 37 31 68l22 51q-100 45 -211 64v268q-70 -41 -90 -68q-51 -57 -72 -164q23 17 35 17q23 0 33 -41h-102q-23 0 -43 -2v258q-66 -38 -91 -68q-52 -60 -71 -164q22 17 35 17q26 0 32 -60q-76 -21 -168 -98 q-143 -119 -143 -270q0 -195 211 -271l104 -26v-422q-147 61 -254 272q0 -135 -8 -162q-2 -12 -59 -145zM227 899q0 156 131 211v-367q-131 50 -131 156zM289 1219l30 12v8zM449 96v426l149 -39v-383q-47 -6 -102 -6h-27q-10 0 -20 2zM449 717v416q8 2 16 2h18q60 0 115 -17 v-442zM688 125v317q96 -65 96 -172q0 -102 -96 -145z" />
<glyph unicode="%" horiz-adv-x="1272" d="M-51 -31q75 61 101 85q57 51 91 96l60 79l239 328q-179 8 -256 143q-139 79 -139 261q0 139 86.5 221t226.5 82q195 0 275 -144q84 -47 119 -137q67 94 73 139l-14 23l-14 37q0 78 80 78h280l-76 -103h179l-441 -600q12 2 23 2h24q195 0 277 -145q141 -80 141 -260 q0 -139 -87 -220t-228 -81q-196 0 -277 145q-115 63 -135 199l-98 -136q-18 -25 -25 -32q-16 -19 -37 -54q-35 -51 -53 -108h-293q47 36 121 102h-223zM37 0h184q12 34 47 94q1 1 64 88l764 1047h-219q-50 0 -50 -39l13 -31l16 -26v-5q0 -57 -92 -182l-598 -815 q-14 -19 -60 -68q-32 -34 -69 -63zM76 961q0 -127 77 -199t205 -72q127 0 205 72.5t78 198.5q0 129 -76.5 200.5t-206.5 71.5q-125 0 -203.5 -73.5t-78.5 -198.5zM213 961q0 79 32 134q39 66 113 66q76 0 115 -65q33 -54 33 -135q0 -80 -33 -134q-40 -65 -115 -65 q-145 0 -145 199zM336 135l2 2l2 4q-2 -2 -2 -4zM346 858q0 -39 6 -65h6q55 0 88 51q29 45 29 117q0 40 -8 67h-6q-59 0 -90 -59q-25 -46 -25 -111zM440 35q0 2 2 4zM584 256q0 -127 77 -198.5t205 -71.5q126 0 205.5 72.5t79.5 197.5q0 129 -79 202q-76 70 -206 70 q-124 0 -203 -74.5t-79 -197.5zM719 256q0 78 33 133q41 68 114 68t115 -66q33 -52 33 -135q0 -80 -33 -135q-40 -66 -115 -66q-72 0 -114 66q-33 52 -33 135zM852 154q0 -37 6 -68h8q61 0 92 58q25 46 25 112q0 37 -6 68h-8q-55 0 -88 -54q-29 -48 -29 -116z" />
<glyph unicode="&#x26;" horiz-adv-x="1153" d="M6 326q0 184 166 295h-2q10 8 39 22q-125 86 -125 252q0 153 125 246q110 82 262 82q243 0 346 -166q8 -5 23 -15q121 -91 121 -249q0 -199 -189 -289q-80 -15 -143 -31q45 -6 116 -24h-6q4 -3 13 -3q6 -2 11 -3l15 -3q6 -2 39 -2q62 0 107 29l-6 -4q-1 -1 2 0 q16 12 49 37q20 14 49 37l45 -41q-68 -111 -115 -158q43 4 78 27l-6 -5l-2 -2q7 5 20 15q28 20 82 61l45 -41q-78 -127 -129 -172q-8 -188 -147 -289q-126 -92 -316 -92q-184 0 -315 92q-61 43 -98 99l-4 4q-150 104 -150 291zM37 326q0 -170 136 -267q121 -86 298 -86 t297 86q137 98 137 267h-22l12 6q47 23 141 180l-68 -50q-24 -18 -28 -22q-57 -32 -123 -32q-37 0 -43 2q-17 3 -37 8q-108 28 -149 28q-87 0 -152 -61q-33 -31 -94 -113l127 56q55 16 102 16q41 0 107 -18q17 -5 47 -13q-4 -108 -74 -184t-180 -76q-118 0 -186 78 q-66 75 -66 195q0 112 70 192q51 58 373 119q165 76 165 258q0 146 -108 225q-99 72 -248 72q-142 0 -244 -76q-112 -83 -112 -221q0 -178 164 -256q-61 -23 -91 -43q-151 -102 -151 -270zM287 895q0 217 184 217q53 0 74 -8q33 -13 63 -55q47 -67 47 -154q0 -217 -184 -217 q-90 0 -140 65q-44 59 -44 152zM352 223q0 -67 23 -123q39 -16 96 -16q96 0 158 66q28 30 43 61q-41 0 -92 -14h4l-142 -62l-30 41q64 87 106 129l4 4q-15 -2 -45 -10h4l-129 -57v-19zM420 793q0 -52 10 -80q20 -4 41 -4q154 0 154 186q0 47 -15 82q-10 2 -37 2 q-153 0 -153 -186z" />
<glyph unicode="'" horiz-adv-x="289" d="M6 1225q0 88 96 88q97 0 97 -80q0 -4 -1 -11.5t-1 -11.5h8q96 0 96 -80q0 -30 -20 -100h2q-4 -16 -11 -35q-1 -5 -4 -16q-24 -53 -100 -53q-27 51 -43 114q-25 -12 -59 -12q-39 80 -60 197zM37 1231q20 -115 49 -172q37 0 49 28q2 7 15 54q18 63 18 92q0 49 -66 49 q-65 0 -65 -51z" />
<glyph unicode="(" horiz-adv-x="561" d="M6 604q0 288 64 510q75 262 401 479l-129 -270q-7 -17 -23 -49q93 106 254 217l-129 -270q-118 -247 -118 -598q0 -356 157 -721q-84 -62 -116 -273q-54 74 -95 150q0 -1 -8 -47q-103 141 -164 309q-94 260 -94 563zM37 604q0 -296 92 -553q59 -165 117 -241 q24 151 96 204q-149 348 -149 711q0 358 120 610l82 172q-225 -151 -297 -401q-61 -212 -61 -502z" />
<glyph unicode=")" horiz-adv-x="516" d="M-41 -281l131 273q119 248 119 598t-160 723q82 55 117 272q49 -72 94 -149q2 12 8 47q104 -138 166 -309q94 -257 94 -566q0 -314 -65 -512q-87 -265 -402 -479l132 272l12 30l12 30q-98 -119 -258 -230zM37 -190q211 143 295 399q63 191 63 502q0 302 -92 555 q-57 156 -119 241q-24 -155 -96 -204q152 -357 152 -713q0 -359 -121 -610z" />
<glyph unicode="*" horiz-adv-x="686" d="M4 887q60 79 84 100q36 32 74 43l8 19l-14 14l-97 67l21 50q72 -6 131 -23h-2q70 -20 110 -78q17 33 17 66q-4 4 -4 31q-3 23 -8 69l53 17q43 -72 59 -117l43 14q8 -13 49 -94q0 2 2 2l10 8q5 4 11 8l45 -41l-41 -61v-8q-4 -33 -12 -60q18 2 39 16.5t51 35.5q8 8 20 16 l45 -41q-26 -43 -82 -115q-38 -39 -88 -47l-2 -12q8 -5 23 -14l9 -4q14 -6 41 -17q19 -8 40 -16l-10 -56l-89 5q-36 2 -59 8l2 -2q-50 7 -88 41q-2 -4 -2 -13l-22 -213l-62 139q-24 52 -28 72v2l-13 -110q-29 59 -80 178l-51 -23l-31 41q23 29 70 86q1 11 8 33l-20 -4 q-10 -2 -21 -6h2l-110 -47zM37 881l96 41q33 14 78 14q12 0 22 -2q-41 -56 -24 -129q6 -25 41 -100l10 100q4 35 25 67q32 -54 102 -69q27 -6 129 -10q-35 12 -86 34q-44 26 -70 68q-5 8 -8 12q8 -2 21 -2q74 0 119 45q16 16 77 109q-69 -50 -75 -53q-44 -25 -95 -25h-14 q34 44 37 96q2 38 -66 158q11 -113 11 -88q0 -51 -25 -90q-6 -10 -18 -27l-9 -10q-5 11 -16 35q-35 54 -98 73q-32 9 -111 19l84 -60q37 -32 51 -59q3 -6 11 -18h-13q-65 0 -114 -45q-28 -26 -72 -84zM207 995z" />
<glyph unicode="+" horiz-adv-x="846" d="M-20 723h288v340l103 -107v5l188 -195v-43h109l51 -102h51l88 -177h-299v-346l-102 103l-189 194v49h-82l-61 103h-41zM35 692l67 -114h197v-170l127 -132v302h281l-58 114h-223v164l-127 131v-295h-264z" />
<glyph unicode="," horiz-adv-x="363" d="M0 -209l20 62q50 65 58 110h-19q-44 0 -53 49v41q0 121 135 121q119 0 129 -104q105 -13 105 -125q0 -85 -101 -191q-50 -53 -172 -65l21 61q49 66 57 111h-4q-4 -1 -4 -4q-51 -54 -172 -66zM37 16q4 -22 22 -22h54q0 -72 -66 -156l-4 -12q63 6 107 51q92 94 92 170 q0 96 -101 96q-104 0 -104 -90v-37z" />
<glyph unicode="-" horiz-adv-x="842" d="M-78 428q144 82 166 158h647l17 -58q-29 -16 -47 -45h133l16 -57q-59 -37 -63 -100h-766q90 53 133 102h-236zM37 459h622q5 51 76 96h-622q-15 -61 -76 -96z" />
<glyph unicode="." horiz-adv-x="363" d="M6 61q0 113 131 113h6q115 0 129 -102v-2q88 -13 103 -101v-4q0 -98 -129 -110q-125 0 -137 104q-95 16 -103 102zM37 66q10 -82 104 -78q101 4 101 80q-13 78 -105 75q-100 -3 -100 -77z" />
<glyph unicode="/" horiz-adv-x="1211" d="M-33 -76q116 125 195 258l588 983q61 102 67 154l-2 4l-12 20l-41 80q69 41 92 41h266l-59 -102h162l-895 -1540h-258q22 26 45 52l43 50h-191zM37 -45h170l860 1479h-213q-12 0 -51 -23l24 -49l19 -27l2 -12q-4 -60 -72 -174l-588 -983q-84 -141 -151 -211z" />
<glyph unicode="0" horiz-adv-x="1215" d="M6 573q0 294 172 469q157 160 387 160q275 0 432 -211q131 -108 189 -254q41 -103 41 -266q0 -264 -145 -440q-156 -189 -414 -189q-269 0 -435 209q-128 99 -186 258q-41 113 -41 264zM37 573q0 -149 39 -254q60 -161 189 -252.5t300 -91.5q244 0 391 180 q138 169 138 418q0 247 -119 399q-156 199 -410 199q-218 0 -364 -149q-164 -167 -164 -449zM238 573q0 251 104 390q91 122 223 122q167 0 258 -182q70 -140 70 -330q0 -182 -72 -327q-91 -183 -256 -183q-168 0 -258 183q-69 141 -69 327zM371 467q16 57 51 94v2 q-27 27 -41 49q-10 -53 -10 -141v-4zM375 725q0 -25 6 -39q14 -51 59 -98q13 -10 31 -25q-10 -10 -14 -12q-64 -64 -66 -152q-3 -28 15 -145l51 129q26 51 59 84q16 16 51 39q39 -26 51 -39q30 -31 60 -84l49 -129q17 115 14 145q-2 90 -63 152q-6 4 -16 12q20 15 30 25 q42 42 62 98q6 17 6 39q0 66 -33 188q-16 -110 -18 -116q-19 -68 -64 -113q-26 -26 -31 -29l-47 -28l-49 28q-16 17 -31 29q-47 47 -61 113q-4 10 -20 116q-31 -127 -31 -188zM406 229q10 -31 30 -71q6 -14 19 -37q47 -27 110 -27q127 0 207 123l-14 35q0 -3 -1 -8t-1 -8 l-51 -7l-50 125q-2 -2 -7 -6t-7 -6q-32 -32 -55 -76l2 2l-58 -143l-51 8q-16 114 -16 154v28l-35 -88zM453 817q0 -8 4 -12q1 -11 8 -31q5 19 14 57l58 -4q6 -48 22 -125q2 -18 10 -36l19 10q8 4 35 31q43 43 57 98q3 20 18 125l54 4q30 -121 36 -180q4 25 13 73l22 2 q-11 32 -26 60q-7 12 -21 37q-53 26 -108 26q-118 0 -199 -110q-11 -15 -16 -25zM813 459q21 -21 33 -49q10 47 14 110q-15 -29 -43 -57z" />
<glyph unicode="1" horiz-adv-x="627" d="M-66 940l125 100q29 16 62 33q37 21 112 62q101 55 228 174q-21 -83 -37 -125q4 -20 4 -92q61 43 135 114q-19 -73 -37 -125q4 -24 4 -114v-944q0 -16 5 -33v-8q0 -11 104 -115h-451q64 72 82 102h-184q88 101 94 127l-2 -6l4 82v682l-145 -16l131 103l14 7v13l-20 4h-15 zM37 983l106 12h23l41 -6q4 0 6 2l-4 -903q-10 -37 -55 -88h307q-60 59 -60 84q-4 20 -4 41v944q0 99 -4 119q4 4 10 26q-56 -52 -155 -106q-103 -57 -168 -90zM57 1040l4 2l-2 -2h-2zM160 938l4 2l-2 -2h-2z" />
<glyph unicode="2" horiz-adv-x="1133" d="M6 -33v109q28 0 174 125q113 97 178 159q297 283 297 455q0 60 -26 119q-49 22 -105 22q-18 0 -65 -14q-26 -8 -27 -12v-15q-26 -51 -26 -118q0 -66 43 -185l-134 17l-84 -6l-94 -21q0 71 10 123h-18l-94 -20q0 114 33 215q43 132 108 176h-2q152 112 350 112 q150 0 252 -67v2q62 -41 92 -99q3 -3 11 -6v2q122 -79 122 -233q0 -295 -378 -637h45q88 0 153 35q35 17 221 121l-88 -209q64 35 191 106l-152 -356l-884 -2v102h-103zM37 -2l833 2l109 256l-152 -82q-65 -35 -159 -35h-357q557 422 557 770q0 136 -108 208q-93 61 -236 61 q-185 0 -331 -107q-60 -44 -97 -160q-30 -94 -30 -168l57 13l92 6l86 -10q-29 79 -29 147q0 74 27 125v8q0 24 48.5 41t74.5 17q123 0 193.5 -75.5t70.5 -199.5q0 -186 -307 -477q-74 -70 -178 -160q-154 -133 -164 -133v-47zM330 1028l39 21q-9 -5 -13 -5q-25 -8 -26 -12 v-4z" />
<glyph unicode="3" horiz-adv-x="1018" d="M-43 176q207 19 401 133v-114q0 -25 7 -39q39 16 96 51v-115q59 0 114 49q76 68 76 187q0 73 -28 135q-88 47 -256 65l-5 58q34 8 62 16q-54 16 -160 29l-4 57q99 23 264 78l-2 -2q109 53 109 143q0 21 -6 39q-43 21 -103 21q-40 0 -79.5 -38t-39.5 -77q4 -13 25 -68 l-160 21h-18q-27 0 -133 16q34 56 59 84l-10 2h-19q-31 0 -133 17q172 286 494 286q130 0 237 -53q91 -45 125 -117q121 -71 121 -182q0 -166 -143 -249l-29 -17q13 -16 39 -47q172 -127 172 -320q0 -172 -145 -280q-131 -97 -301 -97q-172 0 -320 68l-205 158q5 0 13.5 1 t13.5 1zM37 154l139 -107q148 -65 305 -65q161 0 283 90q133 98 133 256q0 229 -268 362q93 40 121 60q108 78 108 211q0 105 -127 169q-100 50 -223 50q-303 0 -442 -232q80 -10 81 -10h23l106 -14q-6 14 -6 30q0 53 49.5 99.5t100.5 46.5q96 0 164 -47q78 -54 78 -146 q0 -108 -125 -170q-33 -16 -258 -78q190 -20 282 -81q121 -80 121 -250q0 -132 -86 -209q-65 -58 -137 -58q-60 0 -95.5 37t-35.5 97v59q-142 -86 -291 -100z" />
<glyph unicode="4" horiz-adv-x="1209" d="M-27 362q62 76 164 222v-2q90 153 90 309q0 21 -4 41l-106 51q19 19 37 35l-140 67q22 22 66 60v2q104 61 229 61q49 -30 80 -102h23q65 -41 98 -152q4 -10 10 -41q111 19 158 43h-2l219 144l-8 -146q-3 -13 -13 -36l123 79l-8 -145q-33 -100 -33 -158v-159h162l-82 -103 h185l-138 -172h-127v-237q0 -18 5 -35q0 -17 104 -121h-465q33 33 94 102h-196q76 76 106 121l6 82v88h-534q27 34 80 102h-183zM37 393h604v-223l-6 -82q-10 -37 -62 -88h314q-60 59 -60 86q-4 20 -4 39v268h144l88 111h-232v293q0 61 33 161l4 82l-168 -110 q-51 -33 -182 -49l80 -66q51 -42 51 -86v-225h-360q97 179 117 335q3 23 3 56q0 80 -22 154q-29 97 -80 129q-106 0 -197 -54l7 2q-15 -6 -41 -32l145 -68q45 -43 45 -135q0 -161 -94 -324q-26 -45 -127 -174zM477 535h133v194q0 6 -2 8l-71 62q12 0 20 2l-22 18v-26 q0 -47 -7 -80q-20 -95 -51 -178zM604 90q0 2 1 3t1 3z" />
<glyph unicode="5" horiz-adv-x="1030" d="M-31 176q154 23 199 55l104 101q27 -92 56 -148l47 45q24 -82 49 -133q16 -4 33 -4h39q86 0 137 98q45 86 45 195q0 86 -27 150q-55 22 -125 22q-145 0 -350 -104v149q-65 -27 -102 -47v489q0 33 26 160l154 -2h668l18 -55q-22 -16 -66 -47h150l18 -56q-108 -75 -124 -98 q-17 -18 -56 -198q-34 36 -102 106v-4q-13 14 -39 41l-4 4q-49 37 -121 37h-170v-115q307 0 436 -188q3 -3 10 -6q152 -109 152 -322q0 -206 -133 -330q-80 -75 -162 -106q-45 -17 -160 -17q-196 0 -346 78zM37 156l106 -105q138 -69 324 -69q105 0 149 14q69 22 152 100 q123 116 123 307q0 199 -139 298q-121 85 -328 85q-74 0 -131 -14v293h201q79 0 139 -43q22 -15 108 -109q27 124 49.5 153t131.5 105l-797 3q-21 -97 -21 -130v-440q168 86 320 86q285 0 285 -305q0 -114 -50 -209q-61 -115 -163 -115q-97 0 -138 31q-54 41 -100 184 l-70 -67q-40 -38 -151 -53z" />
<glyph unicode="6" horiz-adv-x="1061" d="M6 545v30q0 241 131 412q165 215 449 223l385 11l-152 -111l254 8l-170 -123q-36 -26 -72 -125q-131 72 -208 72q-158 0 -215 -194q-3 -11 -11 -33q25 10 53 15q38 7 56 7h14q214 0 316 -159q155 -105 155 -306q0 -125 -88 -247q-123 -170 -311 -170h-14q-211 0 -336 168 l-4 4q-51 33 -99 98t-88 185q-38 115 -43 202q-2 16 -2 33zM37 575q0 -30 4 -77q18 -216 122 -354q121 -162 326 -156q178 6 287 157q82 114 82 230q0 153 -99 246q-96 90 -253 86q-97 -2 -164.5 -64t-67.5 -160q0 -28 11 -73q6 96 86 155q59 43 100 45q91 4 150 -82 q48 -69 55 -161q9 -112 -35 -197q-51 -99 -158 -102q-130 -4 -194 186q-41 122 -48 296q-1 23 -1 48q0 138 36 260q64 217 244 217q84 0 193 -59q27 75 69 106l90 66l-284 -8q-271 -8 -426 -211q-125 -164 -125 -394zM373 500q20 39 51 63l2 2q-43 -24 -53 -39v-26zM389 295 q19 -119 55 -193q21 -4 37 -4h2q85 0 131 86q33 61 33 146v14q0 10 -2 18q-7 59 -29 109q-18 6 -36 6h-5q-44 -5 -83 -39q-68 -49 -74 -141z" />
<glyph unicode="7" horiz-adv-x="1166" d="M6 956q0 31 34 57q30 20 61 40q61 49 91 107q13 26 19 48l846 -2l18 -55q-19 -16 -59 -47h143l19 -55q-150 -109 -260 -279q-88 -136 -113 -235q-76 -303 -76 -660q-170 -2 -321 -207q0 86 10 226q-56 -46 -113 -123q0 450 178 899q52 131 117 233h-76q-114 0 -188 -31 l2 2l-184 -102l-35 37q8 10 8 16l-18 29q0 35 28 51q51 29 90 68l-176 -99l-35 37q9 11 9 17zM37 967l9 -15q9 -16 9 -24q0 -13 -6 -21l172 97q78 32 201 32h326q-142 -141 -236 -377q-176 -442 -176 -794q104 141 260 143q0 329 76 637q26 106 119 244q123 183 266 287 l-824 2q-8 -33 -53 -88q-55 -67 -131 -109q-12 -7 -12 -14z" />
<glyph unicode="8" horiz-adv-x="1026" d="M6 326q0 184 166 295h-2q10 8 39 22q-125 86 -125 252q0 153 125 246q110 82 262 82q243 0 346 -166q8 -5 23 -15q121 -91 121 -249q0 -152 -107 -240q1 -1 33 -41q151 -102 151 -289q0 -184 -149 -291q-129 -92 -316 -92q-184 0 -315 92q-61 43 -98 99l-4 4 q-150 104 -150 291zM37 326q0 -170 136 -267q121 -86 298 -86t297 86q137 98 137 267q0 225 -241 313q163 78 163 256q0 146 -108 225q-99 72 -248 72q-142 0 -244 -76q-112 -83 -112 -221q0 -178 164 -256q-61 -23 -91 -43q-151 -102 -151 -270zM219 326q0 118 66 193 q70 79 186 79q112 0 184 -81q68 -77 68 -191q0 -116 -67 -193q-71 -80 -185 -80q-118 0 -186 78q-66 75 -66 195zM287 895q0 217 184 217q53 0 74 -8q33 -13 63 -55q47 -67 47 -154q0 -217 -184 -217q-90 0 -140 65q-44 59 -44 152zM352 223q0 -67 23 -123q39 -16 96 -16 q102 0 163 71q58 67 58 171q0 63 -26 120q-43 19 -93 19q-103 0 -164 -70q-57 -67 -57 -172zM420 793q0 -52 10 -80q20 -4 41 -4q154 0 154 186q0 47 -15 82q-10 2 -37 2q-153 0 -153 -186z" />
<glyph unicode="9" horiz-adv-x="994" d="M-61 -45l170 123q32 23 69 129q127 -76 209 -76q158 0 215 195q4 12 8 30q-22 -10 -48 -14q-40 -6 -56 -6h-10q-163 0 -265 94q-43 40 -57 66q-17 11 -45 36q-111 100 -111 269q0 121 91 248q121 170 307 170h16q209 0 338 -168q1 -3 4 -7q196 -145 227 -464v-13 q5 -30 5 -69q0 -238 -132 -412q-163 -215 -452 -223l-381 -10l152 110zM37 -12l282 8q274 8 429 211q124 163 124 393q0 36 -4 80q-20 216 -123 352q-123 162 -327 156q-176 -6 -285 -158q-84 -118 -84 -229q0 -157 101 -246.5t253 -85.5q100 2 165 63.5t65 159.5 q0 39 -8 74q-9 -96 -86 -156q-56 -44 -103 -45q-91 -3 -147 82q-48 72 -56 164q-10 111 33 195q51 100 160 102q130 3 193 -186q41 -122 48 -294q1 -24 1 -50q0 -136 -37 -261q-64 -217 -244 -217q-88 0 -192 62q-28 -80 -68 -109zM365 729q0 -10 2 -18q7 -62 28 -111 q8 -4 17 -4h24q35 0 84 39q66 53 74 143l24 2q-18 115 -53 189q-16 6 -35 6h-2q-83 0 -127 -75q-36 -61 -36 -150v-21zM590 510q11 8 33 22q4 4 14 13v28q-16 -32 -47 -63z" />
<glyph unicode=":" horiz-adv-x="363" d="M6 82q0 117 129 129q113 0 133 -107q90 -12 107 -116v-4q0 -115 -127 -129q-119 0 -137 106q-95 14 -105 121zM6 569q0 117 129 129q113 0 133 -106q90 -12 107 -117v-4q0 -115 -129 -129q-117 0 -135 104q-95 15 -105 123zM37 84q10 -96 104 -96q101 12 101 98 q-14 98 -105 94q-100 -4 -100 -96zM37 571q10 -96 102 -96q103 12 103 98q-13 95 -105 95q-100 -9 -100 -97z" />
<glyph unicode=";" horiz-adv-x="363" d="M0 -209l20 62q50 65 58 110h-19q-44 0 -53 49v41q0 121 135 121q119 0 129 -104q105 -13 105 -125q0 -85 -101 -191q-50 -53 -172 -65l21 61q49 66 57 111h-4q-4 -1 -4 -4q-51 -54 -172 -66zM6 567q0 119 129 131q113 0 133 -106q92 -14 107 -119v-4q0 -129 -133 -129h-6 q-107 0 -125 102q-95 13 -105 125zM37 16q4 -22 22 -22h54q0 -72 -66 -156l-4 -12q63 6 107 51q92 94 92 170q0 96 -101 96q-104 0 -104 -90v-37zM37 569q10 -99 102 -96q103 3 103 98q-13 97 -105 97q-100 -9 -100 -99z" />
<glyph unicode="&#x3c;" horiz-adv-x="752" d="M-31 528q340 109 402 349l268 34q-10 -34 -22 -64l-25 -59l149 21q-92 -277 -256 -389l32 -32q15 -15 30 -32q155 -134 217 -286l-236 -56q-26 62 -63 111l-39 -8q-15 43 -59 106l-43 31h2l-254 172q11 3 32 10zM37 518l203 -137q154 -104 204 -227l174 41 q-59 151 -299 323q189 96 275 356l-197 -26q-61 -234 -360 -330z" />
<glyph unicode="=" horiz-adv-x="842" d="M-78 348q144 82 166 158h68q2 0 2 2h-236q144 82 166 158h647l17 -58q-29 -16 -47 -45h133l16 -57q-59 -37 -63 -100h-86v-3h133l16 -57q-59 -37 -63 -100h-766q90 53 133 102h-236zM37 379h622q5 51 76 96h-622q-15 -61 -76 -96zM37 539h622q5 51 76 96h-622 q-15 -62 -76 -96z" />
<glyph unicode="&#x3e;" horiz-adv-x="725" d="M-4 862l235 53q23 -61 62 -112l41 10q18 -51 57 -108q14 -10 43 -29l201 -137l-4 -31l106 -72l-6 -53q-282 -90 -350 -328l-262 -35q14 46 47 123l-150 -20q95 280 254 389q-20 19 -57 59q-164 144 -217 291zM37 840q55 -148 301 -326q-191 -92 -277 -354l195 26 q63 232 362 328l-200 137q-168 115 -207 228z" />
<glyph unicode="?" horiz-adv-x="885" d="M6 934q0 128 129 205q46 27 113 47q57 16 121 16q317 0 397 -160q131 -73 131 -233q0 -141 -88 -246q-57 -68 -158 -131v2q-59 -37 -69 -57q-9 -65 -9 -78v-10q0 -31 43 -152h-110q2 -4 2 -8q106 -23 106 -133q0 -60 -40.5 -98.5t-100.5 -38.5q-119 0 -141 106 q-105 22 -105 133q0 129 127 138v4q-4 0 -12 -1t-12 -1h-148q68 71 72 112q-2 20 -6 47v-2q-6 27 -6 56q0 62 61 102q23 15 70 47q-106 0 -180 53q-44 32 -66 80q-15 7 -37 23q-84 62 -84 178zM37 934q0 -101 71 -154q64 -47 168 -47q30 0 62 4q-85 27 -111 49 q-34 28 -34 84q0 92 49 154q53 68 143 68q107 0 151 -36t44 -145q0 -131 -74 -227q-59 -76 -187 -156q-47 -29 -47 -77q0 -16 6.5 -48.5t6.5 -48.5q0 -51 -33 -86h78q9 0 24.5 1t22.5 1h94q-26 77 -31 121q-2 19 9 92q4 26 83 78q109 72 152 125q80 98 80 225 q0 260 -395 260q-119 0 -217 -59q-115 -69 -115 -178zM258 98q0 -106 113 -106q46 0 78 30t32 76q0 47 -31.5 77t-78.5 30q-113 0 -113 -107zM326 774q11 -3 32 -10l-10 -55q17 -19 101 -45q100 100 100 247v23q0 10 -2 20q-30 4 -60 4q-74 0 -119 -56q-42 -52 -42 -128z " />
<glyph unicode="@" horiz-adv-x="1544" d="M6 522q0 281 232 467q214 172 514 172q290 0 489 -166q43 -36 90 -94q4 -3 12 -8q213 -178 213 -467q0 -150 -63 -270q-82 -156 -229 -156h-25q-106 0 -162 20q-13 -8 -57 -26h65l166 -35q-221 -131 -381 -131q-299 0 -516 147q-74 50 -143 131q-205 160 -205 416z M37 522q0 -262 231 -420q206 -141 500 -141q152 0 297 86l-88 19h-109q-608 0 -608 456q0 229 132.5 369.5t359.5 140.5q212 0 333 -141q115 -133 115 -348q0 -52 -14 -226q-6 -75 -103 -81q-47 4 -47 73v482q0 75 -65 106q-105 35 -197 35q-188 0 -313 -115q137 37 229 37 q107 0 191 -47q-29 -55 -95 -84q-52 -23 -202 -64q-178 -49 -178 -245q0 -106 80 -163q70 -50 180 -50q92 0 213 90q20 -43 32 -78q29 -41 66 -55q55 -28 184 -25q131 3 203 139q59 112 59 256q0 276 -202 443q-192 159 -469 159q-291 0 -496 -165q-219 -177 -219 -443z M410 283q19 -59 43 -93q43 -30 92 -47q-31 29 -47 64q-18 7 -31 20q-35 22 -57 56zM412 575q45 74 143 109l-23 43q70 64 148 96q-66 -5 -117 -14q-30 -25 -45 -41q-76 -81 -106 -193zM578 461q0 94 57 131q9 6 137 51q60 21 109 72v-318q-90 -71 -172 -71q-131 0 -131 135z M711 356q62 0 139 56v88q-41 -14 -96 -37q-43 -29 -43 -105v-2zM799 621q29 7 51 16v10q-21 -14 -51 -26zM887 96h96l4 -2v2q-3 9 -10 27l-12 6h2q-6 0 -11 4q-17 -12 -69 -37zM1055 854q4 -8 8 -25q10 -4 27 -8q4 -3 12 -8q-4 8 -12 23q-11 7 -35 18z" />
<glyph unicode="A" horiz-adv-x="1567" d="M-59 -31q135 96 335 488q78 152 304 600l-2 -4v10q0 8 -3 12q-30 21 -77 62l37 2l-7 6q-17 9 -34 22l2 -2q-21 8 -101 74l293 21q91 0 119 -58l24 -49q55 -13 78 -53q62 -110 215 -457q67 -152 207 -453q38 -78 74 -129q33 -20 72 -38l-9 -33q43 -37 111 -70l-12 -53 h-373q-12 34 -37 102h-65q-32 110 -115 279l-45 92q-118 -41 -289 -158q-240 -164 -240 -264l17 -51h-377q47 35 102 102h-204zM37 0h237q-4 12 -4 20q0 117 254 289q233 158 371 185l111 -232q78 -163 108 -262h336q-85 40 -141 109q-53 65 -107 170q-70 137 -209 454 q-126 288 -213 455q-22 42 -89 42q-10 0 -21 -1l-195 -15q25 -14 70 -43q63 -47 63 -108q0 -14 -2 -21q-145 -291 -303 -600q-202 -396 -266 -442zM346 301l326 621l194 -373l-182 -64q-70 -25 -86 -32q-190 -78 -252 -152zM641 502q61 21 182 63l-73 142zM705 385 q22 10 66 26l110 38l-4 8q-70 -19 -172 -72z" />
<glyph unicode="B" horiz-adv-x="1129" d="M4 1255l62 5q25 2 32 2q127 0 193 -66l12 -18q146 106 318 106q155 0 247 -86q30 -28 50 -63q1 -1 24 -17q105 -74 105 -205q0 -122 -84 -235q2 -5 10 -16q168 -119 168 -328q0 -287 -326 -402q-119 -42 -252 -57l8 -8h-125q-7 0 -22 -1t-23 -1h-94l-35 2h-159 q34 33 92 100l-35 2h-160q96 97 103 115v-2l8 90v811q0 68 -37 113q-42 51 -74 51zM37 1227l2 -49q19 0 70 -64q43 -54 43 -131v-813l-9 -90q-6 -29 -57 -80h86l35 -2h47q15 0 45 1t45 1h49l-2 2q174 12 311 61q306 111 306 373q0 226 -199 332q104 113 104 248 q0 115 -92 180q-81 57 -200 57q-175 0 -324 -118l-23 32q-62 63 -176 63q-14 0 -30 -1zM336 1030q10 52 84 82q63 25 125 25q153 0 153 -138q0 -98 -47 -174l-61 13q-172 16 -252 16v164zM338 109v657q0 8 51 8q134 0 256 -80q148 -97 148 -262q0 -179 -148 -276 q-113 -74 -254 -74q-17 0 -41 -4h-8q-4 20 -4 31zM469 926l2 -6v-41q43 -3 129 -11l35 -8q33 58 33 139v2q-6 3 -21 3q-50 0 -102 -18q-65 -22 -76 -60zM471 119q86 14 158 63v-2q133 90 133 252q0 76 -35 135q-115 74 -235 74q-21 0 -21 16v-538z" />
<glyph unicode="C" horiz-adv-x="1549" d="M6 614q0 319 264 496q224 150 553 150h635l-125 -103h228l-140 -115q-41 -41 -41 -71v-47q-4 -8 -4 -164q-44 57 -102 106v-4q-3 5 -10 15q-152 122 -338 122q-241 0 -387 -122q-156 -131 -156 -365q0 -205 102 -344q105 -74 252 -74q273 0 535 387v-239q46 53 102 137 v-365q-211 -180 -559 -180q-328 0 -512 174q-43 40 -63 68q-8 6 -39 35q-195 184 -195 503zM37 614q0 -311 184 -482q178 -165 492 -165q336 0 528 164v252q-215 -320 -504 -320q-229 0 -364 170q-123 155 -123 381q0 247 166 388q155 131 407 131q275 0 420 -183q0 68 4 80 v43q0 45 51 96l72 60h-547q-322 0 -536 -144q-250 -168 -250 -471z" />
<glyph unicode="D" horiz-adv-x="1327" d="M6 -31v1059q204 131 350 195q84 37 267 37q292 0 450 -189l31 -37q39 -30 72 -65q163 -175 163 -461q0 -292 -186 -483t-481 -191q-95 0 -195 25q-83 21 -125 45v-37h-243v102h-103zM37 0h182v70q46 -49 164 -78q102 -25 186 -25q280 0 458.5 182t178.5 461 q0 271 -155 442q-160 177 -428 177q-172 0 -254 -35q-150 -64 -332 -182v-1012zM219 166v678q0 132 111 215q99 74 239 74q213 0 326 -166q96 -141 96 -357q0 -203 -102 -362q-119 -185 -311 -185q-101 0 -189 23q-106 28 -170 80zM352 129q17 -8 45 -14l-2 2 q97 -23 183 -23q174 0 284 170q99 153 99 346q0 197 -91 334q-84 55 -198 55q-130 0 -221 -67q-99 -73 -99 -191v-612z" />
<glyph unicode="E" horiz-adv-x="1022" d="M-14 37l112 63q21 21 25 27q0 16 2 25v-2q0 2 1 6t1 6v901l-39 22l23 23q-9 12 -15 18l8 -4l-118 66l75 72h791q45 0 80 -66q-8 -12 -23 -37h45q45 0 80 -65q-47 -74 -49 -95l14 -118l-110 39q-86 65 -227 90h4l-52 4l-49 2l-78 -2l-12 -2v-228h434l-61 -102h164 l-103 -172l-131 -125q-100 135 -276 145h-10q-7 0 -15 2h2q-4 2 -4 13v-434l39 2l45 4q139 24 225 90l113 39l-14 -119q0 -10 6 -23l110 39l-14 -118q4 -23 41 -80l2 -29q-24 -51 -74 -51h-790l-76 71l55 31h-82zM37 31l37 -35h778q31 0 45 33q-45 71 -45 100l8 70l-59 -21 q-90 -69 -236 -94l-49 -4l-51 -2l-82 2l-41 4v569q-2 11 37 11q10 -2 14 -2q10 0 8 0q187 -9 279 -132l100 97l74 125h-512v389l39 4l84 2l49 -2l51 -4q142 -25 236 -94l59 -21l-8 70q0 28 45 100q-18 33 -45 33h-778l-37 -35l82 -45q39 -39 39 -82v-905q-4 -30 -4 -39 q-7 -19 -33 -45z" />
<glyph unicode="F" horiz-adv-x="1014" d="M-14 1188l75 72h791q43 0 72 -50v-30q-4 -8 -15 -23h45q43 0 72 -49v-31q-37 -57 -41 -80l14 -118l-110 39q-86 65 -227 90h4l-52 4l-49 2l-78 -2l-12 -2v-228h434l-61 -102h164l-103 -172l-131 -125q-100 135 -276 145h-10q-7 0 -15 2h2q-4 2 -4 11v-705l-59 -18 l-25 -17l4 2l-53 -45l-113 -90v185l-102 -82v1292l-39 22l23 23q-9 12 -15 18l8 -4zM37 1194l82 -45q39 -39 39 -82v-1233l63 51l51 43l31 21l39 12v692q0 11 37 11q10 -2 14 -2q10 0 8 0q187 -9 279 -132l100 97l74 125h-512v389l39 4l84 2l49 -2l51 -4q142 -25 236 -94 l59 -21l-8 70q0 28 45 100q-18 33 -45 33h-778z" />
<glyph unicode="G" horiz-adv-x="1549" d="M6 614q0 320 264 496q225 150 553 150h635l-125 -103h228l-140 -115q-41 -41 -41 -71v-47q-4 -8 -4 -164q-44 57 -102 106v-4q-3 5 -10 15q-152 122 -338 122q-241 0 -387 -122q-156 -131 -156 -365q0 -205 102 -344q105 -74 252 -74q135 0 240 62q119 70 123 153 q0 4 -4 25q-21 4 -62 14q-71 21 -98 21q-39 0 -92 -17h2l-230 -102q57 83 162 213q2 0 2 2q-13 -3 -39 -10h2l-229 -103q63 91 162 213q78 68 176 68q37 0 154 -27q11 -8 14 -8h8q7 -1 21 -4h30q54 0 107 31q8 2 104 75l43 -36l-10 -19l2 -2q-12 -8 -39 -53q-14 -31 -20 -80 q7 4 22 12q8 2 105 76l43 -37l-11 -18l2 -2q-12 -9 -38 -54q-23 -55 -23 -139q0 -106 41 -315q-229 -199 -592 -199q-328 0 -512 174q-43 40 -63 68q-8 6 -39 35q-195 184 -195 503zM37 614q0 -311 184 -482q178 -165 492 -165q352 0 559 178q-39 220 -39 306q0 92 24 151 q35 55 48 64l-11 -7l6 11q-92 -70 -98 -72q-59 -35 -123 -35q-34 0 -41 2q-14 2 -37 8q-110 29 -149 29q-84 0 -154 -59q-36 -38 -92 -115l125 55q43 19 103 19q32 0 106 -21q64 -18 104 -18q50 0 80 10q-4 -20 -4 -43q0 -20 5 -58.5t5 -58.5q0 -103 -137 -184 q-111 -66 -256 -66q-229 0 -364 170q-123 155 -123 381q0 247 166 388q155 131 407 131q275 0 420 -183q0 68 4 80v43q0 45 51 96l72 60h-547q-320 0 -536 -144q-250 -167 -250 -471z" />
<glyph unicode="H" horiz-adv-x="1461" d="M0 1245l78 15h346v-103h102v-549q213 211 504 223v183q0 6 1 18.5t1 18.5q0 123 -90 155l10 56l322 -2v-103h102v-1089q0 -64 4 -84v2q9 -30 93 -119h-437q28 33 78 102h-180q78 97 90 121l6 82v393q-179 -68 -309 -229q-138 -171 -180 -369q10 -15 32 -43l58 -57h-445 q28 33 78 102h-180q78 97 90 121q0 2 1 3t1 3l-2 -6l6 82v807q0 31 -10 57q-45 29 -64 84q-2 2 -3 2t-3 2q-82 29 -100 121zM37 1221q8 -46 74 -68q34 -11 41 -27l4 -16q55 -41 55 -131l-6 -891q-10 -35 -53 -88h301q-17 21 -47 63q47 219 188 394q187 231 467 278v-565 l-6 -82q-11 -35 -54 -88h302q-45 51 -54 78q-6 17 -6 92v1059l-280 2q100 -37 100 -180q0 -12 -1 -36t-1 -36v-176q-406 -4 -668 -410v836h-309zM1024 90q0 2 1 3t1 3z" />
<glyph unicode="I" horiz-adv-x="670" d="M0 1245l78 15h405v-103h103v-1089q0 -68 2 -72q10 -27 94 -129h-428l72 102h-174q63 86 81 121l7 82v807q0 20 -2 31q-12 4 -35 12q-72 26 -97 100q-4 0 -6 2q-82 29 -100 121zM37 1221q8 -46 74 -68q82 -28 104 -43q55 -38 55 -131l-6 -891q-8 -33 -51 -88h299 q-43 51 -51 78q-8 18 -8 92v1059h-369zM233 92l3 4q0 -2 -3 -2v-2z" />
<glyph unicode="J" horiz-adv-x="572" d="M-53 -395q187 124 248 270q43 103 43 285v817q0 5 -1 14.5t-1 14.5q-20 9 -35 14q-72 25 -97 98q-2 2 -3 2t-3 2q-82 29 -100 121l78 17h405v-103h103v-1100q0 -212 -105 -372q-137 -209 -413 -234l-17 51q51 36 144 117q-105 -53 -230 -65zM-25 -414q247 21 375 217 q101 154 101 357v1069h-369l-47 -10q7 -45 74 -68q86 -30 104 -43q55 -40 55 -131v-817q0 -188 -45 -297q-65 -158 -248 -277z" />
<glyph unicode="K" horiz-adv-x="1530" d="M-57 1278h473v-102h102v-383q33 11 74 30q53 25 122.5 116.5t73.5 166.5q-2 0 -2.5 1t-1.5 1l2 18q-12 60 -104 84l8 60l414 2q-6 -18 -41 -105l143 2q-58 -163 -137 -303v2q-96 -174 -176 -223q-23 -14 -70 -41q14 -13 47 -51q1 -3 7 -8q34 -29 96 -94q15 -19 155 -236 q2 -3 15 -25q8 -2 20 -6q50 -34 156 -34q32 0 61 4q13 2 19 -12l6 -15l8 -23q6 -6 19 -6l8 2q-71 -22 -119 -43q30 -6 45 -6q24 -4 55 -4q33 0 62 4q12 2 18 -12l6 -14l9 -23q6 -6 18 -6l8 2q-152 -49 -246 -104l-96 -56q-119 64 -192 160q-69 53 -117 123v-2 q-31 39 -88 151l-80 160q-2 5 -10 16q-54 29 -129 60q-34 10 -66 16v-452q0 -64 8 -84q6 -25 88 -119h-436q58 70 78 102h-180q80 94 90 127v-4l6 82v899q0 2 -1 3.5t-1 4.5q-42 31 -125 95h33zM37 1247q166 -121 166 -174l-6 -983q-9 -37 -54 -90h301q-41 45 -49 80 q-10 31 -10 92v487q38 -4 109 -22l90 -40q33 -15 53 -28q71 -46 113 -125q152 -289 165 -307q74 -105 183 -162l82 48q105 62 252 106l4 -1q-6 -2 -54 -5q-37 -2 -67 -2t-53 2q-76 7 -109 31q-70 17 -154 147l-153 234q-105 129 -236 153q61 22 164 86q72 45 166 211 q82 145 121 256l-363 -2q121 -31 121 -129q0 -81 -80 -188q-41 -55 -67 -79q-29 -28 -66 -46q-102 -49 -192 -49q-19 0 -29 2v497h-348z" />
<glyph unicode="L" horiz-adv-x="1116" d="M12 1204l13 53h393v-102h102v-1040q254 2 461 159l45 -41q-37 -57 -65 -139q69 39 122 78l45 -41q-104 -176 -104 -360q-124 88 -383 88h-29l-446 -11q27 36 82 107l-185 -4q48 59 107 145l-2 -6l6 82v803q0 53 -31 112q-14 7 -28 15l4 22q-35 45 -107 80zM37 1227 q89 -41 133 -125q35 -67 35 -127l-6 -887q-9 -27 -70 -104l381 8q24 0 46 1q248 0 335 -61q0 136 108 318q-219 -166 -495 -166q-53 0 -94 10q-17 4 -23 10v1123h-350z" />
<glyph unicode="M" horiz-adv-x="1833" d="M-35 1241l152 19h289l88 -103h14l416 -477l411 491l107 95l244 4l12 -60q-64 -24 -82 -47l172 4l12 -59q-94 -39 -94 -74v-14l2 -952q0 -30 4 -52q0 -6 2 -14l4 -16q8 -4 25 -17h-21q27 -37 123 -102h-467q72 55 103 102h-205q120 91 123 162l2 41l-2 608l-293 -348h2 q-66 -78 -66 -127v-8q1 -5 5 -14l-48 -29l-98 104l-4 -2l-408 443v-594q0 -81 50 -156q10 -16 41 -51q10 -10 30 -29h-4q14 -14 107 -102h-471q19 34 53 102h-156q92 156 92 236v819q-10 4 -21 8l-22 8q-20 11 -120 99l20 2l-2 2q-20 10 -121 98zM37 1219q47 -41 59 -48 q37 -15 82 -26l84 -51v-889q0 -92 -67 -205h337q-86 78 -122 135q-54 85 -54 172v682l555 -602q-2 6 -2 21q0 61 72 147l438 522q11 -41 11 -94v-854q-4 -80 -66 -129h281q-43 29 -58 72q-2 7 -8 45q-4 27 -4 53l-2 967q0 57 113 102l-232 -4l-96 -84l-440 -524l-527 602 h-270z" />
<glyph unicode="N" horiz-adv-x="1409" d="M-35 1241l152 19h289l88 -103h14l655 -766v617q-2 7 -8 20l-33 27v22l-102 80v103h299v-103h102v-1194q0 -86 -59 -104h-2l-4 -6q-49 21 -101 81l-32 37q-25 19 -70 66l-664 754v-586q0 -81 50 -156q10 -16 41 -51q10 -10 30 -29h-4q14 -14 107 -102h-471q19 34 53 102 h-156q92 156 92 236v819q-10 4 -21 8l-22 8q-20 11 -120 99l20 2l-2 2q-20 10 -121 98zM37 1219q47 -41 59 -48q37 -15 82 -26l84 -51v-889q0 -92 -67 -205h337q-86 78 -122 135q-54 85 -54 172v682l820 -932q48 -55 79 -69q-5 3 -14 10l19 -4q28 10 28 72v1163h-237v-58 l108 -84q25 -40 30 -56.5t5 -57.5v-680l-803 936h-270z" />
<glyph unicode="O" horiz-adv-x="1563" d="M6 614q0 321 232 510q207 168 501 168q298 0 502 -168q52 -43 96 -98q4 -4 6 -4q232 -191 232 -510q0 -321 -232 -510q-207 -168 -501 -168q-299 0 -504 168q-54 44 -94 94l-8 8q-230 230 -230 510zM37 614q0 -303 219 -485q195 -162 483 -162q285 0 484 162 q219 178 219 485q0 306 -219 486q-197 162 -484 162q-284 0 -483 -162q-219 -178 -219 -486zM250 614q0 241 121 391q132 162 368 162q198 0 336 -137q154 -152 154 -416q0 -240 -123 -390q-132 -161 -367 -161q-234 0 -367 162q-122 150 -122 389zM383 512q0 -211 96 -346 q105 -72 260 -72q221 0 345 153q114 141 114 367q0 203 -98 338q-113 82 -258 82q-223 0 -346 -153q-113 -141 -113 -369z" />
<glyph unicode="P" horiz-adv-x="1035" d="M4 1255l62 5q25 2 32 2q127 0 193 -66l12 -18q146 106 318 106q155 0 247 -86q30 -28 50 -63q1 -1 24 -17q105 -74 105 -205q0 -281 -418 -464q-35 -16 -95 -41q-40 -15 -67 -21l2 -319q0 -62 6 -84v2q9 -32 84 -119h-446l61 63q23 25 33 39h-197q96 97 103 115v-2l8 90 v811q0 68 -37 113q-42 51 -74 51zM37 1227l2 -49q19 0 70 -64q43 -54 43 -131v-813l-9 -90q-6 -29 -57 -80h307q-40 50 -49 78q-8 23 -8 92l-2 346q34 0 180 64q399 175 399 436q0 115 -92 180q-81 57 -200 57q-175 0 -324 -118l-23 32q-62 63 -176 63q-14 0 -30 -1z M336 637v381q0 56 78 92q58 27 131 27q153 0 153 -138q0 -262 -362 -362zM469 717q199 98 199 282v2q-6 3 -21 3q-66 0 -119 -25q-59 -28 -59 -64v-198z" />
<glyph unicode="Q" horiz-adv-x="1766" d="M6 614q0 321 232 510q207 168 501 168q298 0 502 -168q52 -43 96 -98q4 -4 6 -4q232 -191 232 -510t-229 -506q4 -6 14 -16q1 -3 4 -6q29 -25 98 -68h-2q17 -10 70 -37l145 -72l-14 -45q40 -22 117 -57l-19 -57q-296 41 -389 102q-99 65 -180 158q-160 -74 -348 -74 q-299 0 -504 168q-54 44 -94 94l-8 8q-230 230 -230 510zM37 614q0 -303 219 -485q195 -162 483 -162q199 0 359 80q83 -101 186 -168q87 -57 377 -98l-145 71q-50 25 -70 37q-120 72 -189 156q-17 22 -53 64l-4 4q242 180 242 501q0 306 -219 486q-197 162 -484 162 q-284 0 -483 -162q-219 -178 -219 -486zM250 614q0 241 121 391q132 162 368 162q198 0 336 -137q154 -152 154 -416q0 -223 -115 -374q-72 110 -121 163q-119 128 -252 185q-48 20 -247 67l233 -161q67 -47 147 -138q59 -68 119 -161q10 -16 31 -45q-121 -87 -285 -87 q-234 0 -367 162q-122 150 -122 389zM383 512q0 -211 96 -346q105 -72 260 -72q138 0 240 62l-12 24v-2q-41 60 -69 98l-44 58q-14 10 -43 33l-244 168l11 22l-113 80l24 51q210 -49 265 -72q144 -60 262 -192q35 -33 102 -102q1 -2 8 -9q72 127 72 301q0 203 -98 338 q-113 82 -258 82q-223 0 -346 -153q-113 -141 -113 -369z" />
<glyph unicode="R" horiz-adv-x="1241" d="M4 1255l62 5q25 2 32 2q127 0 193 -66l12 -18q146 106 318 106q155 0 247 -86q30 -28 50 -63q1 -1 24 -17q105 -74 105 -205q0 -262 -353 -436q16 -16 47 -49q70 -65 117 -121l56 -66q36 -44 92 -110h-2q14 -18 18 -22q68 -59 129 -89l-8 -28q55 -47 110 -74l-12 -51 h-266q-115 67 -232 199q-2 0 -2.5 1t-1.5 1q-5 1 -8 8q-52 47 -94 96v-2q-12 10 -162 197q-4 4 -6 4v-303q0 -60 6 -84v2q9 -32 84 -119h-446l61 63q23 25 33 39h-197q96 97 103 115v-2l8 90v811q0 68 -37 113q-42 51 -74 51zM37 1227l2 -49q19 0 70 -64q43 -54 43 -131 v-813l-9 -90q-6 -29 -57 -80h307q-40 50 -49 78q-8 24 -8 92v350q66 -14 137 -102l130 -160q32 -39 56 -65q125 -139 220 -193h245q-111 56 -245 213q-63 74 -148 178q-104 128 -217 189q399 172 399 436q0 115 -92 180q-81 57 -200 57q-175 0 -324 -118l-23 32 q-62 63 -176 63q-14 0 -30 -1zM336 637v381q0 56 78 92q58 27 131 27q153 0 153 -138q0 -262 -362 -362zM469 717q199 98 199 282v2q-6 3 -21 3q-66 0 -119 -25q-59 -28 -59 -64v-198z" />
<glyph unicode="S" horiz-adv-x="1090" d="M-4 72l53 118q8 19 14 35q11 33 11 185l51 12q31 -66 63 -113l39 10q37 -77 80 -135q84 -59 189 -59q258 0 258 145q0 29 -11 60q-13 6 -41 18l3 -2l-345 88q-152 55 -206 152q-142 105 -142 256q0 170 156 295l-2 -2q111 90 190 110q59 15 189 15q190 0 395 -91l-25 -55 q75 -24 127 -47l-34 -80q-19 -25 -29 -63v6l-2 -23q2 -16 2 -28v-23q0 -31 -10 -41v2q-17 -22 -90 -80q-21 82 -58 140q-15 -12 -45 -37q-18 75 -51 129q-61 32 -139 32q-99 0 -162.5 -52t-63.5 -152q0 -17 2 -25q15 -5 46 -14l372 -103q125 -49 181 -141q141 -90 141 -254 q0 -203 -187 -309h3q-152 -86 -361 -86q-201 0 -459 104q9 18 23 56q-74 24 -125 47zM37 88q223 -90 418 -90q201 0 344 82q170 98 170 282q0 185 -209 269l-361 98q-172 47 -172 170q0 116 72 176t184 60q256 0 314 -242q41 31 47 47q2 4 2 18v23q0 12 -2 29l2 24 q8 37 31 68l22 51q-172 76 -354 76q-121 0 -180 -15q-81 -21 -179 -102q-143 -119 -143 -270q0 -195 211 -271l356 -92q174 -63 174 -209q0 -176 -288 -176q-242 0 -392 301q0 -135 -8 -162q-2 -12 -59 -145z" />
<glyph unicode="T" horiz-adv-x="1622" d="M6 987l129 191q47 70 47 331q63 -106 103 -155v53q39 -72 73 -117q60 -26 164 -26h1010l-141 -103h243l-164 -119q-39 -28 -61 -92l2 2l-37 -145q-65 70 -102 108v-6q-13 13 -37 41q-5 2 -14 11q-54 30 -146 30h-100v-923q0 -66 8 -84q2 -23 88 -117h-436q46 56 78 102 h-181q78 97 91 121l6 82v819h-111q-115 0 -184 -30l-189 -115l-36 39l118 176l-184 -113zM37 981l180 111q72 32 199 32h162q22 -11 26 -14q55 -41 55 -131l-6 -891q-10 -35 -53 -88h301q-45 51 -51 78q-8 18 -8 92v954h131q106 0 162 -34q29 -18 120 -117l23 90 q17 66 72 106l88 64h-916q-113 0 -180 31q-73 34 -129 131q0 -156 -53 -234zM623 90q0 2 1 3t1 3z" />
<glyph unicode="U" horiz-adv-x="1342" d="M6 596q0 162 105 319q41 50 69 86l43 56l-35 35v2l-102 100q53 66 90 66h258q10 0 43 -11l23 -28v-52q-2 -2 -7.5 -6t-7.5 -6h52q10 0 43 -10l22 -29v-51q-219 -209 -219 -573q0 -224 94 -344q8 -13 15 -19q54 -29 135 -33q114 6 172 54q7 4 82 100q94 121 94 344 q0 365 -217 573v48l18 32q28 11 45 11h258q35 0 95 -66l-39 -37h47q35 0 94 -65l-143 -138q12 -16 37 -46q20 -23 65 -81q119 -167 119 -333q0 -267 -146 -447q-164 -203 -438 -203h-20q-3 0 -9.5 1t-9.5 1t-10 -1t-10 -1h-19q-278 0 -440 203l-6 6q-49 38 -96 97 q-144 182 -144 446zM37 596q0 -258 137 -428q154 -191 416 -191h18q11 1 20 1q10 0 19 -1h21q260 0 413 191q140 174 140 428q0 159 -105 305q-32 40 -84 106l-39 50q0 6 25 30l112 109q-30 33 -51 33h-258q-12 0 -24 -4l-9 -15v-28q218 -209 218 -586q0 -231 -101 -363 q-78 -102 -92 -110q-59 -49 -184 -55q-118 6 -183 55q-29 22 -96 110q-100 131 -100 363q0 377 219 586v28l-10 15q-13 4 -25 4h-258q-22 0 -49 -33l113 -109q22 -21 22 -30l-123 -156q-102 -156 -102 -305z" />
<glyph unicode="V" horiz-adv-x="1555" d="M-23 1260h457q25 -7 84 -66q-28 -20 -45 -37h64q24 -6 84 -65q-74 -56 -84 -93l6 -26l-2 2q59 -210 272 -606l205 364q85 150 158 318l2 24v10l-54 45l13 3l-115 100l129 27h313l-51 -103h154l-103 -207l-221 -397q-110 -198 -340 -674v2q-18 -47 -65 -53q-62 0 -111 102 q-72 9 -127 160v-2l-86 215q-116 290 -276 574q-52 93 -261 383zM37 1229q171 -240 227 -338q163 -287 279 -576l86 -215q56 -139 102 -139q26 4 41 35q60 128 182 370q92 182 160 304l221 397l78 162h-256l-67 -15l100 -86q18 -26 20 -53l-4 -33q-79 -174 -162 -323 l-251 -451q-14 22 -62 107q-275 491 -321 694l-7 31q7 51 68 96q-31 31 -43 33h-391z" />
<glyph unicode="W" horiz-adv-x="2073" d="M6 596q0 162 105 319q41 50 69 86l43 56l-35 35v2l-102 100q53 66 90 66h258q10 0 43 -11l23 -28v-52q-2 -2 -7.5 -6t-7.5 -6h52q10 0 43 -10l22 -29v-51q-219 -209 -219 -573q0 -201 74 -320q90 -57 231 -57q105 0 180 45q-137 194 -137 434q0 252 129 461l-37 35 q0 2 2 2l-104 100q53 66 90 66h203q65 0 78 -74q-3 -9 -11 -29h35q66 0 78 -74q-86 -258 -86 -589q0 -201 66 -326q6 -12 18 -35q47 -27 108 -27h11q199 0 311 146q86 112 86 346q0 365 -219 573v52l22 28q30 11 43 11h258q35 0 91 -68l-37 -35h49q35 0 90 -67l-131 -127 q-4 -4 -6 -4l-2 -3q47 -60 114 -143q105 -160 105 -319q0 -263 -146 -449q-159 -203 -438 -203q-6 0 -16.5 -1t-16.5 -1q-10 -2 -22 -2h-19q-122 0 -196 25h2q-70 20 -164 86q-164 -107 -377 -107q-278 0 -440 203l-6 6q-49 38 -96 97q-144 182 -144 446zM37 596 q0 -258 137 -428q154 -191 416 -191q223 0 381 115q85 -71 168 -96q77 -23 186 -23q12 0 37 2t37 2q262 0 413 191q140 177 140 430q0 147 -103 305q-110 135 -123 156q0 9 23 31l113 106q-29 35 -50 35h-258q-12 0 -24 -4l-10 -15v-28q219 -209 219 -586q0 -246 -92 -365 q-121 -157 -336 -157h-11q-163 0 -256 180q-69 133 -69 340q0 334 86 592q-6 41 -47 41h-203q-23 0 -49 -33l115 -109q20 -19 20 -30q-135 -209 -135 -461q0 -246 149 -440q-90 -70 -223 -70q-225 0 -338 145q-100 128 -100 365q0 377 219 586v28l-10 15q-13 4 -25 4h-258 q-22 0 -49 -33l113 -109q22 -21 22 -30l-123 -156q-102 -156 -102 -305z" />
<glyph unicode="X" horiz-adv-x="1493" d="M-16 -31q125 224 278 410l264 321l-139 213q-8 12 -25 35q-20 10 -34 10q-25 0 -86 -16l-103 -27l-26 50q64 53 127 94q-7 2 -15 2q-19 0 -86 -17l-102 -26l-27 49q187 160 301 160q109 0 221 -144q50 -34 107 -108q1 -3 41 -60q65 96 139 197q124 168 258 168 q97 0 201 -45q-7 -22 -25 -64q62 -12 127 -38q-30 -101 -96 -201q-86 45 -129 45q-53 0 -102 -53q-41 -44 -95 -133q-26 -44 -84 -129l631 -797l-356 -4q-21 34 -64 102h-38l-123 200q-55 88 -86 134q-51 75 -107 149q-56 -78 -162 -239q-90 -151 -147 -332l-336 -8 q37 66 61 106zM37 2l260 6q55 175 143 318q8 12 70 104l127 186q127 -157 225 -303q57 -85 203 -319l274 4l-608 768q41 41 99.5 141.5t97.5 141.5q57 61 125 61q53 0 118 -35q52 79 70 142q-74 32 -164 32q-121 0 -233 -155q-60 -83 -176 -252l-103 142q-21 31 -53 75 q-102 137 -201 137q-102 0 -270 -143l90 22q70 17 94 17q84 0 189 -162l151 -232l-278 -338q-62 -75 -140 -186q-63 -88 -110 -172z" />
<glyph unicode="Y" horiz-adv-x="1389" d="M-23 1266h451q25 0 90 -66q-15 -12 -45 -37h57q25 0 91 -65q-84 -66 -84 -97q0 -87 170 -403l147 213q135 199 145 260q0 6 -2 8q-23 15 -67 47l26 4q-43 39 -129 99l144 28h303l24 -49q-11 -18 -36 -53h114l25 -49q-224 -321 -508 -778l-358 -576q-7 -6 -9 -10 q13 -15 23 -53q8 -3 26 -11l-4 3q60 -15 80 -97l-426 -8l66 107l-168 -5l403 644l-348 659l-1 1t-1 3q-27 39 -82 117q-29 41 -87 124q-17 23 -30 40zM37 1235q154 -220 164 -231l362 -685l-383 -608l328 6q-6 27 -45 35q-20 6 -57 21q-9 6 -29 14q-8 6 -8 14q0 11 37 70 l358 575q280 449 510 781h-297l-70 -15q117 -77 123 -139q-6 -68 -151 -278l-199 -289q-277 481 -277 598q0 45 68 98q-33 33 -43 33h-391z" />
<glyph unicode="Z" horiz-adv-x="1520" d="M-20 8l940 910h-293q-154 0 -377 -62l-76 59q16 17 31 34l28 32q-30 -6 -86 -23l-75 60q49 50 139 153q31 41 100 183q67 -59 84 -66q48 -33 121 -51h-6l129 -12l160 -4h-1q0 1 357 14q18 0 53 2q23 1 39 4q142 0 148 -86q-2 -6 -9 -18q105 -9 111 -84q-12 -33 -33 -47 l4 2l-856 -809q66 0 157 3l214 7l238 10q55 2 96 14l4 4q3 2 33 14q26 9 76 30v-86q0 -19 -84 -78q40 7 75 16q14 7 17 8q24 10 73 28q13 5 21 9v-86q0 -23 -119 -98q-112 -71 -141 -119q-38 -18 -271 -18h-100q-84 0 -228 3q-33 0 -102 1l-374 6l-115 39l63 63h-51zM37 20 l61 -20l371 -6q80 -1 264 -3l166 -1q227 0 248 10q33 52 147 123q105 65 105 72v41q-28 -12 -84 -33q-41 -13 -92 -15l-238 -10q-238 -10 -393 -10q-219 0 -246 20l1000 945q8 6 18 28q-4 49 -117 49q10 0 0 -1t-39 -3q-333 -16 -402 -16h-7l-160 4l-131 12q-83 22 -131 58 q-16 7 -55 41q-55 -112 -86 -152q-10 -13 -119 -131l39 -31q219 60 368 60h578z" />
<glyph unicode="[" horiz-adv-x="682" d="M6 -96l6 1384q13 53 58 78h-2q70 45 112 45h389l11 -55l-119 -47h211l10 -56l-330 -129v-1048h230l10 -56l-135 -47h227l10 -55l-334 -117h-251v103h-103zM37 -66h217l317 111h-352v1221l35 -6l303 120h-375q-36 0 -98 -41q-31 -16 -41 -57z" />
<glyph unicode="\" horiz-adv-x="1094" d="M0 1368l25 96h251l46 -102h57l563 -1288q23 -53 51 -113v2q20 -30 113 -141h-272q0 31 -23 102h-80q0 81 -108 330l-293 675q-66 148 -111 238v-2l-18 27q-8 12 -17 25l-82 49l9 34zM37 1382l96 -57q20 -12 51 -53q27 -37 62 -90q86 -173 270 -602l135 -314 q111 -258 111 -311h176q-59 67 -74 94q-12 21 -53 115l-555 1270h-207z" />
<glyph unicode="]" horiz-adv-x="695" d="M16 1284l332 119h256v-103h103v-1325q0 -101 -68 -137q-84 -45 -107 -45h-393l-10 55l119 48h-211l-10 55l323 127l8 -2v1050h-229l-10 56l131 47h-223zM37 1260h352v-1217l-35 4l-305 -121h377q21 0 96 41q51 28 51 111v1294h-221z" />
<glyph unicode="^" horiz-adv-x="768" d="M-57 1100q130 97 233 192l45 54q15 18 23 26v-2q60 70 98 123q40 -50 98 -111q2 2 2 4.5t2 4.5q56 -61 166 -183q87 -96 170 -211h-344l92 78q-4 4 -20 25h-109q2 -6 2 -23q0 -8 2 -10v2l3 -12v2l2 -6l6 -74l-58 18h-311q44 33 131 103h-233zM37 1130h221l18 -6l-2 21 l-2 10l-2 12q-3 17 -4 27q0 35 86 125q49 -59 78 -95l37 -46q-16 -23 -23 -25l-26 -23h200q-50 72 -133 160q-113 121 -141 154q-27 -39 -86 -103l-18 -20q-17 -18 -39 -47q-92 -87 -164 -144z" />
<glyph unicode="_" horiz-adv-x="1469" d="M18 -94l285 92h1067l8 -57l-139 -45h234l8 -58l-285 -92h-1067l-8 57l139 45h-233zM37 -121h1053l270 88h-1053z" />
<glyph unicode="`" horiz-adv-x="584" d="M0 1368l25 96h251l43 -102h60l53 -125q52 -122 164 -252h-289q15 35 20 45l5 10q0 6 -20 34q-5 7 -9 13h-98q14 35 19 46l5 10q0 -1 -27 45q-15 26 -56 52q-21 13 -44 26l7 26q-43 40 -109 76zM37 1382q126 -71 209 -200q14 -22 14 -39q0 -6 -8 -25h176q-76 88 -127 209 l-45 107h-207z" />
<glyph unicode="a" d="M6 205q0 215 180 270l-22 43q69 64 147 96q-99 -5 -225 -39l-25 46q144 133 345 133q88 0 212 -39q62 -31 76 -94q9 -5 27 -9q80 -37 80 -133v-477q1 -2 6 -4q18 -55 76 -72l-9 -59h-212q-45 0 -70 45q-4 6 -4 10q-103 -63 -189 -63q-119 0 -198 57q-49 36 -72 84 q-12 5 -31 18q-92 64 -92 187zM37 205q0 -105 80 -162q72 -51 180 -51q96 0 215 88q-4 -12 -6 -17q-4 -10 10 -32q19 -31 43 -31h205q-62 14 -86 84q-10 13 -10 16v482q0 75 -68 106q-104 35 -194 35q-189 0 -314 -115q137 37 230 37q106 0 190 -47q-29 -54 -94 -84 q-42 -19 -205 -63q-176 -47 -176 -246zM209 252q0 93 57 131q8 5 137 51q61 21 109 72v-318q-90 -71 -172 -71q-131 0 -131 135zM342 147q62 0 139 56v88q-40 -13 -96 -37v2q-43 -31 -43 -106v-3zM426 410q33 8 55 18v10q-31 -18 -55 -28z" />
<glyph unicode="b" horiz-adv-x="1069" d="M-18 1036l161 74q54 16 125 100l111 47v-147l102 45v-426q33 6 74 6q248 0 365 -174q19 -12 38 -29q123 -109 123 -292q0 -179 -125 -291q-117 -105 -299 -105q-15 0 -153 11q-36 3 -90 57l-37 -45l-174 -8q8 78 22 108l-125 -6q6 50 27 115q35 38 35 63v744 q-55 24 -78 51l78 35v6q-4 -11 -45 -4q-85 15 -135 65zM37 1026q8 -10 86 -25q70 -14 70 -24v-838q0 -37 -46 -88q-6 -8 -12 -57l125 6l45 53q3 4 8 4q60 -67 90 -69q154 -11 152 -11q170 0 279 96q114 101 114 269q0 173 -112 270q-106 93 -281 93q-129 0 -207 -54v559 l-63 -26q-69 -76 -123 -101zM348 176v301q0 47 81 99q75 49 126 49q105 0 168 -95q51 -77 51 -188q0 -109 -51 -190q-61 -97 -168 -97q-65 0 -139 45q-68 41 -68 76zM426 -74q2 0 2 2h2v2zM481 100q37 -14 74 -14q92 0 144 86q44 73 44 170q0 78 -28 139q-31 11 -58 11 q-36 0 -104 -41q-72 -44 -72 -76v-275z" />
<glyph unicode="c" horiz-adv-x="838" d="M6 375q0 167 135 270q121 92 285 92q74 0 172 -39q129 -51 135 -116q103 -50 103 -109q0 -33 -78 -84h2q-48 -36 -156 -80q33 80 33 103q0 26 -25 49q-24 -12 -53 -24l-57 -25q18 47 28 84h-12q-85 0 -133 -78q-43 -70 -43 -168q0 -72 27 -123q43 -21 100 -21 q35 0 104 27h-2q76 33 123 92l54 -28q-46 -125 -130 -187q19 7 58 21h-2q76 32 123 92l53 -29q-90 -246 -326 -246q-238 0 -348 166q-170 107 -170 361zM37 375q0 -185 100.5 -289t284.5 -104q213 0 297 225q-56 -70 -135 -103q-67 -28 -115 -28q-114 0 -188 82 q-72 79 -72 194q0 108 47 185q56 92 160 92q55 0 99 -29q50 -34 50 -86q0 -20 -10 -47q29 11 84 49q63 44 63 59q0 50 -114 95q-94 37 -162 37q-156 0 -266 -86q-123 -96 -123 -246z" />
<glyph unicode="d" horiz-adv-x="1051" d="M6 319q0 189 119 304q116 112 305 112q100 0 178 -33v226q-18 0 -55 1t-55 1l-9 59q34 9 103 27q-12 16 -197 16l-8 60q222 55 270 90q66 48 121 65q47 -53 47 -84v-41q29 15 56 23q47 -53 47 -84v-946q0 -49 14 -84q6 -2 19 -11l-9 -8q29 -43 111 -94l-78 -68 q-16 -2 -33 -2h-32q-33 0 -42 2.5t-42 16.5q-33 8 -68 33q-109 -56 -236 -56q-278 0 -374 162q-152 88 -152 313zM37 319q0 -342 393 -342q131 0 240 62q37 -32 71 -39q24 -13 39 -16q9 -2 37 -2h23q14 0 30 2l39 32q-65 41 -89.5 83.5t-24.5 117.5v946q0 23 -27 51 q-29 -7 -92 -57q-47 -36 -273 -94q192 0 213 -29q23 -32 23 -88v-293q-88 52 -209 52q-177 0 -285 -104.5t-108 -281.5zM209 319q0 98 59 197q66 111 162 111q51 0 127 -49q82 -53 82 -101v-301q0 -37 -66 -74q-84 -47 -143 -47q-103 0 -166 82q-55 71 -55 182zM342 217 q0 -73 23 -121q23 -10 65 -10q51 0 129 43q49 27 49 47v293q-47 25 -76 25q-77 0 -135 -97q-55 -93 -55 -180z" />
<glyph unicode="e" horiz-adv-x="891" d="M6 344q0 181 106 287t287 106q140 0 224 -73q30 -26 59 -74q19 -10 43 -29q72 -59 133 -229l-516 -94q2 -62 29 -113q43 -19 94 -19q86 0 164 52v-2q73 53 116 131l56 -25q-62 -178 -180 -254q59 12 110 47v-2q74 53 117 131l55 -24q-106 -312 -393 -312q-168 0 -285 113 q-27 26 -51 59q-27 19 -51 43q-117 116 -117 281zM37 344q0 -153 107.5 -257.5t263.5 -104.5q264 0 364 290q-105 -196 -307 -196q-118 0 -189 86q-67 80 -67 200v13q-1 -7 -6 -21l2 13l510 92q-89 248 -316 248q-166 0 -264 -98t-98 -265zM205 451q16 33 45 100 q41 66 125 78q11 2 22 2q45 0 83 -27q48 -33 61 -88z" />
<glyph unicode="f" horiz-adv-x="850" d="M-10 582l49 123q16 12 20 34q4 49 39 131q37 -71 70 -102v96q0 94 57 172l47 47q101 101 246 101q84 0 160 -58q36 -27 59 -75q15 -8 43 -27q66 -51 82 -147l-53 -17q-3 0 -49 -24q-3 -2 -10 -5l-7 -4q-7 -5 -75 -42l-49 -27q-23 -13 -31 -17l92 154q-14 20 -53 27 q-21 -11 -60 -33l-63 -37q-17 -39 -17 -88v-25h215l-55 -102h158l-84 -156l-234 2v-598l-217 -170v183l-102 -80v663l-76 -2l43 107zM37 614l162 4v-737l155 121v614l246 -2l51 95l-297 2v155q0 89 47 150q33 43 74 43q119 0 137 -66l-45 -73q10 5 65.5 39t72.5 34l20 6 q-10 62 -66 103q-69 51 -141 51q-131 0 -213 -82l-59 -59q-47 -65 -47 -150v-149q-8 5 -25 14q-43 16 -72 72q-4 -9 -11 -61q-6 -39 -25 -52z" />
<glyph unicode="g" horiz-adv-x="1026" d="M4 -211q92 27 186 158q-23 23 -32 43q-32 16 -66 53q-86 95 -86 236q0 196 162 323q146 115 324 119l434 10l10 -59q-22 -10 -68 -29q-10 -6 -16 -6l-4 -12l180 4l10 -60l-40 -17q-17 -7 -27 -12t-17 -5q-6 -9 -14 -48v5q-12 -78 -12 -263q0 -348 -33 -456 q-96 -314 -408 -314q-122 0 -243 84l-90 95q-4 4 -13 8zM37 279q0 -131 77 -216q80 -88 210 -88q165 0 317 111v-25q0 -127 -37 -231q-56 -156 -178 -156q-49 0 -96 33q-32 23 -80 88q-53 73 -53 99q-66 -105 -134 -123l101 -105q106 -74 221 -74q292 0 379 291 q31 104 31 449q0 188 12 266q14 57 31 68q30 11 88 34l-434 -10q-169 -4 -306 -112q-149 -117 -149 -299zM209 272q-1 12 -1 23q0 132 97 215q100 86 248 86h98q-2 -2 -2 -4l10 -2q28 -6 31 -94v-17q0 -93 -31 -184q-31 -90 -99 -154q-77 -71 -165 -71q-77 0 -131 63 q-50 59 -55 139zM238 -98q8 -52 34 -86q13 14 33 47q-39 16 -67 39zM330 -145q8 -88 43 -138q26 -12 53 -12q103 0 149 135q3 10 9 27q-78 -25 -158 -25q-51 0 -96 13zM342 172q0 -37 12 -68q11 -4 21 -4h20q74 0 144 64q64 59 92 141q26 77 28 158h-4q-137 0 -227 -78 q-86 -75 -86 -192v-21z" />
<glyph unicode="h" horiz-adv-x="957" d="M4 1055q82 12 174 67q18 10 53 31h-2q37 24 105 63q20 11 33 19l-11 -139q-3 -13 -12 -37q82 46 125 74l-10 -140q-33 -100 -33 -157v-105q72 14 121 14q182 0 262 -139q160 -90 160 -383q0 -87 -15 -166l-36 -190h-224q8 34 23 102h-125q57 244 57 357q0 94 -26 155 q-23 6 -45 6q-46 0 -99 -24t-53 -51v-412q0 -12 76 -133h-381q25 34 74 102h-177q88 119 88 133v770q0 20 -24 41q-42 37 -70 37zM37 1028l4 -47q10 0 61 -45q35 -31 35 -64v-770q0 -26 -57 -102h264q-51 82 -51 102v412q0 45 72 80q55 27 110 27q108 0 162 -99 q43 -78 43 -196q0 -115 -49 -326h157l33 166q15 75 15 160q0 389 -289 389q-115 0 -250 -62h-4v285q0 61 33 162l6 78q-46 -27 -137 -82q-97 -60 -158 -68z" />
<glyph unicode="i" horiz-adv-x="563" d="M-31 719h252q-26 26 -28 67q-93 13 -103 103q0 115 131 115h6q115 0 129 -105q86 -8 103 -102v-4q0 -86 -92 -107v-70h102v-618q0 -21 6 -33q14 -12 100 -98h-434l99 98l-2 -4q2 4 6 8h-205l98 99l-2 -5q12 15 12 37v430q-22 24 -65 72h-2v2l2 -2q-37 23 -113 117z M37 688q41 -49 61 -59q8 -6 39 -17q41 -22 41 -82v-430q0 -30 -18 -55l-45 -45h282q-53 53 -55 63q-6 13 -6 37v588h-299zM121 893q10 -78 95 -78h9q101 4 101 80q-13 78 -99 78h-6q-100 -3 -100 -80z" />
<glyph unicode="j" horiz-adv-x="457" d="M-88 -408q238 99 238 414v522l-66 72q-2 3 -4 4l2 -2q-37 23 -113 117h252q-26 26 -28 67q-93 13 -103 103q0 115 133 115h6q115 0 129 -105q86 -8 103 -102v-4q0 -84 -94 -107v-70h102v-712q0 -195 -116.5 -327t-323.5 -142l-15 55q95 39 154 117q-102 -64 -242 -70z M-66 -432q185 8 293.5 131.5t108.5 306.5v682h-299q41 -49 61 -59q11 -10 39 -19q43 -22 43 -86v-518q0 -338 -246 -438zM121 893q10 -78 104 -78q103 10 103 80q-12 78 -97 78h-8q-102 -4 -102 -80z" />
<glyph unicode="k" horiz-adv-x="946" d="M0 -31q106 111 106 133v791q0 18 -24 41v-2q-43 37 -70 37l-8 106q82 11 174 66q26 16 78 47q37 22 111 67l-11 -141l-12 -37q68 45 125 76l-10 -141q-33 -99 -33 -158v-297q12 3 35 10q86 28 86 97q0 17 -6 67l315 4l-61 -104l163 2l-100 -174q-47 -47 -110 -80 q192 -119 192 -512h-217q0 58 -4 102h-98q0 203 -56 305q-51 23 -110 23q-19 0 -29 -2v-295q0 -27 113 -133h-437q66 70 91 102h-193zM37 1049l4 -50q9 0 61 -43q35 -29 35 -63v-791q0 -32 -65 -102h288q-67 63 -67 102v326q4 0 6 -2q20 4 53 4q164 0 240 -141 q59 -109 59 -289h156q0 399 -234 483q97 37 162 103l68 119l-228 -5q3 -10 3 -20v-16q0 -92 -109 -125q-89 -27 -156 -27q-20 0 -20 -10v454q0 64 33 162l6 80l-137 -84q-97 -57 -158 -65z" />
<glyph unicode="l" horiz-adv-x="582" d="M-31 981q93 148 203 190q51 20 223 56v-127q41 12 103 24v-1056q0 -68 2 -72q14 -38 94 -129h-428l72 102h-175q64 86 82 121l7 82v727q-13 -3 -80 -20q37 57 78 102q-7 31 -41 31q-23 0 -140 -31zM37 1030q45 12 72 12q73 0 73 -73l-6 -881q-8 -33 -51 -88h299 q-41 47 -51 78q-8 18 -8 92v1018q-65 -13 -183 -45q-99 -37 -145 -113zM145 92l2 4q0 -2 -2 -2v-2z" />
<glyph unicode="m" horiz-adv-x="1334" d="M-39 -45l100 98q13 13 13 33v487q0 25 -113 134h330v-35q94 47 192 47q111 0 203 -80l4 -6q105 86 254 86t227 -107q7 -9 19 -28q48 -26 84 -74q72 -94 72 -240q0 -67 -33 -143l-60 -98v-6q2 -13 62 -68l31 -102h-349l21 102h-123l25 115q88 135 88 303q0 49 -13 90 q-75 0 -129 -47q27 -72 27 -146q0 -77 -76 -237v-10q2 -13 62 -68l34 -102h-342l7 102h-109l6 108q82 150 82 312q0 45 -12 86q-4 0 -12.5 1t-12.5 1q-36 0 -90 -35q-37 -24 -37 -27v-378q0 -19 10 -33l-6 4l70 -47l16 -94h-420l105 102h-207zM37 -14h307l-8 47l-57 39 q-19 20 -19 53v379q0 21 51 53q62 39 107 39q83 0 131 -72q39 -59 39 -149q0 -170 -82 -320l-4 -69h266l-18 55q-66 61 -66 86l2 18q74 156 74 228q0 73 -31 151q66 72 164 72q71 0 113 -80q32 -61 32 -143q0 -178 -90 -316l-14 -71h268l-16 55q-66 61 -66 86l2 16l62 101 q28 63 28 129q0 136 -64 221q-72 94 -204 94q-156 0 -256 -100l-31 37q-71 63 -174 63q-112 0 -223 -67v55h-223q67 -66 67 -103v-487q0 -36 -20 -55zM788 537l5 -7q9 8 28 23q-11 -5 -33 -16z" />
<glyph unicode="n" horiz-adv-x="932" d="M-39 -43l100 98q13 13 13 31v489q0 25 -113 134h330v-35q100 47 221 47q160 0 262 -148q68 -41 121 -129q29 -75 29 -172q0 -77 -76 -237v-10q2 -13 61 -68l35 -102h-340l2 102h-104l2 109q82 149 82 311q0 41 -11 82q-24 6 -55 6q-36 0 -90 -35q-37 -24 -37 -27v-378 q0 -19 10 -33l-6 4l70 -47l16 -94h-420l101 98q1 4 4 4h-207zM37 -12h307l-8 47l-57 39q-19 20 -19 53v379q0 21 51 53q62 39 107 39q198 0 198 -221q0 -170 -81 -320l-3 -69h267l-19 55q-65 61 -65 86l2 18q74 156 74 228q0 88 -25 153q-98 162 -254 162q-141 0 -252 -67 v55h-223q67 -66 67 -103v-489q0 -34 -20 -53z" />
<glyph unicode="o" horiz-adv-x="916" d="M-14 344q0 184 120 293q110 100 300 100q181 0 296 -104q33 -30 62 -72q14 -10 41 -31q123 -108 123 -288q0 -181 -123 -291q-115 -103 -297 -103q-180 0 -297 105q-37 33 -64 70q-22 14 -38 32q-123 107 -123 289zM16 344q0 -167 113 -267q108 -95 277 -95q171 0 276 94 q113 101 113 268q0 166 -113 267q-108 96 -276 96q-176 0 -279 -93q-111 -100 -111 -270zM188 344q0 116 50 193q59 92 168 92q104 0 165 -92q52 -79 52 -193q0 -116 -57 -199q-60 -86 -160 -86q-108 0 -168 97q-50 81 -50 188zM322 242q0 -90 28 -144q23 -8 56 -8 q88 0 139 78q47 71 47 176q0 84 -29 141q-26 11 -55 11q-90 0 -141 -78q-45 -69 -45 -176z" />
<glyph unicode="p" horiz-adv-x="1030" d="M-16 657l79 68q17 2 33 2h33q42 0 63 -9q11 -5 23 -9h-4q20 -7 36 -16l32 -19q110 57 235 57q191 0 299 -86q49 -39 74 -84q13 -7 28 -18q127 -98 127 -287q0 -193 -117 -303q-121 -113 -309 -113q-102 0 -176 31v-299q-86 -152 -239 -152q-39 0 -72 17q-10 10 -10 26 q0 25 33 66q-25 -6 -54 -6q-39 0 -71 16q-11 10 -11 27q0 32 60 92l45 45v758q0 41 -10 76l-25 18l12 10q-18 31 -114 92zM37 662q65 -41 90 -83t25 -118v-758q0 -12 -52.5 -66.5t-52.5 -70.5q0 -2 2 -4q17 -8 49 -8q138 0 209 127v344q82 -52 207 -52q178 0 286.5 104.5 t108.5 280.5q0 174 -114 263q-101 79 -281 79q-133 0 -240 -61q-36 31 -71 41q-13 6 -39 14q-9 2 -35 2h-25q-12 0 -28 -2zM307 201v301q0 37 64 73q85 48 143 48q106 0 166 -82q55 -74 55 -183q0 -103 -57 -196q-68 -111 -164 -111q-52 0 -127 49q-80 52 -80 101zM440 102 q39 -20 74 -20q76 0 137 96q54 85 54 180q0 66 -25 119q-29 12 -64 12q-52 0 -129 -43q-47 -26 -47 -47v-297z" />
<glyph unicode="q" horiz-adv-x="969" d="M6 336q0 183 122 291q117 104 302 104q51 0 154 -12h-2l89 -7q38 -3 60 -3h27l88 6l33 -37q-7 -34 -17 -70l-2 -2l88 6l33 -37q-6 -36 -16 -69q-39 -45 -39 -70v-706q0 -21 30 -58v-63l-127 -98q-111 -86 -303 -86q152 104 179 174q-115 -72 -281 -72q167 112 182 186 v131q-36 -4 -74 -4q-185 0 -301 101q-38 33 -63 71l-19 16q-7 4 -20 15q-123 106 -123 293zM37 336q0 -172 112 -270q107 -93 281 -93q123 0 207 54v-320q-19 -84 -115 -149q83 0 187 80l114 88v36q-30 33 -30 70v707q0 34 43 88q2 6 12 57l-88 -6h-29q-55 0 -151 10 q-116 12 -150 12q-172 0 -280 -95q-113 -100 -113 -269zM209 336q0 109 51 190q61 97 170 97q61 0 137 -45q70 -42 70 -76v-301q0 -47 -81 -99q-76 -49 -126 -49q-108 0 -170 94q-51 78 -51 189zM342 233q0 -81 29 -141q24 -8 59 -8q41 0 108.5 44.5t67.5 72.5v272 q-35 16 -74 16q-93 0 -146 -85q-44 -72 -44 -171z" />
<glyph unicode="r" horiz-adv-x="826" d="M-18 -31l94 94q14 11 16 25l4 453q0 53 -102 88l24 49q2 7 2 37l84 8q4 0 12.5 1t12.5 1q55 0 109 -29l6 -6q90 58 215 58q98 0 174 -41q67 -37 92 -99q8 -4 10 -4q103 -55 103 -153q0 -191 -310 -265l-22 50q54 42 74 61q50 47 53 76q-76 -54 -207 -84l-10 22v-297 l6 -41l4 -4h-2q34 -35 104 -102h-444l94 94l8 8h-204zM37 647q91 -29 90 -106l-4 -455q0 -26 -25 -45l-41 -41h293q-59 55 -61 70l-6 43v467q0 45 133 45q47 0 86 -23q18 -8 53 -51q10 -23 10 -50q0 -13 -2 -26q-5 -32 -41 -74q-19 -22 -90 -79q273 63 273 231q0 81 -87 127 q-70 37 -159 37q-125 0 -213 -62l-19 13q-48 25 -98 25q-10 0 -20 -1l-58 -6q0 -16 -8 -27zM344 592l4 -2q2 0 4 2h-8zM416 346q5 4 84 76q30 33 32 59q0 2 1.5 4t1.5 4q-7 3 -17 3q-102 0 -102 -15v-131z" />
<glyph unicode="s" horiz-adv-x="791" d="M6 266l35 2h-8q20 4 32 6l11 2q36 12 106 37l-2 2q0 2 -2 4q-117 62 -117 185q0 117 111 184q82 49 205 49q181 0 270 -137q113 -57 137 -211q-76 -19 -147 -55q37 -33 51 -68q115 -61 115 -168q0 -117 -125 -188q-100 -57 -219 -57q-146 0 -238 61v-2q-53 33 -82 90 q-7 4 -20 14v-2q-113 74 -113 252zM37 236q0 -131 98 -195q84 -55 221 -55q109 0 205 53q109 60 109 162q0 137 -230 186q-192 41 -192 109q0 133 121 133q137 0 145 -168q53 37 133 55q-31 191 -270 191q-115 0 -189 -45q-96 -59 -96 -158q0 -109 109 -162l134 -38 q46 -13 50 -15q129 -41 129 -107q0 -60 -51 -92q-43 -27 -107 -27q-59 0 -100 35q-78 66 -78 142q0 24 8 43q-52 -20 -96 -33q-8 -4 -53 -14zM209 240q0 -31 10 -52q24 9 72 25q-43 20 -76 53q-6 -21 -6 -26zM311 137q0 -20 6 -39q21 -4 39 -4q98 0 123 62h-2v2 q-9 4 -145 43q-21 -47 -21 -64zM385 432q20 -4 61 -14q13 -2 39 -10q-2 51 -12 88h-2q-70 0 -86 -64zM489 406q31 -10 91 -35q-11 49 -25 73q-9 -5 -66 -38z" />
<glyph unicode="t" horiz-adv-x="793" d="M-10 582l49 118q16 11 16 23q0 3 -1 9t-1 9v19q0 36 39 98q35 -69 80 -100v135l-66 72q-2 3 -4 4q-30 16 -110 114h397v-102h103v-246h210l-57 -102h160l-84 -154h-229v-286q0 -76 14 -113q44 -22 156 -51l-7 -60q-4 0 -11 -1t-11 -1q53 -20 131 -41l-6 -59 q-23 -2 -45 -2h-41q-204 0 -293 65q-40 29 -68 82q-15 6 -35 21q-106 79 -106 278v168h-78l41 103h-143zM37 612h166l-2 -301q-1 -185 94 -254q81 -59 274 -59h41q21 0 43 2q-138 37 -192 72q-10 7 -62 59q-41 41 -41 164v317h242l51 93h-293v348h-299q41 -49 64 -60 q8 -8 39 -14q41 -23 41 -84v-182q-70 8 -111 84q-8 -15 -8 -37q0 -6 1 -18.5t1 -18.5q0 -27 -20 -41z" />
<glyph unicode="u" horiz-adv-x="883" d="M2 715h344l-6 -103h109l-7 -108q-82 -150 -82 -311q0 -56 7 -93q30 -6 69 -6q51 19 74 47l-2 -2q10 13 29 39q28 58 28 127q0 156 -102 307l-23 111h353l-35 -102h137l-35 -103q-49 -45 -59 -67l2 -11l55 -94q33 -76 33 -143q0 -182 -96 -266q-100 -87 -271 -87h-28 q-160 0 -254 68h2q-43 31 -70 82q-16 6 -35 20h2q-116 81 -116 277q0 76 73 235l2 9q-6 12 -59 67zM45 684l21 -55q63 -64 65 -86l-2 -19q-74 -159 -74 -227q0 -178 103 -252q86 -62 230 -62q17 0 34 1q172 9 250 77q86 76 86 244q0 66 -29 129l-59 101l-4 16q4 27 65 86 l19 55h-271l15 -71q102 -152 102 -316q0 -78 -43 -164l-2 -2v6q-14 -16 -16 -22q-27 -37 -89 -57l-4 -3q-135 5 -174 56q-41 35 -41 176q0 170 82 319l4 70h-268z" />
<glyph unicode="v" horiz-adv-x="953" d="M-25 719h332q8 4 58 4v-41q0 -1 -2 -22l-5 -44h52q8 5 57 5v-41q0 -18 -6 -72q-6 -28 -6 -59q0 -54 34 -136l97 206q30 66 32 73q0 29 -30 67l-47 60h293l28 -43q-8 -20 -26 -60h100l29 -43q-46 -112 -185 -372l-225 -420q-29 69 -74 158l-28 -56q-11 23 -26 55l-31 69 q-35 74 -70 143q-27 35 -103 196q-57 120 -127 213zM37 688l84 -110q73 -96 131 -220q71 -152 98 -190q64 -127 105 -215l196 364q124 231 183 371h-230l8 -10q37 -46 37 -86q0 -12 -182 -399q-145 249 -145 358q0 22 6 65.5t6 65.5v10q-2 0 -2 -2q-4 -2 -15 -2h-280z" />
<glyph unicode="w" horiz-adv-x="1313" d="M4 715h348l-22 -103h125l-25 -114q-88 -136 -88 -303q0 -56 10 -91h4q76 0 125 48q-24 73 -24 145q0 76 73 235l2 9q-6 12 -59 67l-37 107h340l-2 -103h105l-2 -108q-82 -150 -82 -311v-52q0 -22 4 -41q30 -6 69 -6q58 20 80 56l8 12q7 12 21 37q20 53 20 106 q0 158 -100 307l-23 111h349l-31 -102h133l-31 -103q-59 -55 -61 -67v-9l59 -96q33 -76 33 -143q0 -353 -369 -353h-26q-154 0 -264 74l-9 10q-102 -86 -251 -86q-148 0 -228 107q-7 9 -20 31q-47 23 -82 71q-70 94 -70 240q0 72 31 143l57 97l2 6q-8 16 -61 69zM37 297 q0 -137 63 -221q70 -94 203 -94q156 0 256 100l31 -37q91 -62 234 -62q15 0 30 1q338 14 338 321q0 66 -29 129l-61 101l-2 16q0 24 65 86l17 55h-269l15 -71q100 -150 100 -316q0 -78 -43 -164l-2 -2v6q-10 -16 -16 -22q-27 -37 -88 -57l-5 -3q-135 5 -174 56 q-38 33 -38 176q0 170 81 319l2 70h-266l19 -55q63 -64 65 -86l-2 -19q-74 -159 -74 -227q0 -76 31 -152q-65 -71 -162 -71q-73 0 -114 80q-33 64 -33 143q0 178 90 315l14 72h-268l16 -55q64 -62 68 -86l-4 -17l-62 -100q-26 -59 -26 -129zM526 14q21 6 33 17l-4 4 q-15 -15 -29 -21z" />
<glyph unicode="x" horiz-adv-x="1053" d="M-80 29q103 26 182 90v-2q23 20 58 56q6 6 82 93l63 72q8 16 12 27q-28 53 -55 84q-8 4 -14 4q-25 0 -137 -70q0 120 43 170q-4 2 -9 2q-24 0 -137 -70q0 136 58 187q54 47 135 47q157 0 254 -139q120 139 290 139q74 0 216 -70l-35 -47q59 -16 137 -55l-88 -119 l-129 -84q-16 31 -41 72q-6 8 -27 12q-37 -2 -76 -45l3 2l-56 -74l121 -229q6 -2 18 -2q66 0 127 55l48 -39q-58 -86 -103 -114h6q17 -5 25 -5q65 0 127 56l47 -39q-55 -86 -104 -117l4 2q-47 -37 -115 -37q-131 0 -264 162q-35 25 -68 62q-24 -31 -78 -82 q-124 -117 -282 -117h-129l-6 59q71 19 133 56q-50 -13 -101 -13h-129zM-66 0h121q145 0 262 109q68 64 78 81q5 10 16 29l15 29q162 -273 322 -273q57 0 94 31q43 27 94 107q-70 -64 -148 -64q-16 0 -32 4q-54 0 -121 129l-123 236l66 88q51 55 98 55h2q31 -1 49 -22 q9 -11 29 -50l92 62l65 88q-102 49 -168 49q-176 0 -292 -162q-95 162 -252 162q-69 0 -114 -38q-48 -41 -48 -109q72 45 106 45q78 0 207 -217q-8 -23 -22 -50l-64 -73q-45 -54 -143 -152q-83 -69 -189 -94zM408 233v3q2 0 2 2z" />
<glyph unicode="y" horiz-adv-x="1012" d="M4 -248l174 205l27 -100q0 -37 16 -70l60 68l26 -101v-18q0 -10 4 -19q23 -8 56 -8q53 0 108 38q51 35 80 85v-2l6 12q-40 -8 -80 -8q-170 0 -268 90q-35 32 -55 66q-26 14 -47 37q-105 94 -105 264q0 74 27 139q6 13 16 35v-2q28 55 45 86q-12 24 -63 69l-23 101h342 l-20 -103h123l-23 -116q-88 -140 -88 -312q0 -53 10 -88q27 -6 60 -6q70 0 127 29q41 21 41 35v387q0 18 -13 35l-61 43l-17 96h433l-117 -103h219l-113 -98q-10 -16 -10 -35v-497q0 -214 -59 -293l-29 -39v2q-129 -191 -373 -191q-54 0 -94 9q-148 33 -225 153 q-74 47 -117 125zM37 291q0 -157 94 -242q90 -82 248 -82q108 0 231 74q-2 -47 -2 -76v-45q-3 -64 -26 -104q-30 -53 -92 -95q-65 -43 -123 -43q-81 0 -137 51t-56 128l-10 37l-123 -146q57 -108 209 -141q36 -8 88 -8q217 0 348 176l29 39q53 71 53 274v498q0 35 20 57 l52 45h-314l9 -49l57 -39q18 -25 18 -55v-387q0 -32 -57 -62q-63 -33 -141 -33q-99 0 -154 66q-49 59 -49 162q0 184 90 323l14 74h-266l12 -53q64 -53 70 -90q-21 -41 -66 -121q-26 -66 -26 -133z" />
<glyph unicode="z" horiz-adv-x="1012" d="M4 39l422 397q-90 -4 -166 -30q-15 -4 -80 -29h2q-15 -3 -43 -15l-30 48l114 116q-22 -6 -65 -18q-15 -4 -80 -29h2q-15 -4 -43 -14l-31 47l154 156q26 27 65 123l88 -60q65 -24 152 -24q12 0 139 6q33 2 78 6h-2q51 6 80 6q106 0 106 -80q-4 -4 -8.5 -11.5t-7.5 -10.5 h12q107 0 107 -80q-19 -23 -21 -31l-4 -4l-377 -350h135q97 0 166 84l54 -27q-17 -92 -52 -149q54 18 101 73l53 -26q-31 -176 -135 -234q-4 -4 -23 -7q-33 -5 -49 -5h-608l-103 70l35 32h-35zM37 498q108 39 117 41q82 30 188 30h270l-561 -526l64 -43h600q43 0 57 8 q92 51 119 213q-80 -94 -189 -94h-423l538 502q6 9 19 26q0 39 -76 39q-20 0 -76 -6q-39 -4 -78 -6l-141 -6q-105 0 -166 29l-59 38q-29 -68 -58 -98z" />
<glyph unicode="{" horiz-adv-x="604" d="M-18 672q159 94 159 174v325q0 143 109 215q94 62 258 62l6 -78l-27 -33q-20 -4 -32 -10q67 19 155 19l6 -78l-26 -33q-45 -4 -73 -40.5t-28 -82.5v-369q0 -106 -88 -182l9 -6q79 -80 79 -176v-369q0 -14 3 -20q6 -2 18 -2v-41q5 -10 12 -17q33 -45 90 -45v-108 q-259 0 -342 149q-129 56 -129 232v323q0 23 -10 49l-47 39l12 6zM37 668l84 -70q51 -53 51 -117v-323q0 -248 307 -248v47q-43 0 -85 57q-38 53 -38 99v368q0 83 -71 154q-19 19 -29 24l-6 7q106 69 106 180v368q0 58 35.5 103t91.5 51l-4 49q-133 0 -213 -55 q-94 -64 -94 -191v-325q0 -98 -135 -178z" />
<glyph unicode="|" horiz-adv-x="314" d="M6 -31v1477h217v-103h103v-1476h-217v102h-103zM37 0h156v1415h-156v-1415z" />
<glyph unicode="}" horiz-adv-x="629" d="M4 1341l6 107q164 0 258 -62q55 -36 82 -90q7 -3 21 -12q108 -72 108 -215v-326q0 -22 10 -41q21 -16 50 -30l-17 -15q39 -43 119 -88l-119 -98l2 4q-45 -49 -45 -96v-324q0 -144 -106 -217q-88 -61 -262 -61v108q-50 -6 -103 -6v109q44 0 84.5 40t40.5 85v368 q0 107 90 185q-90 73 -90 180v368q0 13 -2 19l-25 6l3 45q-35 47 -105 57zM37 1368q57 -6 92 -50.5t35 -103.5v-368q0 -107 108 -180l-8 -7q-100 -87 -100 -178v-368q0 -43 -41 -98q-43 -58 -84 -58v-47q134 0 215 55q92 62 92 193v323q0 60 53 117l84 70q-137 80 -137 178 v325q0 128 -94 191q-82 55 -213 55zM111 -115q19 0 39 9q-5 -2 -39 -9z" />
<glyph unicode="~" horiz-adv-x="850" d="M-66 1348q78 78 199 178h-2q67 39 135 39q27 0 41 -4l88 -25l99 -43q60 -8 92 -8h18q20 5 125 37l31 -49q-60 -62 -98 -91q8 -2 14 -1t12 1h19q19 5 124 37l31 -49q-71 -78 -123 -106h2q-57 -35 -123 -35q-28 0 -53 6l-59 14q-45 20 -133 54q-26 4 -47 4q-24 0 -54 -4h2 l-237 -58q107 109 176 164q-14 -1 -43 -4h2zM37 1405l129 31q28 4 57 4q50 0 104 -21q33 -14 85 -37l63 -16q20 -5 40 -5q52 0 108 32q49 28 114 100q-125 -39 -133.5 -39.5t-20.5 -0.5q-44 0 -100 11l-108 47l-66 19q-86 14 -162 -31q-39 -23 -110 -94z" />
<glyph unicode="&#xa1;" horiz-adv-x="471" d="M-10 813h205q-13 18 -19 43q-104 22 -104 135q0 62 39.5 99.5t101.5 37.5q116 0 139 -106q107 -23 107 -133q0 -88 -80 -125l2 -4q-18 -17 -45 -49h127l20 -54q-57 -55 -57 -79v-619q0 -9 2 -27l3 -27t1 -18v-24q-2 7 -2 3q0 -5 1 -13q3 -21 4 -39.5t4 -48.5q3 -39 4 -50 q1 -18 1 -26l-118 71q-13 9 -33 25q-12 6 -19 12l9 -4q-97 57 -177 70l5 69q-57 26 -107 33l8 105q27 0 68 36q24 21 24 41v533q0 12 -6 25zM37 -8q43 -6 158 -70l34 -24q13 -9 17 -13l61 -37q-2 36 -8 109v20q0 17 -4 54q-2 18 -2 28v621q0 37 67 102h-294q20 -20 49 -47 q20 -20 20 -55v-533q0 -31 -35 -63q-49 -45 -59 -45zM102 991q0 -48 31.5 -77t79.5 -29t80.5 29.5t32.5 76.5t-32.5 77t-80.5 30q-47 0 -79 -30t-32 -77z" />
<glyph unicode="&#xa2;" horiz-adv-x="838" d="M6 375q0 171 133 272q111 84 271 90q0 21 -2 29l-2 8l-13 21l-39 77q66 46 92 46h259l-41 -103h143l-82 -205q4 -12 8 -28q103 -43 103 -109q0 -33 -78 -84h2q-45 -34 -154 -80l-76 -192q14 6 43 16h-2q76 33 123 92l54 -28q-46 -125 -130 -187q19 7 58 21h-2 q76 32 123 92l53 -29q-90 -246 -326 -246q-54 0 -100 11l-39 -103h-246l50 53q22 25 38 50h-190q79 79 129 164q-19 13 -51 43q-109 114 -109 309zM37 375q0 -244 170 -340q-51 -103 -94 -146h149l41 107q51 -14 119 -14q213 0 297 225q-56 -70 -135 -103q-67 -28 -115 -28 q-68 0 -121 28l189 478q28 -29 28 -68q0 -20 -10 -47q29 11 84 49q63 44 63 59q0 65 -114 95l-15 4l86 213h-213q-16 0 -53 -25l25 -49l18 -27l2 -10q0 25 4 -69h-16q-160 0 -268 -84q-121 -94 -121 -248zM209 352q0 108 47 185q56 92 160 92h18q-4 -20 -8 -29l-160 -426 q-57 76 -57 178z" />
<glyph unicode="&#xa3;" horiz-adv-x="969" d="M-10 582l49 123q16 12 20 34q4 49 39 131q37 -71 70 -102v96q0 94 57 172l47 47q101 101 246 101q84 0 160 -58q36 -27 59 -75q15 -8 43 -27q66 -51 82 -147l-53 -17q-6 0 -59 -31q-11 -8 -35 -20h2l-43 -27l-39 39l45 74q-12 16 -49 27q-13 -9 -19 -11h2l-43 -26l-28 26 q-3 -3 -7.5 -8t-7.5 -8q-41 -51 -41 -131v-25h215l-55 -102h158l-84 -156l-234 2v-368h11l47 4q110 23 196 90l111 39l-14 -119q0 -5 8 -23l108 39l-14 -118q4 -23 41 -80v-31q-29 -49 -72 -49h-700l-76 72l53 30h-80l-75 72l110 63q19 19 27 35v342l-76 -2l43 107zM37 614 l162 4v-483q-11 -29 -35 -53l-82 -47l37 -35h688q27 0 45 33q-45 71 -45 100l8 70l-59 -21q-99 -76 -205 -94l-51 -4l-51 -2l-54 2l-39 2l-2 530l246 -2l51 95l-297 2v155q0 89 47 150q33 43 74 43q119 0 137 -66l-45 -73q21 13 64 38q58 35 74 35l20 6q-10 62 -66 103 q-69 51 -141 51q-131 0 -213 -82l-59 -59q-47 -65 -47 -150v-149q-8 5 -25 14q-43 16 -72 72q-4 -9 -11 -61q-6 -39 -25 -52z" />
<glyph unicode="&#xa4;" horiz-adv-x="1047" d="M-53 489q151 115 231 195l8 6q-69 72 -69 178q0 101 57 166l-209 215h236q16 0 82 -30l-15 -54l-8 -18h43q12 0 45 -17q51 11 101 11q94 0 161 -31q19 20 25 37l-8 18l-13 54q66 30 82 30h242l-102 -102h204l-217 -219q60 -70 60 -162q0 -102 -64 -172q48 -42 137 -105 h-32q30 -26 64 -50l71 -52h-242l-100 102h-2l-25 25q-59 -20 -139 -20q-82 0 -141 20l-125 -127h-236q76 58 129 102h-231zM37 520h131l131 133q61 -26 150 -26q88 0 149 26l131 -133h133q-80 58 -164 142l-30 30q82 68 82 176q0 99 -72 164l184 187h-166q-8 0 -45 -17 l8 -33l9 -16v-8q-11 -29 -50 -72q-71 37 -169 37q-99 0 -173 -35q-36 41 -47 70v8l9 16l8 33q-37 17 -45 17h-164l180 -185q-70 -63 -70 -166q0 -108 84 -176l-32 -30q-30 -30 -88 -82q-41 -35 -74 -60zM203 510q20 18 40 37q12 12 38 35l8 6q-4 4 -4 6zM295 864 q0 69 43 117.5t111 48.5q66 0 111 -50q42 -49 42 -116t-43 -116q-44 -52 -110 -52t-110 50.5t-44 117.5zM428 743q0 -8 2 -16h19q54 0 88 41t34 96q0 10 -4 31q-6 2 -16 2q-54 0 -88.5 -40t-34.5 -95v-19zM721 1030q2 -2 2 -3t2 -3q10 12 12 20v3z" />
<glyph unicode="&#xa5;" horiz-adv-x="1389" d="M-23 1266h451q25 0 90 -66q-15 -12 -45 -37h57q25 0 91 -65q-84 -66 -84 -97q0 -87 170 -403l147 213q137 203 145 262q0 4 -2 6q-23 15 -67 47l26 4q-43 39 -129 99l144 28h303l24 -49q-12 -18 -36 -53h114l25 -49q-191 -272 -451 -686h180q-89 -53 -135 -103h238 q-111 -65 -146 -116h43q-20 -12 -59 -39v-2h-4q-49 -37 -72 -62h238q-158 -96 -162 -157h-422l-114 -189q-7 -6 -9 -10q13 -15 23 -53q8 -3 26 -11l-4 3q60 -15 80 -97l-426 -8l66 107l-168 -5l164 263h-31l-12 51q37 20 53 51h-143l-13 51q60 33 78 107h27l-2 10 q37 20 53 51h-143l-13 51q60 33 78 107h254l-295 561l-1 1t-1 3q-27 39 -82 117q-29 41 -87 124q-17 23 -30 40zM37 1235q154 -220 164 -231l323 -615h-280q-17 -63 -76 -96h379l-78 -123h-225q-17 -64 -76 -96h240l-228 -363l328 6q-6 27 -45 35q-20 6 -57 21q-9 6 -29 14 q-8 6 -8 14q0 9 37 70l124 203h410q4 51 78 96h-426l76 123h272q4 51 78 96h-291l37 57q188 294 510 781h-297l-70 -15q117 -77 123 -139q-6 -68 -151 -278l-199 -289q-277 481 -277 598q0 45 68 98q-33 33 -43 33h-391z" />
<glyph unicode="&#xa6;" horiz-adv-x="314" d="M6 -35v690h103v101h-103v690h217v-103h103v-690h-103v-100h103v-690h-217v102h-103zM37 -4h156v629h-156v-629zM37 786h156v629h-156v-629z" />
<glyph unicode="&#xa7;" horiz-adv-x="838" d="M6 594q0 143 109 223q-109 66 -109 189q0 156 127 233q100 61 258 61q164 0 357 -83l-27 -56q59 -19 129 -47l-51 -104q-11 -35 -11 -181l-51 -12q-20 38 -59 113l-43 -10q-35 69 -62 116q-47 21 -94 21q-72 0 -131 -23q-63 -25 -63 -73l18 -7l262 -84q110 -35 148 -125 q118 -63 118 -178q0 -141 -108 -225q108 -59 108 -184q0 -152 -137 -238q-115 -72 -260 -72q-127 0 -291 72q8 19 23 57q-62 17 -125 46q27 69 41 83l-2 -4q6 7 10 23v51q0 66 109 84q16 -76 51 -117q18 9 51 15l7 -30q3 -13 9 -26q28 -10 68 -10q63 0 115 35q41 28 51 72 l-19 6l-270 90q-106 47 -139 119q-117 67 -117 180zM37 594q0 -123 141 -170l262 -88q144 -48 144 -117q0 -71 -68 -117q-61 -41 -131 -41q-178 0 -211 162q-53 -10 -53 -47v-33l2 -18q-6 -25 -19 -41q-6 -6 -22 -45q133 -57 250 -57q138 0 243 67q123 78 123 211 q0 131 -143 180q143 74 143 230q0 126 -143 172l-262 84q-141 45 -141 137q0 70 81 102q63 25 144 25q103 0 178 -76q41 -41 100 -168q0 139 13 176l39 78q-160 70 -316 70q-147 0 -241 -58q-113 -70 -113 -206q0 -127 143 -185q-143 -69 -143 -227zM152 647q0 60 53 98 q43 31 110 35q47 -9 140 -35q129 -48 129 -116q0 -125 -146 -154l-58 10q-15 3 -38 7q-190 31 -190 155zM205 705q8 8 12 10v2zM285 537q7 -3 61 -15q24 -3 72 -12q8 -2 18 -4q107 22 115 106q-2 0 -4 2q-45 12 -135 33q-61 -10 -88 -29h2q-41 -30 -41 -73v-8zM549 0 q29 6 53 25q16 10 31 28q-22 -22 -62 -43q-12 -6 -22 -10zM621 444h2q8 7 14 15q-6 -5 -16 -15z" />
<glyph unicode="&#xa8;" horiz-adv-x="652" d="M6 1184q0 100 127 114q123 0 139 -104q8 -2 23 -6q2 98 129 110q121 0 137 -104q90 -16 103 -102v-5q0 -108 -134 -110q-120 -2 -133 104q-10 0 -22 4q-2 -106 -133 -108q-121 -2 -133 104q-95 13 -103 103zM37 1188q10 -80 102 -78q103 2 103 80q-13 78 -105 78 q-100 -13 -100 -80zM326 1188q10 -80 102 -78q102 2 102 80q-13 82 -104 78q-100 -4 -100 -80z" />
<glyph unicode="&#xa9;" horiz-adv-x="1157" d="M6 614q0 235 166 377q148 127 365 127q263 0 411 -166q15 -18 27 -34q15 -11 43 -35q151 -141 151 -371q0 -242 -165 -379v2q-148 -127 -365 -127q-235 0 -381 133q-38 35 -59 68l-22 16q-11 8 -21 19q-150 137 -150 370zM37 614q0 -222 140 -350q136 -123 360 -123 q202 0 344 119q155 130 155 354q0 221 -140 349q-136 124 -359 124q-204 0 -344 -118q-156 -132 -156 -355zM135 614q0 181 112 282q107 97 290 97q175 0 286 -101q115 -105 115 -278q0 -172 -115 -277q-112 -101 -286 -101q-178 0 -287 100q-115 105 -115 278zM209 612 q0 -142 87 -222.5t230 -80.5q154 0 250 82v162q-54 -83 -96 -119q-64 -55 -143 -55q-98 0 -154 69q-51 64 -51 164q0 104 71 162q66 55 172 55q76 0 117 -22q35 -19 86 -82v88l6 21l17 18l55 47h-281q-143 0 -247 -68q-119 -78 -119 -219zM305 342q7 -20 21 -26q6 -3 10 -7 q-2 6 -10 19q-13 6 -21 14zM465 510q0 -55 14 -92q23 -8 58 -8q65 0 122 47q40 33 144 188q-9 12 -29 35q-37 16 -96 16q-96 0 -154 -49h2q-61 -49 -61 -137zM807 403q32 44 94 132v12q-46 62 -92 108v-16h-2v-236z" />
<glyph unicode="&#xaa;" horiz-adv-x="695" d="M6 852q0 166 146 213l-2 8q65 60 145 84q-20 4 -43 4q-62 0 -180 -33l-25 48q117 104 270 104q78 0 158 -27q64 -34 70 -92q18 -8 33 -10q71 -39 71 -113v-366q2 -4 6 -8q17 -35 52 -43l-9 -58h-163q-36 0 -60 39q-72 -47 -139 -47q-173 0 -215 123q-22 7 -43 24 q-72 58 -72 150zM37 852q0 -80 59 -125q51 -39 137 -39q74 0 162 70q0 -8 -2 -15q-4 -14 10 -30.5t29 -16.5h156q-45 13 -66 64q-6 8 -6 12v369q0 57 -51 84q-78 24 -148 24q-145 0 -239 -86q110 29 174 29q86 0 145 -39q-22 -43 -72 -63.5t-155 -49.5q-133 -37 -133 -188z M168 889q0 69 43 98q3 3 104 41q47 18 82 55v-243q-71 -56 -131 -56q-98 0 -98 105zM215 946q20 12 49 21q35 9 103 30v23q-42 -24 -106 -44q-23 -7 -28 -11q-12 -7 -18 -19zM305 821q11 3 62 33v20q-28 -10 -31 -12q-23 -16 -31 -41z" />
<glyph unicode="&#xab;" horiz-adv-x="1133" d="M-31 356q340 109 402 349l268 34q-10 -34 -22 -64l-25 -59l135 19q16 35 25 70l268 34q-10 -34 -22 -64l-25 -59l149 21q-92 -277 -256 -389l32 -32q15 -15 30 -32q155 -134 217 -286l-236 -58q-22 54 -65 113l-37 -10q-29 69 -66 110l-18 15q-8 6 -18 14h2l-172 115 l12 -13q155 -134 217 -286l-236 -58q-22 54 -65 113l-37 -10q-29 69 -66 110l-18 15q-8 6 -18 14h2l-254 172q11 3 32 10zM37 346l203 -137q157 -106 204 -229l174 43q-59 151 -299 323q189 96 275 356l-197 -26q-61 -234 -360 -330zM418 346l203 -137q157 -106 204 -229 l174 43q-59 151 -299 323q189 96 275 356l-197 -26q-61 -234 -360 -330z" />
<glyph unicode="&#xac;" horiz-adv-x="1405" d="M6 676v213h1309v-103h102v-563h-225v103h-102v247h-981v103h-103zM37 707h1083v-351h164v502h-1247v-151z" />
<glyph unicode="&#xad;" horiz-adv-x="842" d="M-78 428q144 82 166 158h647l17 -58q-29 -16 -47 -45h133l16 -57q-59 -37 -63 -100h-766q90 53 133 102h-236zM37 459h622q5 51 76 96h-622q-15 -61 -76 -96z" />
<glyph unicode="&#xae;" horiz-adv-x="1157" d="M6 774q0 240 166 379v-2q147 127 365 127q234 0 378 -135q31 -29 62 -70q14 -9 41 -33q151 -139 151 -368q0 -236 -165 -377q-148 -127 -365 -127q-232 0 -379 133q-36 33 -61 68q-23 14 -41 34q-152 140 -152 371zM37 774q0 -220 141 -349q136 -124 359 -124 q204 0 344 119q155 131 155 354q0 218 -142 348q-137 125 -357 125q-202 0 -344 -119q-156 -131 -156 -354zM135 774q0 164 115 279l4 6v-2q21 0 43 -36.5t22 -62.5l-4 -454q-4 -12 -28 -35q-152 102 -152 305zM268 672q0 -72 19 -129l2 10v244q-21 -56 -21 -125zM285 1081 q102 72 252 72q173 0 285 -102q116 -106 116 -277q0 -170 -115 -274q-60 51 -170 162q-71 69 -125 94q230 86 230 219q0 58 -58 92q-46 27 -110 27q-98 0 -187 -60l-12 17q-39 32 -106 30zM291 465h168q-33 35 -33 86v174q42 -10 80 -51q85 -92 106 -113q70 -70 127 -96h41 q-100 -70 -243 -70q-140 0 -246 70zM426 784v193q0 29 47 47q37 10 74 10q88 0 88 -67q0 -131 -209 -183zM481 993l31 -18l2 -2q31 18 59 28q-8 3 -26 3q-12 0 -58 -7q-2 -2 -6 -2h2q-2 -2 -4 -2zM559 449q0 -15 4 -23q68 4 117 20q-14 15 -41 48q-32 27 -49 45 q-12 8 -31 30v-120zM594 750q3 -3 12 -9q58 25 82 62q-42 -31 -94 -53zM705 651q43 -43 116 -110q86 92 86 233q0 64 -18 119q2 -6 2 -21q0 -133 -186 -221z" />
<glyph unicode="&#xaf;" horiz-adv-x="1051" d="M25 782l329 68h600l7 -59l-207 -43h303l6 -60l-324 -67h-606l-6 59l209 43h-305zM37 754h594l317 65h-588z" />
<glyph unicode="&#xb0;" horiz-adv-x="486" d="M6 1042q0 77 72 123q58 37 131 37q68 0 123 -41q40 -30 57 -78q29 -12 45 -24q64 -49 64 -119q0 -72 -60 -123q-57 -47 -131 -47q-69 0 -131 43q-45 31 -61 78q-20 8 -41 24q-68 52 -68 127zM37 1042q0 -62 55 -102q49 -37 113 -37q59 0 109.5 40t50.5 99q0 57 -51 95 q-46 34 -105 34q-65 0 -114 -31q-58 -37 -58 -98zM135 1061q0 16 18 28.5t35 12.5q29 0 52.5 -25t25.5 -55q-10 -49 -63 -49q-18 0 -39 26q-29 36 -29 62zM166 1053q2 2 7 5t8 5.5t12 7.5h-5q-22 0 -22 -10v-8zM309 901q23 0 29 21q-2 -2 -4 -2l-2 -2q-10 -8 -23 -17z" />
<glyph unicode="&#xb1;" horiz-adv-x="914" d="M-72 106q148 84 168 170h211v170h-244l105 103h-207l195 188h151v185l176 104v-164l103 62v-187h237l-106 -102h209l-195 -189h-145v-170h157l17 -57q-33 -20 -47 -45h133l16 -57q-59 -37 -63 -113h-768q88 51 131 102h-234zM37 580h301v-281l115 57v224h163l132 127 h-295v264l-115 -68v-196h-170zM43 137h625q4 64 75 109h-622q-19 -74 -78 -109zM360 276h50v25z" />
<glyph unicode="&#xb2;" horiz-adv-x="793" d="M45 422v90q25 0 109 72q28 25 64 57q12 11 87 86q21 21 39 43l-63 8l-45 -2l-72 -16q0 65 12 121l-43 -2l-72 -17q0 88 21 150v-2q23 80 68 112q98 70 217 70q96 0 159 -41q53 -35 68 -86q22 -8 35 -16q78 -47 78 -150q0 -137 -134 -293l14 8q7 4 17 9l-2 -2 q34 16 100 51l-86 -199q13 2 23 10l-2 -2q14 11 70 39l-2 -2q8 4 37 19l63 32l-107 -247l-551 -3v91q11 0 33 12h-135zM76 453l499 2l66 153q-42 -21 -90 -49q-39 -20 -96 -20h-215q333 254 333 462q0 160 -206 160q-111 0 -199 -63q-35 -25 -57 -97q-19 -63 -19 -100l35 8 l55 2l51 -6q-18 45 -18 90q0 37 16 74q-4 17 29 29q28 10 45 10q74 0 117 -45t43 -119q0 -113 -184 -287q-41 -39 -107 -96q-92 -80 -98 -80v-28zM248 1016l4 4q43 31 96 51q-18 6 -43 6q-13 0 -35 -8h2q-5 -1 -8 -1q-2 0 -2 1v-8q-10 -23 -14 -45zM328 569h24l8 9 q62 65 152 182q-68 -92 -184 -191zM348 893q0 -35 23 -90q63 86 63 141q0 5 -1 14.5t-1 14.5q-4 0 -12 1t-12 1q-15 0 -35 -8h2q-5 -1 -8 -1q-2 0 -2 1v-9q-17 -36 -17 -65z" />
<glyph unicode="&#xb3;" horiz-adv-x="699" d="M-23 567q155 16 289 92v-90q0 -41 33 -49q35 15 70 37v-18l6 6q43 43 43 104q0 23 -4 43q-40 16 -119 25l-4 55q16 3 47 12q-47 23 -145 35l-5 55q21 5 33 9q-22 0 -92 12q26 43 59 82l-51 8h-10q-18 0 -100 12q116 193 315 193q76 0 141 -28q81 -35 97 -99l12 -6 q94 -47 94 -131q0 -97 -76 -152q-5 -3 -26 -14q127 -84 127 -213q0 -112 -93 -180q-79 -58 -188 -58q-111 0 -197 41l-153 115q12 0 29 4zM59 545l86 -64q84 -39 183 -39q98 0 170 52q80 58 80 155q0 137 -162 217q24 13 73 35q64 45 64 127q0 66 -76 102q-62 29 -135 29 q-182 0 -264 -137q39 -6 49 -6h14l64 -10q-4 12 -4 18q0 31 29.5 59.5t60.5 28.5q55 0 98 -29q47 -32 47 -86q0 -62 -76 -102q-30 -16 -153 -47q242 -25 242 -199q0 -78 -54 -127q-37 -33 -82 -33q-77 0 -77 80v35q-84 -51 -177 -59zM231 1016q52 39 111 57q-24 8 -51 8 q-21 0 -40.5 -18t-19.5 -39v-8zM334 915q8 3 12 7q50 29 57 57h-10q-20 0 -39.5 -18.5t-19.5 -38.5v-7zM401 418h15q33 0 61 24l3 1.5t3 2.5q-42 -21 -82 -28zM481 862q8 -4 13 -8q8 8 12 20q-10 -4 -25 -12z" />
<glyph unicode="&#xb4;" horiz-adv-x="549" d="M-31 1087q113 135 164 252l55 125h252l19 -73l-15 -29h99l18 -74l-16 -35q-75 -40 -115 -79q-30 -29 -84 -111q-10 -12 -10 -21v-2l2 -2l27 -53h-293q45 55 78 102h-181zM37 1118h176l-10 25q0 17 14 39q47 75 89 115t122 85l-12 52h-207l-47 -107q-55 -126 -125 -209z " />
<glyph unicode="&#xb5;" horiz-adv-x="932" d="M-39 -420q113 107 113 131v879q0 12 -6 24l-5 4h3q-5 5 -5 7l-100 96h420l-16 -98l-7 -5h125l-16 -98l-66 -43q-8 -10 -8 -28v-336q8 -2 25 -2q168 0 168 188q0 164 -82 313l-2 109h340l-35 -103h137l-35 -102q-59 -55 -61 -67v-13q76 -157 76 -237q0 -90 -29 -170 q-35 -60 -80 -101q0 -11 1 -32.5t1 -32.5q0 -53 -69 -88q-2 0 -4.5 -1t-4.5 -1q25 -11 52 -11q49 0 127 95v-17q0 -11 1 -31.5t1 -31.5v-17q0 -53 -70 -88q-40 -20 -86 -20q-254 0 -303 135q-47 22 -68 45v-354h-330q54 54 99 102h-201zM37 -389h223v444q76 -47 166 -61 q-41 -35 -41 -72q0 -14 4 -26q36 -111 273 -111q34 0 73 18q51 24 51 59q0 6 -2 13q-34 -41 -96 -41q-87 0 -127 68q-10 17 -10 28q0 35 57 72q88 33 158 145q25 68 25 154q0 70 -74 229l-2 19q0 24 65 86l19 55h-267l3 -69q81 -150 81 -322q0 -219 -198 -219q-47 0 -107 37 q-51 32 -51 55v379q0 29 19 53l57 37l8 49h-307l47 -45q20 -19 20 -55v-879q0 -37 -67 -100z" />
<glyph unicode="&#xb6;" horiz-adv-x="1209" d="M6 1016q0 130 105 205q89 63 219 63q166 0 313 -104l4 6q43 41 69 57.5t105 16.5h21q8 0 16 -3h-2q4 -2 14 -2q48 -6 136 -65q79 -53 112 -100l-4 -7q68 -46 107 -96l-33 -47q-41 10 -64 10q-43 0 -43 -43l6 -1093q11 -37 82 -127h-573q15 19 72 102h-174q71 92 81 121 q9 18 9 82v430l-60 27q-237 102 -338 237q-180 141 -180 330zM37 1016q0 -261 397 -436q145 -64 180 -64v-524q0 -62 -10.5 -92t-48.5 -80h248q-6 6 -10 6q-5 0 -12 -4t-9 -4q-4 0 -6 2h240q-43 55 -52 90l-6 1100q0 73 74 73q25 0 72 -12q-31 43 -104 94q-77 54 -124 60 q-30 4 -41 4h-4q-69 0 -90 -12q-12 -9 -57 -50l-21 -32q-149 118 -323 118q-120 0 -201 -57q-92 -64 -92 -180zM737 983q-1 78 43 131q6 6 11 6q34 0 34 -137v-991q0 -76 -8 -94q-8 -27 -51 -78q-13 37 -21 80zM879 -211l2 -2v2h2h-4z" />
<glyph unicode="&#xb7;" horiz-adv-x="363" d="M6 512q0 109 133 109q50 0 86 -23q43 -27 47 -82q26 -6 56 -20q47 -29 47 -86q0 -109 -133 -109q-54 0 -86 23q-47 34 -47 82q-35 4 -56 20q-47 36 -47 86zM37 512q0 -37 29.5 -57.5t72.5 -20.5q103 0 103 78t-103 78q-102 0 -102 -78z" />
<glyph unicode="&#xb8;" horiz-adv-x="557" d="M4 -229q0 11 1 31.5t1 31.5v16q78 -94 125 -94q70 0 105 51h-3q0 3 2 4l1 1q-23 18 -39 28q0 15 4 25q-8 5 -23 16l-50 38q-15 11 -34 24q0 26 22.5 72t43.5 46h188v-86q6 -4 19 -16h84v-86q25 -20 43 -41q75 -87 75 -121v-16q0 -8 -2 -14v8q0 -2 -2 -2v-2l-2 -11 q-43 -133 -301 -133q-39 0 -88 25q-68 35 -68 86v2q-102 34 -102 100v17zM36 -245q0 -34 50 -60q41 -21 74 -21q236 0 272 113q4 12 4 27q0 23 -67 100q-42 49 -60 49q-10 0 -10 -14q0 6 7 22.5t11 16.5v43h-157q-11 0 -24 -31q-11 -26 -11 -43l19 -13q11 -7 53 -38 q73 -53 73 -84q0 -16 -10 -31q-43 -65 -129 -65q-59 0 -94 41q-1 -6 -1 -12z" />
<glyph unicode="&#xb9;" horiz-adv-x="502" d="M-29 1008l117 90q8 6 29 16q47 24 137 84q39 33 76 74v-15q0 -10 -1 -29.5t-1 -29.5v-125q49 35 104 96v-14q0 -10 -1 -29.5t-1 -29.5v-660q0 -22 84 -106h-326q26 31 68 88v14h-170l45 58q16 20 23 30l2 47v348l-82 -10l82 64v61h-6zM80 1053l65 8h13l24 -4h4l-2 -541 q-6 -20 -32 -53h184q-39 39 -39 76v565q0 63 -2 72l4 16q-30 -32 -106 -72q-29 -15 -87 -47zM154 522q2 0 2 2zM256 420q2 0 2 2z" />
<glyph unicode="&#xba;" horiz-adv-x="572" d="M6 1165q0 100 70 162q65 57 168 57q99 0 166 -57q32 -27 53 -72q32 -16 49 -30q72 -59 72 -162q0 -105 -68 -163q-64 -54 -170 -54q-100 0 -168 53q-30 23 -53 72q-16 7 -49 30q-70 64 -70 164zM37 1165q0 -89 59 -139q56 -47 148 -47q91 0 147 46q60 50 60 140 q0 87 -59.5 138t-147.5 51q-92 0 -148 -49q-59 -52 -59 -140zM147 1165q0 129 97 129q96 0 96 -129q0 -49 -25 -84q-29 -41 -71 -41q-97 0 -97 125zM193 1235q11 11 49 29q-35 -4 -49 -29zM281 1087q3 4 10 13q14 18 18 49q-22 -14 -28 -62z" />
<glyph unicode="&#xbb;" horiz-adv-x="1106" d="M-4 690l233 53q28 -71 64 -112l39 10q21 -60 59 -106q19 -17 43 -31h-2l169 -112l-7 7q-164 145 -217 291l233 53q28 -71 64 -112l39 10q21 -60 59 -106q19 -17 43 -31h-2l203 -137l-4 -31l106 -72l-6 -53q-285 -90 -346 -328l-262 -35q20 66 45 123l-143 -18 q-17 -35 -25 -70l-258 -35q15 54 45 123l-148 -20q84 272 250 387q-20 19 -57 59q-160 140 -217 293zM37 668q55 -150 299 -326q-191 -94 -273 -354l193 26q63 232 362 328l-202 137q-156 106 -205 228zM418 668q55 -148 301 -326q-193 -94 -275 -354l195 26q61 232 360 328 l-202 137q-156 106 -205 228zM631 336l10 -6q8 4 12 8q-8 6 -20 18z" />
<glyph unicode="&#xbc;" horiz-adv-x="1606" d="M-63 1077l116 90q8 8 64 35q9 5 26 15q79 46 174 141q-18 -88 -26 -115q2 -10 2 -29v-71q51 37 127 112q-19 -88 -27 -114q2 -11 2 -29v-606q0 -12 11 -27l409 686q62 105 68 154l-2 4l-13 20l-41 80q70 41 95 41h266l-60 -102h162l-317 -547q20 4 31 4q57 -35 75 -104 q5 0 13.5 1t13.5 1q39 -25 61 -68q37 8 56 19l-4 -4l153 102l-10 -109q-14 -49 -19 -82l132 89l-11 -109q-18 -66 -18 -98v-41h70l-70 -88v-15h172l-102 -129h-70v-129q0 -8 1 -17t75 -89h-326q29 31 74 86v16h-176q67 74 73 86l4 47h-292q27 34 82 103h-185q51 61 115 149 q25 35 39 86q12 43 14 84l-39 19h-37q13 8 66 37q-4 8 -8 10l-29 14l-504 -864h-258q52 58 88 102h-190q120 130 196 258l129 217h-204l46 57q17 21 21 29v17h-170l47 57q17 21 21 29l4 49v348l-84 -10l84 63v62h-8zM45 1122l66 8h14l25 -4h4l-4 -540q-3 -17 -33 -54h184 q-39 39 -39 76v566q0 65 -2 71q4 4 6 17q-27 -28 -106 -72q-34 -16 -88 -47zM102 -45h170l863 1479h-213q-15 0 -54 -23l25 -49l18 -27l2 -12q-4 -61 -71 -174l-586 -983q-75 -126 -154 -211zM840 317h362v-133l-4 -49q-1 -17 -35 -53h187q-35 39 -35 51q-2 8 -2 25v159h86 l53 68h-139v174q0 33 18 98l4 50l-100 -68q-43 -21 -111 -29q16 -14 50 -39q28 -22 28 -53v-133h-215q42 76 70 190q4 16 4 43q0 134 -64 170q-65 0 -116 -30h2q-9 -8 -25 -21l88 -39q29 -28 29 -82q0 -99 -57 -194q-10 -16 -78 -105z" />
<glyph unicode="&#xbd;" horiz-adv-x="1592" d="M-61 1077l116 90q8 8 64 35q9 5 26 15q79 46 174 141q-18 -88 -26 -115q2 -10 2 -29v-71q51 37 127 112q-19 -88 -27 -114q2 -11 2 -29v-606q0 -12 11 -25l409 684q60 101 66 154l-52 104q64 41 91 41h266l-60 -102h162l-352 -606q4 4 8 6q96 72 217 72q93 0 158 -43 q50 -34 70 -84l16 -10q8 -5 16 -9q80 -53 80 -149q0 -138 -133 -293q34 16 131 76l-86 -205q18 6 27 12q85 44 162 90l-109 -258l-553 -2v92q14 0 31 10h-133v93q27 0 110 71q56 48 105 97l46 46q21 21 40 44l-62 8l-47 -4l-71 -17q0 79 12 121l-43 -2l-72 -16q0 88 21 149 v4l-484 -833h-262q47 49 90 102h-192q121 128 198 258l129 217h-202l46 57q17 21 21 29v17h-170l47 57q17 21 21 29l4 49v348l-84 -10l84 63v62h-8zM47 1122l66 8h14l25 -4h4l-4 -540q-1 -16 -33 -54h184q-39 39 -39 76v566q0 65 -2 71q4 4 6 17q-27 -28 -106 -72 q-34 -16 -88 -47zM102 -45h172l861 1479h-213q-17 0 -52 -23l25 -49l16 -27l2 -12q-4 -66 -69 -174l-588 -983q-79 -132 -154 -211zM870 92l502 2l66 156q-78 -46 -92 -49q-43 -23 -97 -23h-213q334 254 334 463q0 82 -65 125q-56 37 -142 37q-107 0 -198 -66 q-35 -26 -58 -96q-18 -56 -18 -100l35 8l55 4l51 -6q-16 49 -16 88q0 45 14 74q-4 16 29 28q28 11 47 11q73 0 115.5 -45.5t42.5 -118.5q0 -110 -185 -285q-53 -50 -106 -96q-92 -80 -101 -80v-31zM1044 657q3 0 5 2q38 31 96 52q-19 6 -41 6q-17 0 -37 -8h2q-5 -1 -8 -1 q-2 0 -2 1v-7q-10 -18 -15 -45zM1124 209h23l10 10q107 107 148 176q-68 -92 -181 -186zM1147 532q0 -32 18 -90q66 84 66 142q0 20 -2 28q-8 2 -23 2t-37 -8h2q-5 -1 -8 -1q-2 0 -2 1v-6q-14 -29 -14 -68z" />
<glyph unicode="&#xbe;" horiz-adv-x="1819" d="M-33 567q164 19 287 92v-90q0 -43 33 -49q35 15 69 37v-18q4 4 9 6q41 35 41 104q0 18 -5 43q-49 17 -118 25l-4 55q16 4 49 12q-56 23 -148 35l-4 55q21 5 33 9q-23 0 -90 12q26 43 59 80l-53 10h-8q-19 0 -101 12q117 193 316 193q76 0 141 -28q81 -35 96 -99l13 -6 q94 -43 94 -131q0 -97 -80 -152q-5 -5 -25 -14q101 -66 121 -158l336 563q59 99 66 154l-52 104q64 41 91 41h266l-60 -102h162l-317 -547q20 4 37 4q53 -35 71 -106q21 4 31 4q41 -27 57 -68q26 6 52 17h-2l155 102l-10 -111q-14 -45 -19 -77l132 86l-11 -111 q-18 -66 -18 -98v-41h70l-70 -88v-15h172l-102 -129h-70v-129q0 -8 1 -17t75 -89h-326q29 31 74 86v16h-176q33 37 73 88v-2l4 47h-292q27 34 82 103h-185q42 48 115 149q49 84 53 170l-39 19h-37q35 21 66 37q-4 8 -8 10l-31 14l-502 -864h-262q47 49 90 102h-192 q120 127 198 258l86 144q-53 -17 -108 -17q-113 0 -197 41l-151 115q5 0 14 1t14 1zM49 545l84 -64q84 -39 182 -39q97 0 170 54q80 59 80 153q0 137 -162 217q56 23 74 35q66 46 66 127q0 67 -76 102q-62 29 -135 29q-182 0 -264 -137q38 -6 49 -6h12l64 -10q-3 6 -3 18 q0 32 28.5 60t60.5 28q55 0 98 -29q47 -32 47 -86q0 -62 -76 -102q-30 -16 -153 -47q114 -12 167 -47q74 -49 74 -152q0 -83 -51 -127q-38 -33 -84 -33q-78 0 -78 80v35q-86 -51 -174 -59zM221 1016q47 37 109 57q-22 8 -51 8q-22 0 -40 -17.5t-18 -39.5v-8zM313 -45h172 l861 1479h-213q-17 0 -52 -23l25 -49l16 -27l2 -12q-4 -66 -69 -174l-588 -983q-79 -132 -154 -211zM324 915q8 5 10 7q49 24 57 57h-10q-22 0 -39.5 -17.5t-17.5 -39.5v-7zM389 418h14q33 0 64 24l12 13q-45 -25 -90 -37zM469 862q8 -4 12 -8q11 12 13 23q-5 -5 -11 -8z M1053 317h362v-133l-4 -49q-1 -17 -35 -53h187q-35 39 -35 51q-2 8 -2 25v159h86l53 68h-139v174q0 33 18 98l4 50l-102 -68q-39 -21 -109 -29q15 -14 46.5 -37.5t31.5 -54.5v-133h-215q44 77 68 190q4 19 4 43q0 134 -62 170q-65 0 -116 -30h2q-6 -2 -25 -21l88 -39 q29 -28 29 -82q0 -97 -58 -194q-13 -22 -77 -105z" />
<glyph unicode="&#xbf;" horiz-adv-x="885" d="M6 74q0 141 84 243q15 18 66 64q39 35 94 70v-2q67 43 72 57q6 49 6 72v14q-2 17 -39 153h106q0 5 -2 9q-104 22 -104 133q0 61 40 99t101 38q114 0 137 -106q107 -25 107 -134q0 -57 -35 -95t-92 -42q0 -2 -1 -3l-1 -1q16 0 24 2h152q-74 -80 -74 -117q0 -14 6 -41 l6 -55q0 -64 -61 -104q-22 -16 -68 -45q152 -6 218 -91q16 -22 26 -45q10 -4 37 -20q86 -66 86 -178q0 -127 -131 -205q-106 -63 -231 -63q-318 0 -400 159q-129 74 -129 234zM37 74q0 -260 395 -260q116 0 215 59q117 70 117 178q0 100 -73 154q-65 47 -169 47 q-27 0 -59 -4q83 -29 108 -49q37 -29 37 -84q0 -92 -51 -154q-55 -67 -141 -67q-108 0 -150 34q-47 38 -47 146q0 131 74 227q57 74 186 156q47 30 47 78q0 16 -6 48t-6 48q0 47 35 86h-80q-9 0 -24.5 -1t-22.5 -1h-92q12 -42 28 -121q3 -31 -6 -92q-3 -23 -86 -78 q-108 -72 -151 -125q-78 -96 -78 -225zM319 887q0 -47 32 -77t79 -30t79 30t32 77t-32 76.5t-79 29.5t-79 -29.5t-32 -76.5zM352 -29v-20q0 -12 2 -23q26 -4 62 -4q73 0 118 58q39 51 44 127q-12 4 -35 12l8 53h2q-32 21 -98 45q-26 -23 -35 -39q-68 -86 -68 -209z" />
<glyph unicode="&#xc0;" horiz-adv-x="1567" d="M-59 -31q137 97 335 488l302 606q0 8 -3 12q-30 21 -77 62l37 2l-7 6q-17 9 -34 22l2 -2q-21 8 -101 74l293 21q84 0 117 -56l18 35v2h2v2l-2 -2h2q-4 7 -12 23h2q-12 16 -16 24h-105l27 53v2h2v3l-2 -3h2q-4 8 -12 23h2q-10 15 -31 45q-35 25 -88 53l8 31 q-47 37 -110 72l26 98h250l43 -102h59l54 -125q48 -112 166 -252h-275q6 -17 16 -33q55 -13 78 -53q62 -110 215 -457q67 -152 207 -453q38 -78 74 -129q33 -20 72 -38l-9 -33q43 -37 111 -70l-12 -53h-373q-12 34 -37 102h-65q-32 110 -115 279l-45 92q-118 -41 -289 -158 q-240 -164 -240 -264l17 -51h-377q47 35 102 102h-204zM37 0h237q-4 12 -4 20q0 117 254 289q233 158 371 185l111 -232q78 -163 108 -262h336q-85 40 -141 109q-53 65 -107 170q-70 137 -209 454q-126 288 -213 455q-25 48 -110 41l-195 -15q25 -14 70 -43q63 -47 63 -108 q0 -14 -2 -21q-145 -291 -303 -600q-202 -396 -266 -442zM346 301l326 621l194 -373l-182 -64q-70 -25 -86 -32q-190 -78 -252 -152zM526 1581q86 -46 121 -82q39 -40 90 -117q17 -26 17 -39l-11 -24h177q-79 95 -127 209l-45 106h-207zM641 502q61 21 182 63l-73 142z M705 385q22 10 66 26l110 38l-4 8q-70 -19 -172 -72z" />
<glyph unicode="&#xc1;" horiz-adv-x="1567" d="M-59 -31q135 96 335 488q78 152 304 600l-2 -4v10q0 8 -3 12q-30 21 -77 62l37 2l-7 6q-17 9 -34 22l2 -2q-21 8 -101 74l221 16q13 15 23 33h-180q123 152 166 252l53 125h250l20 -76l-12 -26h94l21 -76l-15 -35q-74 -40 -112 -78q-46 -45 -88 -110h2q-5 -7 -13 -21 q9 -13 23 -57h-33q6 -17 16 -33q55 -13 78 -53q62 -110 215 -457q67 -152 207 -453q38 -78 74 -129q33 -20 72 -38l-9 -33q43 -37 111 -70l-12 -53h-373q-12 34 -37 102h-65q-32 110 -115 279l-45 92q-118 -41 -289 -158q-240 -164 -240 -264l17 -51h-377q47 35 102 102 h-204zM37 0h237q-4 12 -4 20q0 117 254 289q233 158 371 185l111 -232q78 -163 108 -262h336q-85 40 -141 109q-53 65 -107 170q-70 137 -209 454q-126 288 -213 455q-25 48 -110 41l-195 -15q25 -14 70 -43q63 -47 63 -108q0 -14 -2 -21q-145 -291 -303 -600 q-202 -396 -266 -442zM346 301l326 621l194 -373l-182 -64q-70 -25 -86 -32q-190 -78 -252 -152zM526 1319h176l-10 24q0 13 17 39q51 77 90 117q35 36 121 82l-15 53h-207l-45 -106q-48 -114 -127 -209zM641 502q61 21 182 63l-73 142zM705 385q22 10 66 26l110 38l-4 8 q-70 -19 -172 -72zM816 1263q0 -5 5 -12l-4 13q-1 0 -1 -1z" />
<glyph unicode="&#xc2;" horiz-adv-x="1567" d="M-59 -31q137 97 335 488l302 606q0 8 -3 12q-30 21 -77 62l37 2l-7 6q-17 9 -34 22l2 -2q-4 2 -23 13h-8l1 1q1 1 3 1q-25 20 -74 59l160 12q12 10 35 29h-228q15 10 42 33l188 160q18 24 57 69l8 8q50 50 103 125q26 -36 62 -78q1 -1 2 0t10 -8q6 -8 22 -24q4 4 6 8 q26 -35 63 -78q1 -1 2 0t9 -8q26 -28 90 -96q77 -82 168 -213h-342l92 77q-4 7 -16 23h-2v2h-111q2 -6 2 -20q0 -3 1 -7t1 -6v4l2 -14v2l2 -6l6 -74q0 -2 1 -3t1 -3q55 -13 78 -53q62 -110 215 -457q67 -152 207 -453q38 -78 74 -129q33 -20 72 -38l-9 -33q43 -37 111 -70 l-12 -53h-373q-12 34 -37 102h-65q-32 110 -115 279l-45 92q-118 -41 -289 -158q-240 -164 -240 -264l17 -51h-377q47 35 102 102h-204zM37 0h237q-4 12 -4 20q0 117 254 289q233 158 371 185l111 -232q78 -163 108 -262h336q-85 40 -141 109q-53 65 -107 170 q-70 137 -209 454q-126 288 -213 455q-25 48 -110 41l-195 -15q25 -14 70 -43q63 -47 63 -108q0 -14 -2 -21q-145 -291 -303 -600q-202 -396 -266 -442zM346 301l326 621l194 -373l-182 -64q-70 -25 -86 -32q-190 -78 -252 -152zM451 1311h223l18 -6l-2 20l-2 10l-2 15 q-2 15 -4 24q0 35 86 125l76 -94q28 -35 37 -45q-15 -25 -21 -27l-26 -22h200q-48 72 -133 162q-46 51 -141 151q-24 -32 -78 -92q-18 -17 -66 -78q-96 -89 -165 -143zM641 502q61 21 182 63l-73 142zM705 385q22 10 66 26l110 38l-4 8q-70 -19 -172 -72z" />
<glyph unicode="&#xc3;" horiz-adv-x="1567" d="M-59 -31q137 97 335 488l302 606q0 8 -3 12q-30 21 -77 62l37 2l-7 6q-17 9 -34 22l2 -2q-21 8 -101 74l293 21q91 0 119 -58l24 -49q55 -13 78 -53q62 -110 215 -457q67 -152 207 -453q38 -78 74 -129q33 -20 72 -38l-9 -33q43 -37 111 -70l-12 -53h-373q-12 34 -37 102 h-65q-32 110 -115 279l-45 92q-118 -41 -289 -158q-240 -164 -240 -264l17 -51h-377q47 35 102 102h-204zM37 0h237q-4 12 -4 20q0 117 254 289q233 158 371 185l111 -232q78 -163 108 -262h336q-85 40 -141 109q-53 65 -107 170q-70 137 -209 454q-126 288 -213 455 q-25 48 -110 41l-195 -15q25 -14 70 -43q63 -47 63 -108q0 -14 -2 -21q-145 -291 -303 -600q-202 -396 -266 -442zM289 1348q71 71 200 178h-2q67 39 136 39q19 0 41 -4l88 -25l98 -43q62 -8 92 -8h19q19 5 124 37l31 -49q-59 -62 -98 -91q8 -2 14 -1t12 1h19q20 5 125 37 l31 -49q-72 -78 -123 -106h2q-58 -35 -123 -35q-27 0 -53 6l-60 14q-45 20 -133 54q-24 4 -47 4q-25 0 -57 -4h4l-238 -58q57 58 178 164q-16 -1 -47 -4h4zM346 301l326 621l194 -373l-182 -64q-70 -25 -86 -32q-190 -78 -252 -152zM391 1405l129 31q34 4 60 4q30 0 51 -4 q30 -6 137 -54l63 -16q20 -5 40 -5q52 0 108 32q49 28 115 100q-125 -39 -134 -39.5t-21 -0.5q-43 0 -99 11l-109 47l-65 19q-85 14 -162 -31q-41 -23 -113 -94zM641 502q61 21 182 63l-73 142zM705 385q22 10 66 26l110 38l-4 8q-70 -19 -172 -72z" />
<glyph unicode="&#xc4;" horiz-adv-x="1567" d="M-59 -31q137 97 335 488l302 606q0 8 -3 12q-30 21 -77 62l37 2l-7 6q-17 9 -34 22l2 -2q-21 8 -101 74l205 14q-27 27 -33 74q-98 13 -102 105q-4 100 131 112q123 0 137 -102v-2q7 0 21 -4q2 96 131 108q123 0 137 -102v-2q90 -13 102 -101v-4q0 -110 -133 -110h-6 q-117 0 -129 102q-7 0 -20 4q-2 -69 -62 -94q21 -11 33 -35l24 -49q55 -13 78 -53q62 -110 215 -457q67 -152 207 -453q38 -78 74 -129q33 -20 72 -38l-9 -33q43 -37 111 -70l-12 -53h-373q-12 34 -37 102h-65q-32 110 -115 279l-45 92q-118 -41 -289 -158 q-240 -164 -240 -264l17 -51h-377q47 35 102 102h-204zM37 0h237q-4 12 -4 20q0 117 254 289q233 158 371 185l111 -232q78 -163 108 -262h336q-85 40 -141 109q-53 65 -107 170q-70 137 -209 454q-126 288 -213 455q-25 48 -110 41l-195 -15q25 -14 70 -43q63 -47 63 -108 q0 -14 -2 -21q-145 -291 -303 -600q-202 -396 -266 -442zM346 301l326 621l194 -373l-182 -64q-70 -25 -86 -32q-190 -78 -252 -152zM496 1436q10 -81 104 -78q102 3 102 80q-12 75 -104 75q-102 -10 -102 -77zM641 502q61 21 182 63l-73 142zM705 385q22 10 66 26l110 38 l-4 8q-70 -19 -172 -72zM784 1436q11 -81 105 -78q102 3 102 80q-12 75 -104 75q-103 -10 -103 -77z" />
<glyph unicode="&#xc5;" horiz-adv-x="1567" d="M-59 -31q137 97 335 488l302 606q0 8 -3 12q-30 21 -77 62l37 2l-7 6q-17 9 -34 22l2 -2q-21 8 -101 74l215 16q-16 9 -32 25q-72 59 -72 160q0 102 68 162q66 57 169 57q158 0 220 -127q120 -61 120 -195q0 -106 -71 -163q-48 -38 -121 -52q6 -4 10 -10l8 -12 q83 -159 215 -457q67 -152 207 -453q38 -78 74 -129q33 -20 72 -38l-9 -33q43 -37 111 -70l-12 -53h-373q-12 34 -37 102h-65q-32 110 -115 279l-45 92q-118 -41 -289 -158q-240 -164 -240 -264l17 -51h-377q47 35 102 102h-204zM37 0h237q-4 12 -4 20q0 117 254 289 q233 158 371 185l111 -232q78 -163 108 -262h336q-85 40 -141 109q-53 65 -107 170q-70 137 -209 454q-126 288 -213 455q-25 48 -110 41l-195 -15q25 -14 70 -43q63 -47 63 -108q0 -14 -2 -21q-145 -291 -303 -600q-202 -396 -266 -442zM346 301l326 621l194 -373l-182 -64 q-70 -25 -86 -32q-190 -78 -252 -152zM537 1440q0 -85 61 -138q58 -49 145 -49q90 0 148.5 47.5t58.5 139.5q0 88 -61 139q-57 49 -146 49q-90 0 -146 -48q-60 -51 -60 -140zM641 502q61 21 182 63l-73 142zM647 1440q0 129 96 129q97 0 97 -129q0 -50 -25 -84 q-30 -41 -72 -41q-96 0 -96 125zM692 1509q12 13 49 29q-34 -4 -49 -29zM705 385q22 10 66 26l110 38l-4 8q-70 -19 -172 -72zM780 1362q3 4 11 12q14 19 18 49q-23 -14 -29 -61zM854 1243q14 2 27 14q-9 -4 -27 -14z" />
<glyph unicode="&#xc6;" horiz-adv-x="1975" d="M10 20q116 64 471 443l553 598q4 6 8 18l-4 4l9 9q2 6 2 16q-1 4 -5 18l-108 60l27 26l-15 15l43 14l21 16h162l28 3h39q12 0 21 -3h540q47 0 82 -65q-8 -12 -22 -37h43q47 0 82 -65q-50 -78 -52 -97l19 -116l-115 38q-86 66 -225 91h4l-51 4l-51 2l-82 -2q4 -94 4 -230 h424l-62 -102h164l-102 -172l-133 -127q-109 147 -273 147h-20v-43q0 -260 12 -377l18 3l45 4q140 24 226 90l112 39l-14 -117q1 -7 8 -25l109 39l-15 -116q5 -25 41 -82l2 -29q-24 -51 -73 -51h-791l-76 71l54 31h-80l-76 72l115 65q12 11 20 23q0 10 1 28.5t1 28.5 q0 27 -2 82l-2 55q-108 -43 -289 -137q-321 -167 -368 -268q-6 -10 -6 -45h-283l-12 51q4 2 71 51h-161zM37 0h237q0 10 7 20q50 115 385 289q313 163 432 185l6 -232q3 -108 0 -145q-8 -19 -33 -41l-82 -47l37 -35h778q31 0 45 33q-45 71 -45 102l8 68l-59 -21 q-108 -84 -235 -94l-50 -4l-51 -2l-65 2q-6 10 -15 31q-39 88 -34 550q6 3 26 3q10 -3 14 -3h11q182 0 276 -131l103 97l73 125h-501q2 129 1 226t-6 165l33 2l82 2l51 -2l52 -4q143 -25 233 -95l61 -20l-10 70q0 24 47 100q-18 33 -47 33h-547q-10 2 -22 3q-7 1 -29 -1 l-28 -2h-152l-12 -10l-6 -3l2 -2l-21 -20l84 -45v-2q8 -17 8 -37q0 -33 -20 -66l-555 -600q-359 -384 -467 -442zM483 301l584 621l27 -373q-98 -31 -293 -96q-226 -79 -318 -152zM639 422q3 2 6 2q33 38 100 113zM799 344l46 17q134 48 222 75v19q-98 -29 -268 -111z M940 530q36 15 121 39l-6 84zM1370 109zM1473 6z" />
<glyph unicode="&#xc7;" horiz-adv-x="1549" d="M6 614q0 319 264 496q224 150 553 150h635l-125 -103h228l-140 -115q-41 -41 -41 -71v-47q-4 -8 -4 -164q-44 57 -102 106v-4q-3 5 -10 15q-152 122 -338 122q-241 0 -387 -122q-156 -131 -156 -365q0 -205 102 -344q105 -74 252 -74q273 0 535 387v-239q46 53 102 137 v-365q-170 -138 -391 -170q1 -1 10 -12q76 -87 76 -121q0 -16 -6 -37v2q-41 -135 -301 -135q-39 0 -88 25q-68 35 -68 86v2q-20 7 -35 14q-67 33 -67 86v17q0 11 1 31.5t1 31.5v16q78 -94 127 -94q67 0 100 51q0 3 1 4t1 3q-19 15 -35 24q-236 27 -395 172q-37 34 -61 68 q-23 14 -41 35q-197 184 -197 501zM37 614q0 -307 186 -479q156 -145 404 -166q-2 -6 -2 -12l19 -13q9 -6 52 -38q72 -54 72 -84q0 -18 -8 -31q-40 -65 -127 -65q-62 0 -96 41q-2 -7 -2 -13q0 -33 51 -59q42 -21 73 -21q240 0 273 113q4 14 4 27q0 25 -68 100q-44 49 -59 49 q-8 0 -8 -14q1 6 6 20q268 21 434 162v252q-215 -320 -504 -320q-229 0 -364 170q-123 155 -123 381q0 247 166 388q155 131 407 131q275 0 420 -183q0 68 4 80v43q0 45 51 96l72 60h-547q-322 0 -536 -144q-250 -168 -250 -471z" />
<glyph unicode="&#xc8;" horiz-adv-x="1022" d="M-14 37l112 63q21 21 25 27q0 16 2 25v-2q0 2 1 6t1 6v901l-39 22l23 23q-9 12 -15 18l8 -4l-118 66l75 72h490l-1 1t-1 3h2q-12 16 -16 24h-105l27 55h2v3l-2 -3h2q-2 5 -13 23h3q-10 16 -33 47q-19 12 -40 25l-46 26l8 33q-21 16 -48 33l-63 37l27 98h250l43 -102h59 l53 -125q32 -77 107 -178h86q45 0 80 -66q-8 -12 -23 -37h45q45 0 80 -65q-47 -74 -49 -95l14 -118l-110 39q-86 65 -227 90h4l-52 4l-49 2l-78 -2l-12 -2v-228h434l-61 -102h164l-103 -172l-131 -125q-100 135 -276 145h-10q-7 0 -15 2h2q-4 2 -4 13v-434l39 2l45 4 q139 24 225 90l113 39l-14 -119q0 -10 6 -23l110 39l-14 -118q4 -23 41 -80l2 -29q-24 -51 -74 -51h-790l-76 71l55 31h-82zM37 31l37 -35h778q31 0 45 33q-45 71 -45 100l8 70l-59 -21q-90 -69 -236 -94l-49 -4l-51 -2l-82 2l-41 4v569q-2 11 37 11q10 -2 14 -2q10 0 8 0 q187 -9 279 -132l100 97l74 125h-512v389l39 4l84 2l49 -2l51 -4q142 -25 236 -94l59 -21l-8 70q0 28 45 100q-18 33 -45 33h-778l-37 -35l82 -45q39 -39 39 -82v-905q-4 -30 -4 -39q-7 -19 -33 -45zM262 1581q88 -48 123 -82q32 -31 88 -117q16 -25 16 -39l-10 -24h176 q-80 98 -127 209l-45 106h-207z" />
<glyph unicode="&#xc9;" horiz-adv-x="1022" d="M-14 37l112 63q21 21 25 27q0 16 2 25v-2q0 2 1 6t1 6v901l-39 22l23 23q-9 12 -15 18l8 -4l-118 66l75 72h295q14 14 21 28h-182q115 137 165 252l54 125h250l20 -76l-12 -26h94l20 -76l-14 -35q-76 -41 -113 -78q-42 -42 -88 -110h2l-4 -4h283q45 0 80 -66 q-8 -12 -23 -37h45q45 0 80 -65q-47 -74 -49 -95l14 -118l-110 39q-86 65 -227 90h4l-52 4l-49 2l-78 -2l-12 -2v-228h434l-61 -102h164l-103 -172l-131 -125q-100 135 -276 145h-10q-7 0 -15 2h2q-4 2 -4 13v-434l39 2l45 4q139 24 225 90l113 39l-14 -119q0 -10 6 -23 l110 39l-14 -118q4 -23 41 -80l2 -29q-24 -51 -74 -51h-790l-76 71l55 31h-82zM37 31l37 -35h778q31 0 45 33q-45 71 -45 100l8 70l-59 -21q-90 -69 -236 -94l-49 -4l-51 -2l-82 2l-41 4v569q-2 11 37 11q10 -2 14 -2q10 0 8 0q187 -9 279 -132l100 97l74 125h-512v389l39 4 l84 2l49 -2l51 -4q142 -25 236 -94l59 -21l-8 70q0 28 45 100q-18 33 -45 33h-778l-37 -35l82 -45q39 -39 39 -82v-905q-4 -30 -4 -39q-7 -19 -33 -45zM262 1319h176l-10 24q0 15 16 39q49 74 91 117q37 37 120 82l-14 53h-207l-45 -106q-52 -122 -127 -209zM553 1260z" />
<glyph unicode="&#xca;" horiz-adv-x="1022" d="M-14 37l112 63q21 21 25 27q0 16 2 25v-2q0 2 1 6t1 6v901l-39 22l23 23q-9 12 -15 18l8 -4l-118 66l75 72h220q16 12 24 20h-225q14 10 41 33l126 107q34 28 60 53q42 53 70 81v-2q50 52 96 119q24 -24 100 -106q0 2 2 4q11 -10 59 -61l109 -117q26 -28 54 -62l55 -69 q45 0 80 -66q-8 -12 -23 -37h45q45 0 80 -65q-47 -74 -49 -95l14 -118l-110 39q-86 65 -227 90h4l-52 4l-49 2l-78 -2l-12 -2v-228h434l-61 -102h164l-103 -172l-131 -125q-100 135 -276 145h-10q-7 0 -15 2h2q-4 2 -4 13v-434l39 2l45 4q139 24 225 90l113 39l-14 -119 q0 -10 6 -23l110 39l-14 -118q4 -23 41 -80l2 -29q-24 -51 -74 -51h-790l-76 71l55 31h-82zM37 31l37 -35h778q31 0 45 33q-45 71 -45 100l8 70l-59 -21q-90 -69 -236 -94l-49 -4l-51 -2l-82 2l-41 4v569q-2 11 37 11q10 -2 14 -2q10 0 8 0q187 -9 279 -132l100 97l74 125 h-512v389l39 4l84 2l49 -2l51 -4q142 -25 236 -94l59 -21l-8 70q0 28 45 100q-18 33 -45 33h-778l-37 -35l82 -45q39 -39 39 -82v-905q-4 -30 -4 -39q-7 -19 -33 -45zM168 1311h221l21 -6l-2 20l-5 25q-4 20 -4 24q0 35 86 125q47 -59 76 -94l37 -45q-18 -25 -23 -27 l-26 -22h203q-52 75 -134 162l-97 103q-36 38 -46 48q-45 -62 -75.5 -91.5t-67.5 -78.5q-53 -50 -164 -143zM532 1266q0 -2 3 -4v-2h124q-6 6 -14 18h-2v2h-111v-12v-2zM678 1274q0 2 2 4q1 1 0 1l-2 -1v-4z" />
<glyph unicode="&#xcb;" horiz-adv-x="1022" d="M-14 37l112 63q21 21 25 27q0 16 2 25v-2q0 2 1 6t1 6v901l-39 22l23 23q-9 12 -15 18l8 -4l-118 66l75 72h250q-24 26 -26 67q-99 13 -103 105q-4 100 129 112q123 0 138 -102v-2q7 -2 22 -6q0 98 129 110q123 0 137 -102v-2q90 -13 103 -101v-4q0 -47 -29 -75h41 q45 0 80 -66q-8 -12 -23 -37h45q45 0 80 -65q-47 -74 -49 -95l14 -118l-110 39q-86 65 -227 90h4l-52 4l-49 2l-78 -2l-12 -2v-228h434l-61 -102h164l-103 -172l-131 -125q-100 135 -276 145h-10q-7 0 -15 2h2q-4 2 -4 13v-434l39 2l45 4q139 24 225 90l113 39l-14 -119 q0 -10 6 -23l110 39l-14 -118q4 -23 41 -80l2 -29q-24 -51 -74 -51h-790l-76 71l55 31h-82zM37 31l37 -35h778q31 0 45 33q-45 71 -45 100l8 70l-59 -21q-90 -69 -236 -94l-49 -4l-51 -2l-82 2l-41 4v569q-2 11 37 11q10 -2 14 -2q10 0 8 0q187 -9 279 -132l100 97l74 125 h-512v389l39 4l84 2l49 -2l51 -4q142 -25 236 -94l59 -21l-8 70q0 28 45 100q-18 33 -45 33h-778l-37 -35l82 -45q39 -39 39 -82v-905q-4 -30 -4 -39q-7 -19 -33 -45zM213 1436q10 -81 102 -78q103 3 103 80q-13 79 -105 75q-100 -4 -100 -77zM502 1436q10 -82 102 -78 q103 4 103 80q-14 79 -105 75q-100 -4 -100 -77zM522 1260h80q-22 22 -29 67q-8 0 -22 4q-4 -49 -29 -71z" />
<glyph unicode="&#xcc;" horiz-adv-x="678" d="M0 1245q18 -92 100 -121q2 -2 6 -2q25 -74 97 -100q12 -4 35 -12q2 -11 2 -31l-7 -889q-18 -35 -81 -121h174q-21 -30 -72 -102h428q-84 102 -94 129q-2 4 -2 72v1089h-103v29h207q-122 147 -166 252l-53 125h-59l-43 102h-252l-23 -98q68 -39 109 -70l-6 -33 q29 -16 84 -51q10 -16 32 -47h-2q5 -7 13 -23h-2l2 3v-3h-2v-2l-27 -53h104q4 -8 17 -24h-2q0 -2 1 -2.5t1 -1.5h-338zM37 1221q8 -46 74 -68q82 -28 104 -43q55 -38 55 -131l-6 -891q-8 -33 -51 -88h299q-43 51 -51 78q-8 18 -8 92v1059h-369zM129 1581q85 -48 121 -82 q31 -29 88 -117q16 -25 16 -39l-10 -24h176q-79 95 -127 209l-45 106h-207zM233 92l3 4q0 -2 -3 -2v-2z" />
<glyph unicode="&#xcd;" horiz-adv-x="670" d="M0 1245l78 15h143q14 14 21 28h-181q114 137 164 252l54 125h253l19 -78l-12 -24h96l18 -78l-16 -33q-76 -41 -113 -78q-42 -42 -88 -110h2l-4 -4h49v-103h103v-1089q0 -68 2 -72q10 -27 94 -129h-428l72 102h-174q63 86 81 121l7 82v807q0 20 -2 31q-12 4 -35 12 q-72 26 -97 100q-4 0 -6 2q-82 29 -100 121zM37 1221q8 -46 74 -68q82 -28 104 -43q55 -38 55 -131l-6 -891q-8 -33 -51 -88h299q-43 51 -51 78q-8 18 -8 92v1059h-369zM129 1319h174q-8 18 -8 24q0 18 14 39q52 79 89.5 116.5t121.5 82.5l-12 53h-209l-45 -106 q-51 -121 -125 -209zM233 92l3 4q0 -2 -3 -2v-2z" />
<glyph unicode="&#xce;" horiz-adv-x="766" d="M-51 1280q4 3 167 140q34 28 60 53q18 25 57 69l9 8q35 39 100 121q6 -8 36 -40l62 -66l4 4q26 -23 111 -119q47 -50 137 -154q41 -53 86 -118h-291v-21h103v-1089q0 -64 4 -84v2q6 -19 90 -119h-434q46 56 78 102h-181q75 88 91 127l-2 -6l6 82v807q0 5 -1 15.5t-1 15.5 l-33 12h2q-74 18 -103 100l-2 2h2q-81 21 -106 121l80 15h70q16 12 24 20h-225zM37 1311h221l18 -6l-2 20l-2 10l-2 15q-2 15 -4 24q0 35 86 125l115 -139q-18 -25 -23 -27l-26 -22h200q-44 66 -133 162l-95 103q-36 38 -46 48q-40 -56 -78 -92q-22 -21 -65 -78 q-53 -50 -164 -143zM39 1221q11 -47 76 -68q83 -27 104 -43q53 -41 53 -131l-6 -891q-10 -39 -51 -88h299q-43 51 -51 78q-6 20 -6 92v1059h-371zM399 1278q2 -6 2 -18h86v-39l43 36q-7 7 -20 23h-111v-2zM547 1274q0 2 2 4q1 1 0 1l-2 -1v-4z" />
<glyph unicode="&#xcf;" horiz-adv-x="693" d="M0 1245l78 15h98q-24 26 -26 67q-99 13 -103 105q-4 100 129 112q123 0 137 -102v-2q8 -2 23 -6q0 98 129 110q123 0 137 -102v-2q90 -13 103 -101v-4q0 -110 -134 -110h-6q-53 0 -82 20v-88h103v-1089q0 -68 2 -72q10 -27 94 -129h-428l72 102h-174q63 86 81 121l7 82 v807q0 20 -2 31q-12 4 -35 12q-72 26 -97 100q-4 0 -6 2q-82 29 -100 121zM37 1221q8 -46 74 -68q82 -28 104 -43q55 -38 55 -131l-6 -891q-8 -33 -51 -88h299q-43 51 -51 78q-8 18 -8 92v1059h-369zM78 1436q10 -81 102 -78q103 3 103 80q-14 79 -105 75q-100 -4 -100 -77z M233 92l3 4q0 -2 -3 -2v-2zM367 1436q10 -82 102 -78q102 4 102 80q-13 79 -104 75q-100 -4 -100 -77zM387 1260h80q-23 22 -29 67q-8 0 -22 4q-4 -49 -29 -71z" />
<glyph unicode="&#xd0;" horiz-adv-x="1551" d="M-51 326q41 66 83 131q57 89 91 123v-2q47 53 106 73v379q201 127 351 193q84 37 266 37q292 0 450 -189l31 -37q38 -29 72 -65q164 -176 164 -461q0 -292 -187 -483t-481 -191q-97 0 -195 25q-75 19 -125 47v-39h-243v102h-103v344l-178 -90l93 145q38 58 61 87l-8 -4z M37 403l145 74q29 15 78 23v-500h182v70q49 -49 164 -78q98 -25 187 -25q278 0 457.5 182.5t179.5 460.5q0 270 -155 441q-161 178 -429 178q-172 0 -254 -35q-137 -58 -332 -182v-381q-61 -19 -115 -74q-23 -24 -108 -154zM442 166v305q68 -20 109 -20q110 0 184 88 q36 43 113 188l-78 -65q-29 -25 -37 -29q-65 -45 -141 -45q-44 0 -51 2q-33 8 -99 26v228q0 131 113 215q100 74 238 74q212 0 325 -166q99 -145 99 -357q0 -202 -105 -362q-121 -185 -311 -185q-47 0 -94 7q-32 4 -95 16q-108 28 -170 80zM575 129q17 -8 46 -14l-3 2 q100 -23 183 -23q173 0 284 170q101 154 101 346q0 207 -88 334q-86 55 -203 55q-129 0 -219 -67q-101 -75 -101 -191v-123h17q67 0 125 39l32 27q31 27 87 74l45 -35q-36 -68 -115 -197q21 6 53 29l32 27q32 26 87 73l45 -34q-84 -160 -123 -205h2q-84 -99 -209 -99 q-36 0 -78 11v-199z" />
<glyph unicode="&#xd1;" horiz-adv-x="1409" d="M-35 1241l152 19h289l88 -103h14l655 -766v617q-2 7 -8 20l-33 27v22l-102 80v74q-10 -2 -19 -2h-16q-29 0 -55 6l-60 14l-82 37q-39 17 -73 20q-13 1 -23 1q-25 0 -53 -4h2l-145 -35l-23 47q34 33 107 94q-14 -1 -43 -4h2l-146 -35l-22 47q96 90 127 109h-2 q65 39 137 39q27 0 41 -4l88 -25l98 -43q62 -8 90 -8h21l4 1l123 36l30 -49q-55 -58 -100 -91q8 -2 15 -1q6 1 10 1h20l4 1q41 13 123 36l31 -49q-76 -80 -125 -106h2q-4 -4 -6 -4h217v-103h102v-1194q0 -86 -59 -104h-2l-4 -6q-49 21 -101 81l-32 37q-25 19 -70 66 l-664 754v-586q0 -81 50 -156q10 -16 41 -51q10 -10 30 -29h-4q14 -14 107 -102h-471q19 34 53 102h-156q92 156 92 236v819q-10 4 -21 8l-22 8q-20 11 -120 99l20 2l-2 2q-20 10 -121 98zM37 1219q47 -41 59 -48q37 -15 82 -26l84 -51v-889q0 -92 -67 -205h337 q-86 78 -122 135q-54 85 -54 172v682l820 -932q48 -55 79 -69q-5 3 -14 10l19 -4q28 10 28 72v1163h-237v-58l108 -84q25 -40 30 -56.5t5 -57.5v-680l-803 936h-270zM401 1405l131 31q30 4 58 4t51 -4q33 -6 135 -54l66 -16q20 -5 40 -5q53 0 107 32q46 27 117 100l-97 -27 q-34 -10 -38 -12q-11 -1 -23 -1q-42 0 -98 11l-109 47l-65 19q-89 16 -164 -31q-36 -22 -111 -94z" />
<glyph unicode="&#xd2;" horiz-adv-x="1563" d="M6 614q0 322 232 510q190 154 456 166q15 33 20 43l5 10q0 2 -26 42q-7 10 -15 20q-21 16 -42 30l-44 27l6 27q-41 36 -109 76l27 100h250l43 -102h59l54 -125q44 -103 118 -199q111 -40 201 -115q53 -44 96 -98q4 -4 6 -4q232 -191 232 -510q0 -321 -232 -510 q-207 -168 -501 -168q-299 0 -504 168q-54 44 -94 94l-8 8q-230 230 -230 510zM37 614q0 -303 219 -485q195 -162 483 -162q285 0 484 162q219 178 219 485q0 306 -219 486q-197 162 -484 162q-284 0 -483 -162q-219 -178 -219 -486zM250 614q0 241 121 391q132 162 368 162 q199 0 336 -137q154 -153 154 -416q0 -240 -123 -390q-132 -161 -367 -161q-234 0 -367 162q-122 150 -122 389zM383 512q0 -211 96 -346q105 -72 260 -72q221 0 345 153q114 141 114 367q0 201 -100 338q-113 82 -256 82q-223 0 -346 -153q-113 -141 -113 -369zM524 1581 q122 -67 211 -199q15 -22 15 -39q0 -6 -9 -24h177q-73 84 -127 209l-46 106h-206z" />
<glyph unicode="&#xd3;" horiz-adv-x="1563" d="M6 614q0 323 232 510q171 138 399 162v2h-180q123 152 166 252l53 125h250l20 -76l-12 -26h94l21 -76l-15 -35q-41 -20 -68 -39q-35 -25 -46 -39q-34 -29 -70 -88q226 -26 391 -162q52 -43 96 -98q4 -4 6 -4q232 -191 232 -510q0 -321 -232 -510q-207 -168 -501 -168 q-299 0 -504 168q-54 44 -94 94l-8 8q-230 230 -230 510zM37 614q0 -303 219 -485q195 -162 483 -162q285 0 484 162q219 178 219 485q0 306 -219 486q-197 162 -484 162q-284 0 -483 -162q-219 -178 -219 -486zM250 614q0 241 121 391q132 162 368 162q199 0 336 -137 q154 -153 154 -416q0 -240 -123 -390q-132 -161 -367 -161q-234 0 -367 162q-122 150 -122 389zM383 512q0 -211 96 -346q105 -72 260 -72q221 0 345 153q114 141 114 367q0 201 -100 338q-113 82 -256 82q-223 0 -346 -153q-113 -141 -113 -369zM524 1319h176l-10 24 q0 13 17 39q87 135 211 199l-15 53h-207l-45 -106q-48 -114 -127 -209z" />
<glyph unicode="&#xd4;" horiz-adv-x="1563" d="M6 614q0 323 232 510q142 115 323 152q3 1 6 4h-227q24 17 101 83q43 36 128 110q18 24 58 69l8 8q50 50 100 123q19 -23 99 -108q1 3 4 6q46 -58 166 -180q65 -67 165 -213h-2q25 -17 74 -54q56 -48 96 -98q4 -4 6 -4q232 -191 232 -510q0 -321 -232 -510 q-207 -168 -501 -168q-299 0 -504 168q-54 44 -94 94l-8 8q-230 230 -230 510zM37 614q0 -303 219 -485q195 -162 483 -162q285 0 484 162q219 178 219 485q0 306 -219 486q-197 162 -484 162q-284 0 -483 -162q-219 -178 -219 -486zM250 614q0 241 121 391q132 162 368 162 q199 0 336 -137q154 -153 154 -416q0 -240 -123 -390q-132 -161 -367 -161q-234 0 -367 162q-122 150 -122 389zM383 512q0 -211 96 -346q105 -72 260 -72q221 0 345 153q114 141 114 367q0 201 -100 338q-113 82 -256 82q-223 0 -346 -153q-113 -141 -113 -369zM428 1311 h223l19 -6l-2 20v10l-4 15q-2 7 -2 24q0 35 83 125q50 -59 78 -94l35 -45q-14 -25 -20 -27l-27 -22h201q-50 74 -133 162q-36 37 -94 99l-48 52q-40 -56 -78 -92q-22 -21 -65 -78q-103 -95 -166 -143zM895 1280q3 -2 10 -2q-2 0 -2 2h-8z" />
<glyph unicode="&#xd5;" horiz-adv-x="1563" d="M6 614q0 321 232 510q207 168 501 168h2q-12 3 -34 11q-26 4 -50 4q-21 0 -51 -4h2l-145 -35l-23 47q34 33 107 94q-14 -1 -43 -4h2l-146 -35l-22 47q96 90 127 109h-2q67 39 135 39q7 0 20 -1t19 -1l90 -25l100 -45q62 -8 91 -8h20l-14 -4q18 5 51 14l88 27l31 -49 q-60 -62 -99 -91q9 -2 15 -1t10 1h20l-14 -4q18 5 51 15q29 9 88 26l31 -49q-72 -78 -123 -106h2q-13 -9 -43 -21q120 -44 209 -119q54 -45 96 -98q4 -4 6 -4q232 -191 232 -510q0 -321 -232 -510q-207 -168 -501 -168q-299 0 -504 168q-54 44 -94 94l-8 8 q-230 230 -230 510zM37 614q0 -303 219 -485q195 -162 483 -162q285 0 484 162q219 178 219 485q0 306 -219 486q-197 162 -484 162q-284 0 -483 -162q-219 -178 -219 -486zM250 614q0 241 121 391q132 162 368 162q199 0 336 -137q154 -153 154 -416q0 -240 -123 -390 q-132 -161 -367 -161q-234 0 -367 162q-122 150 -122 389zM369 1405l131 31q28 4 55 4q30 0 53 -4q33 -6 135 -54l66 -16q20 -5 40 -5q52 0 107 32q51 29 115 100l-96 -27q-33 -10 -37 -12q-10 -1 -23 -1q-42 0 -98 11l-108 47l-68 19q-87 14 -162 -31q-30 -18 -110 -94z M383 512q0 -211 96 -346q105 -72 260 -72q221 0 345 153q114 141 114 367q0 201 -100 338q-113 82 -256 82q-223 0 -346 -153q-113 -141 -113 -369z" />
<glyph unicode="&#xd6;" horiz-adv-x="1563" d="M6 614q0 323 232 510q142 115 323 152q-14 24 -16 51q-94 12 -103 105q0 100 129 112q125 0 140 -102v-2q7 -1 20 -6q0 98 129 110q125 0 139 -102v-2q91 -17 103 -101v-4q0 -71 -60 -96q116 -47 199 -115q52 -43 96 -98q4 -4 6 -4q232 -191 232 -510q0 -321 -232 -510 q-207 -168 -501 -168q-299 0 -504 168q-54 44 -94 94l-8 8q-230 230 -230 510zM37 614q0 -303 219 -485q195 -162 483 -162q285 0 484 162q219 178 219 485q0 306 -219 486q-197 162 -484 162q-284 0 -483 -162q-219 -178 -219 -486zM250 614q0 241 121 391q132 162 368 162 q199 0 336 -137q154 -153 154 -416q0 -240 -123 -390q-132 -161 -367 -161q-234 0 -367 162q-122 150 -122 389zM383 512q0 -211 96 -346q105 -72 260 -72q221 0 345 153q114 141 114 367q0 201 -100 338q-113 82 -256 82q-223 0 -346 -153q-113 -141 -113 -369zM473 1436 q10 -81 105 -78q102 3 102 80q-13 79 -107 75q-100 -4 -100 -77zM762 1436q10 -81 104 -78q103 3 103 80q-14 79 -107 75q-100 -4 -100 -77zM805 1288h18q11 0 21 -2q-4 10 -10 41q-8 1 -21 4q0 -26 -8 -43z" />
<glyph unicode="&#xd7;" horiz-adv-x="629" d="M2 774l51 201l203 -203l240 244l-2 -209l104 106l-2 -274l-104 -102l149 -150l-63 -188l-211 211l-246 -246l4 209l-107 -107l7 275l104 106zM37 784l137 -137l-119 -121l-4 -182l213 213l199 -199l41 121l-160 160l119 117l2 182l-209 -211l-186 186z" />
<glyph unicode="&#xd8;" horiz-adv-x="1563" d="M6 616q0 318 211 504q199 176 520 176q148 0 264 -41q4 13 11 37l-17 27l-37 72q70 41 95 41h268l-61 -103h163l-141 -237q27 -27 51 -58q94 -71 156 -184q86 -157 86 -336q0 -326 -236 -514q-208 -166 -499 -166q-136 0 -277 47q-19 -43 -26 -92h-254l75 102h-178 l113 152q-31 30 -55 61q-232 183 -232 512zM37 616q0 -372 307 -546l-18 -33l-84 -115h168q12 58 36 98q138 -53 291 -53q283 0 482 160q223 179 223 489q0 175 -81 321q-84 151 -235 230l140 234h-213q-15 0 -54 -23l25 -49l16 -24l4 -9v-2q-6 -29 -16 -65l-4 -15 q-139 52 -287 52q-310 0 -500 -168q-200 -176 -200 -482zM250 616q0 239 122 389q132 164 365 164q123 0 183 -32l51 -27l-553 -924q-168 150 -168 430zM383 514q0 -145 45 -250l461 770q-10 2 -25 2h-24q-220 0 -344 -154q-113 -142 -113 -368zM504 125l553 924 q43 -39 73 -84q99 -147 99 -349q0 -228 -129 -385q-138 -168 -363 -168q-111 0 -184 37zM686 96q12 -2 25 -2h26q212 0 341 158q120 148 120 364q0 142 -49 252zM1014 1294l2 9q-2 -3 -2 -9z" />
<glyph unicode="&#xd9;" horiz-adv-x="1342" d="M6 596q0 162 105 319q41 50 69 86l43 56l-35 35v2l-102 100q53 66 90 66h258q10 0 43 -11l23 -28v-52q-2 -2 -7.5 -6t-7.5 -6h52q10 0 43 -10l22 -29v-51q-219 -209 -219 -573q0 -224 94 -344q8 -13 15 -19q54 -29 135 -33q114 6 172 54q7 4 82 100q94 121 94 344 q0 365 -217 573v17h-58l27 53v2h2v2q-3 3 -12 19q-7 8 -19 26h-100l27 53v2l2 3q-2 2 -13 18.5t-34 48.5q-38 28 -80 51l6 29q-47 41 -109 74l23 98h252l45 -102h57l55 -125q37 -84 107 -178h143q35 0 95 -66l-39 -37h47q35 0 94 -65l-143 -138q12 -16 37 -46q20 -23 65 -81 q119 -167 119 -333q0 -267 -146 -447q-164 -203 -438 -203h-20q-3 0 -9.5 1t-9.5 1t-10 -1t-10 -1h-19q-278 0 -440 203l-6 6q-49 38 -96 97q-144 182 -144 446zM37 596q0 -258 137 -428q154 -191 416 -191h18q11 1 20 1q10 0 19 -1h21q260 0 413 191q140 174 140 428 q0 159 -105 305q-32 40 -84 106l-39 50q0 6 25 30l112 109q-30 33 -51 33h-258q-12 0 -24 -4l-9 -15v-28q218 -209 218 -586q0 -231 -101 -363q-78 -102 -92 -110q-59 -49 -184 -55q-118 6 -183 55q-29 22 -96 110q-100 131 -100 363q0 377 219 586v28l-10 15q-13 4 -25 4 h-258q-22 0 -49 -33l113 -109q22 -21 22 -30l-123 -156q-102 -156 -102 -305zM432 1581q124 -66 209 -199q16 -25 16 -39l-10 -24h176q-71 87 -125 209l-47 106h-207zM625 1343h2v3z" />
<glyph unicode="&#xda;" horiz-adv-x="1342" d="M6 596q0 162 105 319q41 50 69 86l43 56l-35 35v2l-102 100q53 66 90 66h258q10 0 43 -11l23 -28v-4q34 43 51 71h-180q115 140 164 252l55 125h252l18 -78l-12 -24h96l19 -78l-17 -33q-70 -37 -115 -78h3q-41 -41 -86 -110h2q-12 -18 -13 -23v-2l21 -37v15l18 32 q28 11 45 11h258q35 0 95 -66l-39 -37h47q35 0 94 -65l-143 -138q12 -16 37 -46q20 -23 65 -81q119 -167 119 -333q0 -267 -146 -447q-164 -203 -438 -203h-20q-3 0 -9.5 1t-9.5 1t-10 -1t-10 -1h-19q-278 0 -440 203l-6 6q-49 38 -96 97q-144 182 -144 446zM37 596 q0 -258 137 -428q154 -191 416 -191h18q11 1 20 1q10 0 19 -1h21q260 0 413 191q140 174 140 428q0 159 -105 305q-32 40 -84 106l-39 50q0 6 25 30l112 109q-30 33 -51 33h-258q-12 0 -24 -4l-9 -15v-28q218 -209 218 -586q0 -231 -101 -363q-78 -102 -92 -110 q-59 -49 -184 -55q-118 6 -183 55q-29 22 -96 110q-100 131 -100 363q0 377 219 586v28l-10 15q-13 4 -25 4h-258q-22 0 -49 -33l113 -109q22 -21 22 -30l-123 -156q-102 -156 -102 -305zM383 494q0 -224 94 -344q8 -13 15 -19q54 -29 135 -33q114 6 172 54q7 4 82 100 q94 121 94 344q0 365 -217 573v17h-258v-17q-2 -2 -7.5 -6t-7.5 -6h52q10 0 43 -10l22 -29v-51q-219 -209 -219 -573zM438 1319h176l-10 24q0 13 17 39q60 90 88 117q36 34 120 82l-12 53h-207l-47 -106q-56 -127 -125 -209zM635 1341h2l-2 2v-2zM737 1239v2l2 -2h-2z" />
<glyph unicode="&#xdb;" horiz-adv-x="1342" d="M6 596q0 162 105 319q41 50 69 86l43 56l-35 35v2l-102 100q53 66 90 66h258q6 0 19 -5q9 9 28 25h-227q24 17 101 83q43 36 128 110q18 24 58 69l8 8q15 17 48 55q26 29 54 70q26 -35 63 -78q1 -1 2 0q0 1 9 -8q6 -8 23 -24q4 4 6 8q25 -35 62 -78q1 -1 2 0t9 -8 q49 -51 144 -158l55 -69h53q35 0 95 -66l-39 -37h47q35 0 94 -65l-143 -138q12 -16 37 -46q20 -23 65 -81q119 -167 119 -333q0 -267 -146 -447q-164 -203 -438 -203h-20q-3 0 -9.5 1t-9.5 1t-10 -1t-10 -1h-19q-278 0 -440 203l-6 6q-49 38 -96 97q-144 182 -144 446z M37 596q0 -258 137 -428q154 -191 416 -191h18q11 1 20 1q10 0 19 -1h21q260 0 413 191q140 174 140 428q0 159 -105 305q-32 40 -84 106l-39 50q0 6 25 30l112 109q-30 33 -51 33h-258q-12 0 -24 -4l-9 -15v-28q218 -209 218 -586q0 -231 -101 -363q-78 -102 -92 -110 q-59 -49 -184 -55q-118 6 -183 55q-29 22 -96 110q-100 131 -100 363q0 377 219 586v28l-10 15q-13 4 -25 4h-258q-22 0 -49 -33l113 -109q22 -21 22 -30l-123 -156q-102 -156 -102 -305zM342 1311h223l19 -6l-2 20l-2 10l-2 15q-2 15 -5 24q0 35 86 125l113 -139 q-14 -25 -20 -27l-27 -22h201q-36 51 -229 265q-35 38 -46 48q-40 -56 -78 -92q-22 -21 -65 -78q-103 -95 -166 -143zM383 494q0 -224 94 -344q8 -13 15 -19q61 -35 139 -33q105 2 168 54q7 4 82 100q94 121 94 344q0 365 -217 573v9h-15l15 12v27l18 32q28 11 45 11h13 q-7 6 -15 18h-2v2h-110v-2q0 -10 3 -25q1 -3 1 -6v4l2 -14v2l2 -6l6 -74l-57 19h-164v-9q-2 -2 -7.5 -6t-7.5 -6h52q10 0 43 -10l22 -29v-51q-219 -209 -219 -573z" />
<glyph unicode="&#xdc;" horiz-adv-x="1342" d="M6 596q0 162 105 319q41 50 69 86l43 56l-35 35v2l-102 100q53 66 90 66h258q10 0 43 -11l23 -28v-52q-2 -2 -7.5 -6t-7.5 -6h52q10 0 43 -10l22 -29v-51q-219 -209 -219 -573q0 -224 94 -344q8 -13 15 -19q54 -29 135 -33q114 6 172 54q7 4 82 100q94 121 94 344 q0 365 -217 573v48l18 32q2 0 3.5 1t4.5 1q-30 29 -36 76q-8 1 -21 4q-2 -106 -133 -106h-6q-117 0 -129 102q-94 12 -103 105q0 100 129 112q125 0 140 -102v-2q7 -1 20 -6q0 98 129 110q125 0 139 -102v-2q91 -17 103 -101v-4q0 -47 -29 -75h92q35 0 95 -66l-39 -37h47 q35 0 94 -65l-143 -138q12 -16 37 -46q20 -23 65 -81q119 -167 119 -333q0 -267 -146 -447q-164 -203 -438 -203h-20q-3 0 -9.5 1t-9.5 1t-10 -1t-10 -1h-19q-278 0 -440 203l-6 6q-49 38 -96 97q-144 182 -144 446zM37 596q0 -258 137 -428q154 -191 416 -191h18q11 1 20 1 q10 0 19 -1h21q260 0 413 191q140 174 140 428q0 159 -105 305q-32 40 -84 106l-39 50q0 6 25 30l112 109q-30 33 -51 33h-258q-12 0 -24 -4l-9 -15v-28q218 -209 218 -586q0 -231 -101 -363q-78 -102 -92 -110q-59 -49 -184 -55q-118 6 -183 55q-29 22 -96 110 q-100 131 -100 363q0 377 219 586v28l-10 15q-13 4 -25 4h-258q-22 0 -49 -33l113 -109q22 -21 22 -30l-123 -156q-102 -156 -102 -305zM387 1436q10 -81 105 -78q102 3 102 80q-13 79 -107 75q-100 -4 -100 -77zM676 1436q10 -81 104 -78q103 3 103 80q-14 79 -107 75 q-100 -4 -100 -77z" />
<glyph unicode="&#xdd;" horiz-adv-x="1389" d="M-23 1266h451q25 0 90 -66q-15 -12 -45 -37h57q25 0 91 -65q-84 -66 -84 -97q0 -87 170 -403l147 213q137 203 145 262q0 4 -2 6q-23 15 -67 47l26 4q-23 19 -67 56q-78 -40 -153 -65l-21 -7q-22 -3 -63 -13q0 -1 -5 -3q0 67 66 155q-20 -8 -62 -22q-17 -9 -38.5 -13.5 t-62.5 -14.5q0 -1 -5 -3q0 77 89 185q77 93 157 141q16 10 36 16q44 0 78.5 -30t38.5 -74q42 -4 72.5 -35t30.5 -72v-2q-5 -49 -37 -67q-4 -5 -6 -5h270l24 -49q-11 -18 -36 -53h114l25 -49q-224 -321 -508 -778l-358 -576q-7 -6 -9 -10q13 -15 23 -53q8 -3 26 -11l-4 3 q60 -15 80 -97l-426 -8l66 107l-168 -5l403 644l-350 663q-27 39 -82 117q-29 41 -87 124q-17 23 -30 40zM37 1235q154 -220 164 -231l362 -685l-383 -608l328 6q-6 27 -45 35q-20 6 -57 21q-9 6 -29 14q-8 6 -8 14q0 11 37 70l358 575q280 449 510 781h-297l-70 -15 q117 -77 123 -139q-6 -68 -151 -278l-199 -289q-277 481 -277 598q0 45 68 98q-33 33 -43 33h-391zM575 1239q63 20 68 21q107 32 246 129q23 13 24 45t-24.5 54.5t-57.5 22.5q-31 -9 -53 -28q-203 -169 -203 -244z" />
<glyph unicode="&#xde;" horiz-adv-x="1127" d="M-31 981q93 148 203 190q51 20 223 56v-127q41 12 103 24v-149h127q173 0 288 -103q33 -29 62 -71q19 -12 41 -31q123 -110 123 -291q0 -183 -121 -290q-116 -103 -301 -103h-219v-18q0 -68 2 -72q14 -38 94 -129h-428l72 102h-175q64 86 82 121l7 82v727q-13 -3 -80 -20 q37 57 78 102q-7 31 -41 31q-23 0 -140 -31zM37 1030q45 12 72 12q73 0 73 -73l-6 -881q-8 -33 -51 -88h299q-41 47 -51 78q-8 18 -8 92v49h249q173 0 280 94q112 99 112 269q0 169 -113 268q-107 94 -279 94h-249v244q-65 -13 -183 -45q-99 -37 -145 -113zM145 92l2 4 q0 -2 -2 -2v-2zM365 299v567h249q110 0 168 -91q49 -77 49 -193q0 -117 -49 -193q-57 -90 -168 -90h-249zM498 330h116q96 0 146 82q41 67 41 170q0 85 -27 141q-31 10 -57 10h-219v-403z" />
<glyph unicode="&#xdf;" horiz-adv-x="1131" d="M4 932v12q0 119 53 207q-4 6 -4 23q0 35 144 94q177 73 233 73q151 0 242 -102q11 -12 37 -47q35 -22 65 -55q90 -98 90 -246q0 -115 -102 -219l-76 -64q24 -13 72 -41q139 -82 209 -176q176 -139 176 -307q0 -156 -125 -244q-79 -55 -150 -76q-41 -12 -133 -12 q-168 0 -278 86q-29 23 -49 68q-27 14 -54 35v-54l-245 -217v193l-103 -90v1142q0 3 -1 8.5t-1 8.5zM35 944q0 -5 1 -14.5t1 -14.5v-1075l184 164v916q0 91 41 170q48 92 125 92q67 0 107 -78q32 -62 32 -135q0 -146 -196 -246q0 -106 123 -191q16 -11 143 -98l86 -59 q123 -86 123 -215q0 -71 -46 -118.5t-116 -47.5q-67 0 -119 53q-24 25 -24 64v71l-209 47q0 -178 81.5 -261t260.5 -83q87 0 125 11q65 19 139 71q113 79 113 219q0 195 -269 355q-213 126 -231 151l139 115q82 84 82 186q0 137 -81 226q-84 92 -220 92q-42 0 -221 -72 q-125 -50 -125 -65q0 -9 25 -9q-74 -90 -74 -221zM354 246l176 -39v-80l103 -23v-79h10q57 0 94 39t37 96q0 55 -26 100q-33 23 -86 59q-39 27 -125 87q-69 48 -99 98l-4 4q-49 33 -80 74v-336zM354 772q142 88 142 197q0 39 -13 80q-62 -6 -99 -91q-30 -69 -30 -141v-45z " />
<glyph unicode="&#xe0;" d="M6 205q0 215 180 270l-22 43q69 64 147 96q-99 -5 -225 -39l-25 46q144 133 345 133q25 0 55 -4l18 41l2 2v-2q-4 7 -12 22h2q-12 16 -16 25h-105l27 53v2h2v2l-2 -2h2q-4 7 -12 22h2l-33 48q-29 18 -86 53l8 31q-49 39 -111 71l27 96h250l43 -102h59l54 -125 q45 -105 165 -252h-198q44 -11 71 -20q62 -31 76 -94q9 -5 27 -9q80 -37 80 -133v-477q1 -2 6 -4q18 -55 76 -72l-9 -59h-212q-45 0 -70 45q-4 6 -4 10q-103 -63 -189 -63q-119 0 -198 57q-49 36 -72 84q-12 5 -31 18q-92 64 -92 187zM37 205q0 -105 80 -162q72 -51 180 -51 q96 0 215 88q-4 -12 -6 -17q-4 -10 10 -32q19 -31 43 -31h205q-62 14 -86 84q-10 13 -10 16v482q0 75 -68 106q-104 35 -194 35q-189 0 -314 -115q137 37 230 37q106 0 190 -47q-29 -54 -94 -84q-42 -19 -205 -63q-176 -47 -176 -246zM182 1133q83 -49 120.5 -84.5 t90.5 -116.5q17 -26 17 -39l-11 -25h176q-77 96 -126 209l-46 107h-206zM209 252q0 93 57 131q8 5 137 51q61 21 109 72v-318q-90 -71 -172 -71q-131 0 -131 135zM342 147q62 0 139 56v88q-40 -13 -96 -37v2q-43 -31 -43 -106v-3zM426 410q33 8 55 18v10q-31 -18 -55 -28z " />
<glyph unicode="&#xe1;" d="M6 205q0 215 180 270l-22 43q69 64 147 96q-99 -5 -225 -39l-25 46q89 84 201 114h-45q45 56 78 103h-180q121 146 166 252l53 124h250l20 -73l-12 -29h94l21 -74l-15 -34q-78 -46 -112 -80q-49 -49 -88 -111h2q-5 -6 -13 -20q4 -5 8 -15l11 -33q49 -7 118 -30 q62 -31 76 -94q9 -5 27 -9q80 -37 80 -133v-477q1 -2 6 -4q18 -55 76 -72l-9 -59h-212q-45 0 -70 45q-4 6 -4 10q-103 -63 -189 -63q-119 0 -198 57q-49 36 -72 84q-12 5 -31 18q-92 64 -92 187zM37 205q0 -105 80 -162q72 -51 180 -51q96 0 215 88q-4 -12 -6 -17 q-4 -10 10 -32q19 -31 43 -31h205q-62 14 -86 84q-10 13 -10 16v482q0 75 -68 106q-104 35 -194 35q-189 0 -314 -115q137 37 230 37q106 0 190 -47q-29 -54 -94 -84q-42 -19 -205 -63q-176 -47 -176 -246zM182 868h176l-10 25q0 13 17 39q51 79 91 117t119 84l-14 51h-207 l-45 -107q-46 -110 -127 -209zM209 252q0 93 57 131q8 5 137 51q61 21 109 72v-318q-90 -71 -172 -71q-131 0 -131 135zM342 147q62 0 139 56v88q-40 -13 -96 -37v2q-43 -31 -43 -106v-3zM426 410q33 8 55 18v10q-31 -18 -55 -28zM472 812q0 -4 5 -11l-4 12q-1 0 -1 -1z" />
<glyph unicode="&#xe2;" d="M-8 848q115 83 239 199l-4 -3q31 39 70 78v-2q51 59 96 121q27 -27 99 -106l4 4q42 -47 104 -113v2q21 -23 64 -70q80 -85 167 -213h-333q44 -6 120 -30q62 -31 76 -94q9 -5 27 -9q80 -37 80 -133v-477q1 -2 6 -4q18 -55 76 -72l-9 -59h-212q-45 0 -70 45q-4 6 -4 10 q-103 -63 -189 -63q-119 0 -198 57q-49 36 -72 84q-12 5 -31 18q-92 64 -92 187q0 215 180 270l-22 43q69 64 147 96q-99 -5 -225 -39l-25 46q107 100 246 124h-213q86 62 131 103h-233zM37 205q0 -105 80 -162q72 -51 180 -51q96 0 215 88q-4 -12 -6 -17q-4 -10 10 -32 q19 -31 43 -31h205q-62 14 -86 84q-10 13 -10 16v482q0 75 -68 106q-104 35 -194 35q-189 0 -314 -115q137 37 230 37q106 0 190 -47q-29 -54 -94 -84q-42 -19 -205 -63q-176 -47 -176 -246zM86 879h223q5 -3 21 -7l-2 21l-2 10l-7 39q0 35 87 125l110 -139q-14 -24 -20 -29 l-27 -20h203q-52 76 -133 161q-46 54 -144 154q-40 -54 -76 -94q-23 -24 -67 -76q-94 -90 -166 -145zM209 252q0 93 57 131q8 5 137 51q61 21 109 72v-318q-90 -71 -172 -71q-131 0 -131 135zM342 147q62 0 139 56v88q-40 -13 -96 -37v2q-43 -31 -43 -106v-3zM426 410 q33 8 55 18v10q-31 -18 -55 -28zM453 844l6 -37l2 -6l4 -51q3 0 9 -1t9 -1l99 75q-9 9 -21 25h-108v-4z" />
<glyph unicode="&#xe3;" horiz-adv-x="877" d="M-66 872q75 76 199 179h-2q67 39 135 39q23 0 41 -5l88 -24l97 -43q61 -6 92 -6h20q20 5 125 37l31 -50q-31 -32 -96 -90h43q19 5 124 37l31 -49q-76 -82 -123 -109h2q-57 -34 -123 -34q-28 0 -53 6l-59 14q-44 21 -133 53q-26 4 -47 4q-24 0 -54 -4h2l-237 -57 q92 93 176 164q-14 -1 -43 -4h2zM12 205q0 211 181 270l-23 43q74 66 152 96q-100 -5 -230 -39l-24 46q149 133 346 133q87 0 213 -39q61 -31 75 -94q13 -5 27 -9q80 -37 80 -133v-479q2 0 4 -2q18 -55 76 -72l-8 -59h-213q-41 0 -68 45h2q-2 4 -8 10q-100 -63 -188 -63 q-120 0 -197 57q-50 37 -74 84q-16 6 -29 18q-94 68 -94 187zM37 930l129 31q28 4 57 4q27 0 51 -4q39 -10 138 -54l63 -16q20 -5 41 -5q51 0 107 32q44 26 114 102q-125 -39 -134 -39.5t-22 -0.5q-38 0 -98 9l-108 47l-66 19q-86 14 -162 -31q-39 -23 -110 -94zM43 205 q0 -104 82 -162q72 -51 178 -51q96 0 215 88q-2 -6 -6 -17q-3 -9 12 -32q20 -31 41 -31h205q-61 14 -86 84q-8 10 -8 16v482q0 75 -68 106q-104 35 -194 35q-189 0 -316 -115q138 37 230 37q106 0 190 -47q-30 -54 -92 -84q-34 -16 -205 -63q-178 -49 -178 -246zM215 252 q0 90 59 131q65 24 129 48q73 29 115 75v-318q-90 -71 -172 -71q-131 0 -131 135zM348 147q64 0 139 56v88q-39 -13 -94 -37v2q-45 -33 -45 -106v-3zM440 412q30 9 47 16v10q-13 -10 -47 -26z" />
<glyph unicode="&#xe4;" d="M6 205q0 215 180 270l-22 43q69 64 147 96q-99 -5 -225 -39l-25 46q144 133 345 133q88 0 212 -39q62 -31 76 -94q9 -5 27 -9q80 -37 80 -133v-477q1 -2 6 -4q18 -55 76 -72l-9 -59h-212q-45 0 -70 45q-4 6 -4 10q-103 -63 -189 -63q-119 0 -198 57q-49 36 -72 84 q-12 5 -31 18q-92 64 -92 187zM37 205q0 -105 80 -162q72 -51 180 -51q96 0 215 88q-4 -12 -6 -17q-4 -10 10 -32q19 -31 43 -31h205q-62 14 -86 84q-10 13 -10 16v482q0 75 -68 106q-104 35 -194 35q-189 0 -314 -115q137 37 230 37q106 0 190 -47q-29 -54 -94 -84 q-42 -19 -205 -63q-176 -47 -176 -246zM100 977q0 100 131 113q121 0 138 -105q7 -2 22 -6q0 98 129 111q121 0 137 -105q91 -16 103 -102v-4q0 -109 -133 -109h-6q-115 0 -127 102q-9 0 -23 5q0 -107 -133 -107h-6q-117 0 -129 102q-94 13 -103 105zM131 981 q10 -81 105 -78q102 3 102 78q-12 78 -105 78q-102 -10 -102 -78zM209 252q0 93 57 131q8 5 137 51q61 21 109 72v-318q-90 -71 -172 -71q-131 0 -131 135zM342 147q62 0 139 56v88q-40 -13 -96 -37v2q-43 -31 -43 -106v-3zM422 981q10 -81 102 -78q103 3 103 78 q-14 82 -105 78q-100 -4 -100 -78zM426 410q33 8 55 18v10q-31 -18 -55 -28z" />
<glyph unicode="&#xe5;" d="M6 205q0 215 180 270l-22 43q69 64 147 96q-99 -5 -225 -39l-25 46q144 133 345 133q88 0 212 -39q62 -31 76 -94q9 -5 27 -9q80 -37 80 -133v-477q1 -2 6 -4q18 -55 76 -72l-9 -59h-212q-45 0 -70 45q-4 6 -4 10q-103 -63 -189 -63q-119 0 -198 57q-49 36 -72 84 q-12 5 -31 18q-92 64 -92 187zM37 205q0 -105 80 -162q72 -51 180 -51q96 0 215 88q-4 -12 -6 -17q-4 -10 10 -32q19 -31 43 -31h205q-62 14 -86 84q-10 13 -10 16v482q0 75 -68 106q-104 35 -194 35q-189 0 -314 -115q137 37 230 37q106 0 190 -47q-29 -54 -94 -84 q-42 -19 -205 -63q-176 -47 -176 -246zM209 252q0 93 57 131q8 5 137 51q61 21 109 72v-318q-90 -71 -172 -71q-131 0 -131 135zM342 147q62 0 139 56v88q-40 -13 -96 -37v2q-43 -31 -43 -106v-3zM426 410q33 8 55 18v10q-31 -18 -55 -28z" />
<glyph unicode="&#xe6;" horiz-adv-x="1374" d="M6 205q0 215 180 270l-22 43q69 64 147 96q-99 -5 -225 -39l-25 46q144 133 345 133q96 0 204 -37q32 -15 54 -35q92 55 217 55q197 0 282 -147q17 -8 43 -29q72 -59 133 -229l-516 -92q4 -66 31 -115q39 -19 92 -19q86 0 164 52v-2q76 51 119 131l55 -25 q-61 -178 -180 -254q57 12 108 47v-2q76 51 119 131l55 -24q-106 -312 -395 -312q-117 0 -219 66q-7 -5 -22 -14q-19 -13 -19 2l-8 22q-6 6 -18 6h2q0 -2 2 -2v-61h-47q-49 0 -74 55q-103 -63 -189 -63q-119 0 -198 57q-49 36 -72 84q-12 5 -31 18q-92 64 -92 187zM37 205 q0 -105 80 -162q72 -51 180 -51q96 0 215 88q-4 -12 -6 -17q-4 -19 14.5 -41t38.5 -22h47l-8 4q0 3 32 24q36 23 40 27q98 -73 219 -73q266 0 366 290q-48 -88 -129 -141q-84 -55 -180 -55q-114 0 -185 87t-71 199v7l506 90q-89 248 -315 248q-133 0 -226 -68q-17 36 -55 49 q-98 35 -194 35q-189 0 -314 -115q137 37 230 37q106 0 190 -47q-29 -54 -94 -84q-42 -19 -205 -63q-176 -47 -176 -246zM209 252q0 93 57 131q8 5 137 51q61 21 109 72v-318q-90 -71 -172 -71q-131 0 -131 135zM342 147q62 0 139 56v88q-40 -13 -96 -37v2q-43 -31 -43 -106 v-3zM426 410q33 8 55 18v10q-31 -18 -55 -28zM684 354l2 13h2q-4 -9 -4 -13zM686 451q16 33 45 100q41 66 125 78q56 8 106 -25t62 -88zM782 246l6 -13l13 11z" />
<glyph unicode="&#xe7;" horiz-adv-x="838" d="M6 375q0 167 135 270q121 92 285 92q74 0 172 -39q129 -51 135 -116q103 -50 103 -109q0 -33 -78 -84h2q-48 -36 -156 -80q33 80 33 103q0 26 -25 49q-24 -12 -53 -24l-57 -25q18 47 28 84h-12q-85 0 -133 -78q-43 -70 -43 -168q0 -72 27 -123q43 -21 100 -21 q35 0 104 27h-2q76 33 123 92l54 -28q-50 -123 -134 -187q14 4 62 21h-2q76 32 123 92l53 -29q-64 -170 -201 -223q7 -4 39 -39q78 -85 78 -121q0 -18 -6 -37q-43 -133 -303 -133q-39 0 -88 25q-68 35 -68 86v2q-20 7 -35 14q-67 33 -67 86v17q0 11 1 31.5t1 31.5v16 q78 -94 127 -94q69 0 104 51h-2q0 3 1 4t1 3q-13 10 -39 26v23q-105 28 -176 100q-20 20 -43 53q-35 25 -59 50q-109 114 -109 309zM37 375q0 -182 100 -287q74 -78 191 -98q-6 -23 -6 -33l18 -13q14 -9 53 -38q72 -53 72 -84q0 -19 -8 -31q-42 -65 -129 -65q-62 0 -97 41 q-1 -6 -1 -12q0 -34 51 -60q41 -21 73 -21q238 0 275 113q4 12 4 27q0 23 -70 100q-44 49 -57 49q-10 0 -10 -14q0 6 7 22.5t11 16.5v6q139 41 205 213q-56 -70 -135 -103q-67 -28 -115 -28q-114 0 -188 82q-72 79 -72 194q0 108 47 185q56 92 160 92q55 0 99 -29 q50 -34 50 -86q0 -20 -10 -47q29 11 84 49q63 44 63 59q0 50 -114 95q-94 37 -162 37q-156 0 -266 -86q-123 -96 -123 -246z" />
<glyph unicode="&#xe8;" horiz-adv-x="891" d="M6 344q0 181 106 287t287 106q140 0 224 -73q30 -26 59 -74q19 -10 43 -29q72 -59 133 -229l-516 -94q2 -62 29 -113q43 -19 94 -19q86 0 164 52v-2q73 53 116 131l56 -25q-62 -178 -180 -254q59 12 110 47v-2q74 53 117 131l55 -24q-106 -312 -393 -312q-168 0 -285 113 q-27 26 -51 59q-27 19 -51 43q-117 116 -117 281zM37 344q0 -153 107.5 -257.5t263.5 -104.5q264 0 364 290q-105 -196 -307 -196q-118 0 -189 86q-67 80 -67 200v13q-1 -7 -6 -21l2 13l510 92q-89 248 -316 248q-166 0 -264 -98t-98 -265zM170 1118l25 96h251l46 -102h57 l55 -125q49 -112 164 -252h-289q15 35 20 46l5 10q0 6 -10 22h2q-13 16 -17 25h-102q14 34 19 45l5 10q0 6 -10 22h2q-10 16 -33 48q-30 17 -88 53l9 31q-40 30 -111 71zM205 451q16 33 45 100q41 66 125 78q56 8 104.5 -25t61.5 -88zM207 1133q83 -49 121 -84.5t90 -116.5 q14 -22 14 -39q0 -6 -8 -25h174q-70 83 -125 209l-47 107h-207z" />
<glyph unicode="&#xe9;" horiz-adv-x="891" d="M6 344q0 165 91.5 271t254.5 120h-110q45 56 77 103h-180q119 141 166 252l53 124h252l19 -73l-15 -29h99l18 -74l-16 -34q-76 -41 -115 -80h2q-41 -41 -86 -111h2q-4 -7 -12 -20q8 -13 22 -58h-84q113 -13 179 -71q31 -27 59 -74q19 -10 43 -29q72 -59 133 -229 l-516 -94q2 -62 29 -113q43 -19 94 -19q86 0 164 52v-2q73 53 116 131l56 -25q-62 -178 -180 -254q59 12 110 47v-2q74 53 117 131l55 -24q-106 -312 -393 -312q-168 0 -285 113q-27 26 -51 59q-27 19 -51 43q-117 116 -117 281zM37 344q0 -153 107.5 -257.5t263.5 -104.5 q264 0 364 290q-105 -196 -307 -196q-118 0 -189 86q-67 80 -67 200v13q-1 -7 -6 -21l2 13l510 92q-89 248 -316 248q-166 0 -264 -98t-98 -265zM205 451q16 33 45 100q41 66 125 78q56 8 104.5 -25t61.5 -88zM207 868h176l-10 25q0 14 16 39q56 87 88 117q42 40 121 84 l-12 51h-207l-45 -107q-46 -110 -127 -209zM497 812q0 -4 5 -11l-4 12q-1 0 -1 -1z" />
<glyph unicode="&#xea;" horiz-adv-x="891" d="M6 344q0 181 106 287t287 106q140 0 224 -73q30 -26 59 -74q19 -10 43 -29q72 -59 133 -229l-516 -94q2 -62 29 -113q43 -19 94 -19q86 0 164 52v-2q73 53 116 131l56 -25q-62 -178 -180 -254q59 12 110 47v-2q74 53 117 131l55 -24q-106 -312 -393 -312q-168 0 -285 113 q-27 26 -51 59q-27 19 -51 43q-117 116 -117 281zM16 848q120 86 240 199l-4 -3q23 22 60 69q3 5 7 9v-2q55 60 99 123q18 -24 98 -108q1 3 4 6q55 -61 166 -183q84 -90 168 -213h-348l98 76q-5 8 -16 25h-2v2h-111v-4l6 -37l2 -6l6 -70q-23 3 -63 14h-307q75 55 131 103 h-234zM37 344q0 -153 107.5 -257.5t263.5 -104.5q264 0 364 290q-105 -196 -307 -196q-118 0 -189 86q-67 80 -67 200v13q-1 -7 -6 -21l2 13l510 92q-89 248 -316 248q-166 0 -264 -98t-98 -265zM111 879h223q2 -5 18 -7l-2 21l-2 10l-6 39q0 35 86 125l76 -94 q28 -35 37 -45q-14 -24 -21 -29l-26 -20h200q-45 68 -133 161q-121 128 -141 154q-42 -57 -78 -94q-31 -32 -66 -76q-87 -84 -165 -145zM205 451q16 33 45 100q41 66 125 78q56 8 104.5 -25t61.5 -88z" />
<glyph unicode="&#xeb;" horiz-adv-x="891" d="M6 344q0 181 106 287t287 106q140 0 224 -73q30 -26 59 -74q19 -10 43 -29q72 -59 133 -229l-516 -94q2 -62 29 -113q43 -19 94 -19q86 0 164 52v-2q73 53 116 131l56 -25q-62 -178 -180 -254q59 12 110 47v-2q74 53 117 131l55 -24q-106 -312 -393 -312q-168 0 -285 113 q-27 26 -51 59q-27 19 -51 43q-117 116 -117 281zM37 344q0 -153 107.5 -257.5t263.5 -104.5q264 0 364 290q-105 -196 -307 -196q-118 0 -189 86q-67 80 -67 200v13q-1 -7 -6 -21l2 13l510 92q-89 248 -316 248q-166 0 -264 -98t-98 -265zM125 977q-4 100 129 113 q123 0 139 -105q7 -1 21 -6q0 98 131 111q121 0 137 -105q90 -16 102 -102v-4q0 -109 -133 -109h-6q-117 0 -129 102q-7 0 -20 5q0 -107 -134 -107h-6q-116 0 -129 102q-98 14 -102 105zM156 981q10 -81 104 -78q102 3 102 78q-13 82 -106 78q-100 -4 -100 -78zM205 451 q16 33 45 100q41 66 125 78q56 8 104.5 -25t61.5 -88zM444 981q11 -81 105 -78q102 3 102 78q-12 78 -104 78q-103 -10 -103 -78z" />
<glyph unicode="&#xec;" horiz-adv-x="584" d="M-16 719h397v-103h102v-618q0 -16 2 -23l7 -6h-5q0 -2 2 -4l105 -98h-438l98 98v-2q1 3 4 6h-205l99 99v-2q12 14 12 34v428q-29 25 -68 74h-2v2l2 -2q-35 22 -112 117zM0 1118l25 96h251l43 -102h60l53 -125q52 -122 164 -252h-289q15 35 20 46l5 10q0 5 -20 33 q-5 7 -9 14h-98q14 34 19 45l5 10q0 -1 -27 45q-14 25 -56 53q-21 13 -44 25l7 26q-43 40 -109 76zM37 1133q126 -72 209 -201q14 -22 14 -39q0 -6 -8 -25h176q-76 88 -127 209l-45 107h-207zM51 688q41 -49 62 -59q8 -6 39 -17q43 -22 43 -82v-430q0 -34 -21 -55l-45 -45 h285q-56 51 -58 63q-6 13 -6 37v588h-299z" />
<glyph unicode="&#xed;" horiz-adv-x="582" d="M-31 838q110 130 164 252l55 124h252l19 -73l-15 -29h99l18 -74l-16 -34q-74 -40 -115 -80q-33 -32 -84 -111q-10 -15 -10 -22l2 -3l27 -53h-293q45 56 78 103h-181zM-16 719h397v-103h102v-618q0 -16 2 -23l7 -6h-5q0 -2 2 -4l105 -98h-438l98 98v-2q1 3 4 6h-205l99 99 v-2q12 14 12 34v428q-29 25 -68 74h-2v2l2 -2q-35 22 -112 117zM37 868h176l-10 25q0 17 14 39q79 126 211 201l-12 51h-207l-47 -107q-55 -126 -125 -209zM51 688q41 -49 62 -59q8 -6 39 -17q43 -22 43 -82v-430q0 -34 -21 -55l-45 -45h285q-56 51 -58 63q-6 13 -6 37v588 h-299z" />
<glyph unicode="&#xee;" horiz-adv-x="766" d="M-57 848q120 84 237 199l-4 -3q22 27 68 78v-2q60 70 98 123q35 -44 98 -110q2 2 2 4t2 4q22 -27 166 -183q89 -97 168 -213h-348l100 80q-11 11 -20 23h-111v-4l7 -37l2 -6l6 -70q-23 4 -64 14h-305q55 39 133 103h-235zM37 879h221q2 -5 18 -7l-2 21l-2 10l-6 39 q0 35 86 125l115 -139q-7 -11 -23 -29l-26 -20h200q-44 66 -133 161q-113 121 -141 154q-33 -48 -78 -94q-34 -35 -65 -76q-53 -51 -164 -145zM78 719h397v-103h103v-618q0 -18 2 -25l4 -4h-2q0 -2 2 -4q5 0 10 1q12 -12 47.5 -51t44.5 -48h-436l98 96q4 4 4 6h-205l99 94 q12 15 12 37v432l-29 32q-16 16 -39 40q-33 22 -112 115zM145 688q43 -49 64 -59q8 -6 39 -17q41 -22 41 -82v-430q0 -30 -19 -55l-47 -45h285q-55 55 -57 63q-7 13 -7 37v588h-299z" />
<glyph unicode="&#xef;" horiz-adv-x="652" d="M6 977q-4 100 129 113q121 0 137 -105q8 -2 23 -6q0 98 129 111q121 0 137 -105q90 -16 103 -102v-4q0 -109 -134 -109h-6q-114 0 -127 102q-8 0 -22 5q0 -107 -133 -107h-6q-115 0 -127 102q-99 14 -103 105zM35 719h397v-103h103v-618q0 -16 2 -23l6 -6h-4q0 -2 2 -4 l104 -98h-438l98 98v-2q1 3 4 6h-205l99 99v-2q12 14 12 34v428q-29 25 -68 74h-2v2l2 -2q-35 22 -112 117zM37 981q10 -81 102 -78q103 3 103 78q-14 82 -105 78q-100 -4 -100 -78zM102 688q41 -49 62 -59q8 -6 39 -17q43 -22 43 -82v-430q0 -34 -21 -55l-45 -45h285 q-55 51 -57 63q-7 13 -7 37v588h-299zM326 981q10 -82 102 -78q102 4 102 78q-13 82 -104 78q-100 -4 -100 -78z" />
<glyph unicode="&#xf0;" horiz-adv-x="1065" d="M-61 1221l380 -11q273 -8 431 -196q41 8 73 22l-4 -4q40 30 109 82l47 -37q-19 -41 -62 -116q-11 -15 -34 -43q14 4 25 8l22 8l-4 -4q38 29 108 82l47 -37q-18 -41 -61 -117q-32 -47 -80 -78q70 -142 70 -307q0 -39 -5 -74v-6q-22 -230 -129 -370q-128 -168 -337 -168 h-17q-186 0 -309 168q-56 39 -103 104q-88 121 -88 248q0 170 111 268q58 51 133 76q38 81 103 192q-29 -13 -84 -41q-37 99 -66 121l-37 -18q-8 22 -26 65l-111 80l41 -2zM37 1188l90 -66q42 -31 68 -106q108 59 192 59q119 0 186 -94l-43 -4q-77 -7 -141 -84 q-31 -37 -72 -127l111 74q87 41 145 41h23q14 0 29 -2q43 -127 43 -281q0 -49 -4 -94q-39 -439 -238 -436q-108 1 -160 102q-44 84 -33 197q8 90 56 161q57 85 147 82q45 -1 103 -45q75 -56 86 -155q8 34 8 73q0 101 -64 160q-68 61 -166 64q-152 4 -253 -86t-101 -246 q0 -117 82 -230q110 -151 287 -157q206 -6 327 155q101 135 123 355q4 40 4 77q0 177 -77 320q56 25 94 82q27 41 57 113q-43 -29 -110 -82q-37 -19 -99 -27q-148 191 -418 199zM319 731q37 6 74 6h10q3 0 9.5 -1t9.5 -1q32 58 45 74q6 7 18 22l-43 -18l2 2zM365 223 q0 -63 22 -121q20 -4 39 -4h2q145 0 190 297l-24 2q-2 33 -16 68q-23 10 -39 12h-7q-70 0 -114 -67q-40 -61 -51 -150q-2 -16 -2 -20v-17zM535 705q67 -37 102 -103q0 54 -10 139q-41 -12 -82 -30l2 2z" />
<glyph unicode="&#xf1;" horiz-adv-x="932" d="M-39 -43l100 98q13 13 13 31v489q0 25 -113 134h330v-35q100 47 221 47q160 0 262 -148q68 -41 121 -129q29 -75 29 -172q0 -77 -76 -237v-10q2 -13 61 -68l35 -102h-340l2 102h-104l2 109q82 149 82 311q0 41 -11 82q-24 6 -55 6q-36 0 -90 -35q-37 -24 -37 -27v-378 q0 -19 10 -33l-6 4l70 -47l16 -94h-420l101 98q1 4 4 4h-207zM-14 872q66 66 200 179h-2q67 39 135 39q22 0 41 -5l89 -24l96 -43q61 -6 92 -6h20q20 5 125 37l31 -50q-31 -32 -96 -90h43q20 5 125 37l30 -49q-75 -82 -122 -109h2q-58 -34 -123 -34q-29 0 -54 6l-59 14 q-48 23 -133 53q-19 4 -47 4q-25 0 -57 -4h4l-238 -57q58 57 178 164q-16 -1 -47 -4h4zM37 -12h307l-8 47l-57 39q-19 20 -19 53v379q0 21 51 53q62 39 107 39q198 0 198 -221q0 -170 -81 -320l-3 -69h267l-19 55q-65 61 -65 86l2 18q74 156 74 228q0 88 -25 153 q-98 162 -254 162q-141 0 -252 -67v55h-223q67 -66 67 -103v-489q0 -34 -20 -53zM88 930l129 31q32 4 59 4q26 0 52 -4q45 -12 137 -54l63 -16q20 -5 41 -5q51 0 107 32q44 26 115 102q-125 -39 -134.5 -39.5t-22.5 -0.5q-38 0 -97 9l-109 47l-66 19q-85 13 -161 -31 q-41 -24 -113 -94z" />
<glyph unicode="&#xf2;" horiz-adv-x="936" d="M6 344q0 186 119 293q111 100 301 100q182 0 297 -104q33 -29 61 -72q14 -10 41 -31q123 -108 123 -288q0 -181 -123 -291q-115 -103 -297 -103t-299 105q-39 35 -61 70q-14 10 -41 32q-121 110 -121 289zM37 344q0 -169 111 -268q107 -94 278 -94t276 94 q113 101 113 268q0 166 -113 266q-110 97 -276 97q-177 0 -280 -92q-109 -96 -109 -271zM193 1118q38 -21 110 -69l-8 -33q27 -16 80 -47q7 -8 37 -54q4 -7 12 -22h-2l2 2v-2h-2v-2l-27 -53h103q4 -7 8 -13l8 -12q4 -7 12 -22h-2l2 2v-2h-2v-3l-26 -53h293 q-111 133 -164 252l-56 125h-57l-45 102h-252zM209 344q0 116 49 194q58 91 168 91q107 0 166 -92q49 -76 49 -193q0 -114 -49 -192q-58 -93 -166 -93q-113 0 -170 97q-47 79 -47 188zM229 1133q79 -44 121 -84q35 -33 88 -117q17 -27 17 -39l-11 -25h177q-70 83 -125 209 l-47 107h-207zM342 242q0 -84 27 -144q22 -8 57 -8q94 0 143 84q41 70 41 170q0 84 -26 143q-25 9 -56 9q-90 0 -141 -78q-45 -69 -45 -176z" />
<glyph unicode="&#xf3;" horiz-adv-x="936" d="M6 344q0 184 119 293q94 86 246 98h-107q45 56 78 103h-180q112 135 164 252l55 124h252l18 -73l-14 -29h98l19 -74l-17 -34q-75 -41 -114 -80h2q-41 -41 -86 -111h2q-12 -17 -13 -22v-3l29 -53h-80q150 -16 246 -102q32 -29 61 -72q14 -10 41 -31q123 -108 123 -288 q0 -181 -123 -291q-115 -103 -297 -103t-299 105q-39 35 -61 70q-14 10 -41 32q-121 110 -121 289zM37 344q0 -169 111 -268q107 -94 278 -94t276 94q113 101 113 268q0 166 -113 266q-110 97 -276 97q-177 0 -280 -92q-109 -96 -109 -271zM209 344q0 116 49 194 q58 91 168 91q107 0 166 -92q49 -76 49 -193q0 -114 -49 -192q-58 -93 -166 -93q-113 0 -170 97q-47 79 -47 188zM229 868h177l-11 25q0 13 17 39q57 88 88 117q40 39 121 84l-13 51h-207l-47 -107q-55 -126 -125 -209zM342 242q0 -84 27 -144q22 -8 57 -8q94 0 143 84 q41 70 41 170q0 84 -26 143q-25 9 -56 9q-90 0 -141 -78q-45 -69 -45 -176zM426 891h2l-2 2v-2zM528 788v3l2 -3h-2z" />
<glyph unicode="&#xf4;" horiz-adv-x="936" d="M6 344q0 186 119 293q111 100 301 100q182 0 297 -104q33 -29 61 -72q14 -10 41 -31q123 -108 123 -288q0 -181 -123 -291q-115 -103 -297 -103t-299 105q-39 35 -61 70q-14 10 -41 32q-121 110 -121 289zM37 344q0 -169 111 -268q107 -94 278 -94t276 94 q113 101 113 268q0 166 -113 266q-110 97 -276 97q-177 0 -280 -92q-109 -96 -109 -271zM39 848q109 78 240 199l-5 -3q38 48 68 78v-2l43 50q23 26 55 73q14 -19 99 -108q1 3 4 6q55 -62 166 -183q74 -79 168 -213h-357l107 76l-17 25h-2v2h-110v-4l6 -37l2 -6l6 -70 q-23 3 -63 14h-308q86 62 131 103h-233zM133 879h223q2 -5 19 -7l-2 21l-2 10l-6 39q0 35 86 125l112 -139q-14 -25 -20 -29l-29 -20h203q-52 75 -133 161q-120 127 -142 154q-29 -41 -77 -94q-21 -19 -66 -76q-94 -90 -166 -145zM209 344q0 116 49 194q58 91 168 91 q107 0 166 -92q49 -76 49 -193q0 -114 -49 -192q-58 -93 -166 -93q-113 0 -170 97q-47 79 -47 188zM342 242q0 -84 27 -144q22 -8 57 -8q94 0 143 84q41 70 41 170q0 84 -26 143q-25 9 -56 9q-90 0 -141 -78q-45 -69 -45 -176z" />
<glyph unicode="&#xf5;" horiz-adv-x="936" d="M-29 872q127 124 197 179q67 39 135 39q7 0 20 -1.5t19 -1.5l90 -24l100 -45q58 -6 91 -6h20q20 5 125 37l31 -50q-60 -61 -97 -90h43q20 5 125 37l31 -49q-81 -85 -121 -109q-56 -34 -125 -34q-28 0 -53 6l-59 14q-51 25 -133 53h2q-26 4 -50 4q-17 0 -47 -4h-4 l-237 -57q98 100 176 164q-12 -1 -37 -4h-4zM6 344q0 186 119 293q111 100 301 100q182 0 297 -104q33 -29 61 -72q14 -10 41 -31q123 -108 123 -288q0 -181 -123 -291q-115 -103 -297 -103t-299 105q-39 35 -61 70q-14 10 -41 32q-121 110 -121 289zM37 344 q0 -169 111 -268q107 -94 278 -94t276 94q113 101 113 268q0 166 -113 266q-110 97 -276 97q-177 0 -280 -92q-109 -96 -109 -271zM74 930l129 31q32 4 57 4q34 0 53 -4q29 -6 136 -54l63 -16q21 -5 42 -5q53 0 108 32q39 23 114 102q-125 -39 -134 -39.5t-22 -0.5 q-38 0 -98 9l-108 47l-68 19q-88 14 -162 -31q-31 -19 -110 -94zM209 344q0 116 49 194q58 91 168 91q107 0 166 -92q49 -76 49 -193q0 -114 -49 -192q-58 -93 -166 -93q-113 0 -170 97q-47 79 -47 188zM342 242q0 -84 27 -144q22 -8 57 -8q94 0 143 84q41 70 41 170 q0 84 -26 143q-25 9 -56 9q-90 0 -141 -78q-45 -69 -45 -176z" />
<glyph unicode="&#xf6;" horiz-adv-x="936" d="M6 344q0 186 119 293q111 100 301 100q182 0 297 -104q33 -29 61 -72q14 -10 41 -31q123 -108 123 -288q0 -181 -123 -291q-115 -103 -297 -103t-299 105q-39 35 -61 70q-14 10 -41 32q-121 110 -121 289zM37 344q0 -169 111 -268q107 -94 278 -94t276 94 q113 101 113 268q0 166 -113 266q-110 97 -276 97q-177 0 -280 -92q-109 -96 -109 -271zM145 977q0 100 131 113q125 0 138 -105q7 -2 22 -6q0 98 129 111q125 0 137 -105q91 -14 103 -102v-4q0 -109 -133 -109h-6q-115 0 -127 102q-9 0 -23 5q0 -107 -133 -107h-6 q-113 0 -129 102q-90 13 -103 105zM176 981q12 -81 105 -78q102 3 102 78q-10 78 -104 78q-103 -10 -103 -78zM209 344q0 116 49 194q58 91 168 91q107 0 166 -92q49 -76 49 -193q0 -114 -49 -192q-58 -93 -166 -93q-113 0 -170 97q-47 79 -47 188zM342 242q0 -84 27 -144 q22 -8 57 -8q94 0 143 84q41 70 41 170q0 84 -26 143q-25 9 -56 9q-90 0 -141 -78q-45 -69 -45 -176zM467 981q10 -82 102 -78q103 4 103 78q-10 82 -105 78q-100 -4 -100 -78z" />
<glyph unicode="&#xf7;" horiz-adv-x="963" d="M-41 551l201 188h233q-4 17 -6 27q-100 17 -104 121q-4 117 131 129q108 0 131 -105q92 -14 106 -118v-5q0 -27 -8 -49h229l-110 -102h213l-201 -188h-235l6 -25q90 -14 106 -121v-4q0 -115 -129 -127q-116 0 -135 104q-98 17 -104 121q-1 22 6 52h-228l109 102h-211z M37 582h622l136 127h-623zM313 399q9 -98 105 -94q100 4 100 96q-12 97 -102 97q-103 -11 -103 -99zM313 889q9 -98 105 -94q100 4 100 96q-12 94 -102 94q-103 -10 -103 -96z" />
<glyph unicode="&#xf8;" horiz-adv-x="938" d="M-25 -158l127 172l27 41q-121 109 -121 289q0 184 119 295q113 106 299 106q53 0 111 -14l8 17v-3l4 13l-17 28l-38 76q69 41 94 41h252l-64 -102h166l-145 -238q153 -108 153 -321q0 -180 -122 -291q-118 -107 -300 -107q-84 0 -149 23q-39 -72 -39 -127h-262l76 102 h-179zM37 -127h170q0 37 55 133q80 -29 164 -29q170 0 278 98q113 101 113 269q0 213 -166 311l133 217h-196q-15 0 -53 -22l24 -47l19 -31l4 -12l-9 -25l-18 -39q-68 19 -129 19q-173 0 -279 -98q-108 -101 -108 -273q0 -178 131 -283l-41 -63zM211 344q0 114 47 195 q57 98 168 98q47 0 82 -19l-266 -434q-31 70 -31 160zM309 94l279 455q55 -80 55 -205q0 -112 -47 -190q-60 -99 -170 -99q-35 0 -72 13q-26 12 -45 26zM526 119q27 22 43 51q22 32 29 66z" />
<glyph unicode="&#xf9;" d="M-6 715h342l-6 -103h108l-6 -108q-82 -150 -82 -311q0 -56 6 -93q31 -6 70 -6q51 19 74 47l-2 -2q1 1 28 39q29 56 29 127q0 156 -102 307l-23 111h350l-30 -102h133l-31 -103q-53 -49 -61 -67l2 -11l57 -94q31 -72 31 -143q0 -182 -97 -266q-100 -87 -270 -87h-29 q-159 0 -254 68h2q-43 31 -69 82q-17 6 -35 20h2q-117 81 -117 277q0 76 74 235l2 9q-4 8 -59 67zM37 684l18 -55q64 -64 66 -86l-2 -19q-74 -159 -74 -227q0 -70 24 -138q29 -79 78 -114q97 -69 265 -61q172 9 250 77q86 76 86 244q0 70 -27 129l-62 101l-4 16q2 24 68 86 l16 55h-270l14 -71q103 -152 103 -316q0 -78 -43 -164l-2 -2v6q-15 -16 -17 -22q-26 -37 -88 -57l-4 -3q-135 5 -174 56q-41 35 -41 176q0 170 82 319l4 70h-266zM160 1118l24 96h252l45 -102h58l55 -125q57 -130 162 -252h-291l27 56h2v2q-2 2 -13 18l-18 27h-101l29 57 l-12 18q-11 17 -35 48q-33 30 -82 55l6 26q-37 35 -108 76zM197 1133q125 -71 209 -201q16 -25 16 -39l-10 -25h176q-68 79 -125 209l-47 107h-207zM389 893l2 2v-2h-2z" />
<glyph unicode="&#xfa;" d="M-6 715h342l-6 -103h108l-6 -108q-82 -150 -82 -311q0 -56 6 -93q31 -6 70 -6q51 19 74 47l-2 -2q1 1 28 39q29 56 29 127q0 156 -102 307l-23 111h350l-30 -102h133l-31 -103q-52 -47 -61 -69v-7l59 -96q31 -72 31 -143q0 -182 -97 -266q-100 -87 -270 -87h-29 q-159 0 -254 68h2q-43 31 -69 82q-17 6 -35 20h2q-117 81 -117 277q0 76 74 235l2 9q-4 8 -59 67zM37 684l18 -55q64 -64 66 -86l-2 -19q-74 -159 -74 -227q0 -70 24 -138q29 -79 78 -114q97 -69 265 -61q172 9 250 77q86 76 86 244q0 70 -27 129l-62 101l-4 16q2 24 68 86 l16 55h-270l14 -71q103 -152 103 -316q0 -78 -43 -164l-2 -2v6q-15 -16 -17 -22q-26 -37 -88 -57l-4 -3q-135 5 -174 56q-41 35 -41 176q0 170 82 319l4 70h-266zM129 838q112 135 164 252l55 124h252l18 -73l-14 -29h98l19 -74l-16 -34q-40 -24 -115 -80q-23 -22 -82 -111 q-11 -17 -12 -22l2 -3l26 -53h-293q45 56 78 103h-180zM197 868h176l-11 25q0 12 17 39q52 83 88 117q44 41 121 84l-13 51h-206l-47 -107q-54 -123 -125 -209zM393 891h2l-2 2v-2z" />
<glyph unicode="&#xfb;" d="M-6 715h342l-6 -103h108l-6 -108q-82 -150 -82 -311q0 -56 6 -93q31 -6 70 -6q51 19 74 47l-2 -2q1 1 28 39q29 56 29 127q0 156 -102 307l-23 111h350l-30 -102h133l-31 -103q-52 -47 -61 -69v-7l59 -96q31 -72 31 -143q0 -182 -97 -266q-100 -87 -270 -87h-29 q-159 0 -254 68h2q-43 31 -69 82q-17 6 -35 20h2q-117 81 -117 277q0 76 74 235l2 9q-4 8 -59 67zM6 848q150 109 238 199l-4 -3q28 37 69 78v-2q40 45 101 127q50 -68 94 -114q4 8 8 12q42 -65 164 -187q77 -78 164 -213h-353l107 78q-10 11 -16 23h-3v2h-110v-8 q0 -6 1 -13.5t3 -11.5v2l2 -12l10 -74q-23 3 -63 14h-309q45 33 131 103h-234zM37 684l18 -55q64 -64 66 -86l-2 -19q-74 -159 -74 -227q0 -70 24 -138q29 -79 78 -114q97 -69 265 -61q172 9 250 77q86 76 86 244q0 70 -27 129l-62 101l-4 16q2 24 68 86l16 55h-270l14 -71 q103 -152 103 -316q0 -78 -43 -164l-2 -2v6q-15 -16 -17 -22q-26 -37 -88 -57l-4 -3q-135 5 -174 56q-41 35 -41 176q0 170 82 319l4 70h-266zM100 879h224q2 -5 18 -7l-4 31l-2 12q-4 24 -4 27q0 35 86 125l112 -139q-7 -11 -20 -29l-29 -20h201q-55 82 -131 161 q-126 131 -141 154q-38 -52 -78 -94q-23 -25 -68 -76q-106 -102 -164 -145z" />
<glyph unicode="&#xfc;" d="M-6 715h342l-6 -103h108l-6 -108q-82 -150 -82 -311q0 -56 6 -93q31 -6 70 -6q51 19 74 47l-2 -2q1 1 28 39q29 56 29 127q0 156 -102 307l-23 111h350l-30 -102h133l-31 -103q-52 -47 -61 -69v-7l59 -96q31 -72 31 -143q0 -182 -97 -266q-100 -87 -270 -87h-29 q-159 0 -254 68h2q-43 31 -69 82q-17 6 -35 20h2q-117 81 -117 277q0 76 74 235l2 9q-4 8 -59 67zM37 684l18 -55q64 -64 66 -86l-2 -19q-74 -159 -74 -227q0 -70 24 -138q29 -79 78 -114q97 -69 265 -61q172 9 250 77q86 76 86 244q0 70 -27 129l-62 101l-4 16q2 24 68 86 l16 55h-270l14 -71q103 -152 103 -316q0 -78 -43 -164l-2 -2v6q-15 -16 -17 -22q-26 -37 -88 -57l-4 -3q-135 5 -174 56q-41 35 -41 176q0 170 82 319l4 70h-266zM113 977q0 100 131 113q125 0 137 -105q7 0 20 -4q2 96 131 109q125 0 138 -105q90 -14 102 -102v-4 q0 -109 -133 -109h-6q-113 0 -129 102q-8 0 -21 5q0 -107 -133 -107h-6q-113 0 -129 102q-90 13 -102 105zM143 981q13 -81 105 -78q102 3 102 78q-10 78 -104 78q-103 -10 -103 -78zM432 981q12 -81 105 -78q102 3 102 78q-10 78 -104 78q-103 -10 -103 -78z" />
<glyph unicode="&#xfd;" horiz-adv-x="1012" d="M4 -248l174 205l27 -100q0 -37 16 -70l60 68l26 -101v-18q0 -10 4 -19q23 -8 56 -8q53 0 108 38q51 35 80 85v-2l6 12q-40 -8 -80 -8q-170 0 -268 90q-35 32 -55 66q-26 14 -47 37q-105 94 -105 264q0 74 27 139q6 13 16 35v-2q28 55 45 86q-12 24 -63 69l-23 101h342 l-20 -103h123l-23 -116q-88 -140 -88 -312q0 -53 10 -88q27 -6 60 -6q70 0 127 29q41 21 41 35v387q0 18 -13 35l-61 43l-17 96h433l-117 -103h219l-113 -98q-10 -16 -10 -35v-497q0 -214 -59 -293l-29 -39v2q-129 -191 -373 -191q-54 0 -94 9q-148 33 -225 153 q-74 47 -117 125zM37 291q0 -157 94 -242q90 -82 248 -82q108 0 231 74q-2 -47 -2 -76v-45q-3 -64 -26 -104q-30 -53 -92 -95q-65 -43 -123 -43q-81 0 -137 51t-56 128l-10 37l-123 -146q57 -108 209 -141q36 -8 88 -8q217 0 348 176l29 39q53 71 53 274v498q0 35 20 57 l52 45h-314l9 -49l57 -39q18 -25 18 -55v-387q0 -32 -57 -62q-63 -33 -141 -33q-99 0 -154 66q-49 59 -49 162q0 184 90 323l14 74h-266l12 -53q64 -53 70 -90q-21 -41 -66 -121q-26 -66 -26 -133zM186 838q117 139 166 252l54 124h251l19 -73l-14 -29h98l18 -74l-16 -34 q-40 -24 -113 -80q-36 -35 -84 -111q-4 -7 -12 -20q8 -13 22 -58h-286q45 56 78 103h-181zM254 868h176l-10 25q0 14 16 39q50 79 87.5 116.5t121.5 84.5l-12 51h-207l-45 -107q-46 -110 -127 -209zM544 812q0 -4 5 -11l-4 12q-1 0 -1 -1z" />
<glyph unicode="&#xfe;" horiz-adv-x="1016" d="M4 952q80 13 176 70h-2q12 6 34.5 19.5l72.5 43.5l44 26q21 13 38 24l-11 -138q-3 -14 -12 -43q41 27 125 78l-10 -137q-33 -100 -33 -158q37 6 74 6q192 0 299 -88q42 -35 73 -82q9 -7 29 -20q127 -98 127 -289t-117 -305.5t-309 -114.5q-96 0 -176 35v-108q23 -2 49 -2 h62l8 -60q-35 -8 -105 -26l2 -2q9 -15 197 -15l8 -59q-230 -61 -270 -92q-57 -44 -121 -68q-47 53 -47 84v43q-31 -16 -55 -25q-48 54 -48 84v1135q0 22 -24 43q-41 37 -70 37zM37 926l4 -47q10 0 61 -45q35 -31 35 -66v-1135q0 -20 27 -49q29 9 92 58q45 35 272 96 q-194 0 -213 29q-22 33 -22 88v176q88 -54 207 -54q177 0 286 106.5t109 283.5q0 172 -115 264q-103 82 -280 82q-113 0 -207 -49v172q0 59 33 163l6 78q-47 -26 -137 -82q-62 -33 -77 -41q-50 -24 -81 -28zM293 207v305q0 39 63 74q85 47 144 47q107 0 168 -82 q55 -73 55 -184q0 -101 -59 -199q-67 -111 -164 -111q-53 0 -127 47q-80 51 -80 103zM426 109q41 -21 74 -21q80 0 137 96q55 92 55 183q0 69 -24 122q-31 11 -66 11q-55 0 -129 -43q-47 -27 -47 -47v-301z" />
<glyph unicode="&#xff;" horiz-adv-x="1012" d="M4 -248l174 205l27 -100q0 -37 16 -70l60 68l26 -101v-18q0 -10 4 -19q23 -8 56 -8q53 0 108 38q51 35 80 85v-2l6 12q-40 -8 -80 -8q-170 0 -268 90q-35 32 -55 66q-26 14 -47 37q-105 94 -105 264q0 74 27 139q6 13 16 35v-2q28 55 45 86q-12 24 -63 69l-23 101h342 l-20 -103h123l-23 -116q-88 -140 -88 -312q0 -53 10 -88q27 -6 60 -6q70 0 127 29q41 21 41 35v387q0 18 -13 35l-61 43l-17 96h433l-117 -103h219l-113 -98q-10 -16 -10 -35v-497q0 -214 -59 -293l-29 -39v2q-129 -191 -373 -191q-54 0 -94 9q-148 33 -225 153 q-74 47 -117 125zM37 291q0 -157 94 -242q90 -82 248 -82q108 0 231 74q-2 -47 -2 -76v-45q-3 -64 -26 -104q-30 -53 -92 -95q-65 -43 -123 -43q-81 0 -137 51t-56 128l-10 37l-123 -146q57 -108 209 -141q36 -8 88 -8q217 0 348 176l29 39q53 71 53 274v498q0 35 20 57 l52 45h-314l9 -49l57 -39q18 -25 18 -55v-387q0 -32 -57 -62q-63 -33 -141 -33q-99 0 -154 66q-49 59 -49 162q0 184 90 323l14 74h-266l12 -53q64 -53 70 -90q-21 -41 -66 -121q-26 -66 -26 -133zM172 977q-4 100 129 113q125 0 137 -105q8 -2 23 -6q0 98 129 111 q125 0 137 -105q90 -14 102 -102v-4q0 -109 -131 -109h-6q-117 0 -129 102q-8 0 -22 5q0 -107 -133 -107h-7q-114 0 -127 102q-98 14 -102 105zM203 981q10 -82 102 -78q103 4 103 78q-12 82 -105 78q-100 -4 -100 -78zM492 981q10 -80 104 -78q100 2 100 78q-10 82 -104 78 q-100 -4 -100 -78z" />
<glyph unicode="&#x152;" horiz-adv-x="1872" d="M6 612q0 308 184 488q168 164 412 164q166 0 297 -78l-29 22l58 74h780q43 0 74 -65q-13 -23 -19 -37h47q43 0 74 -66q-39 -76 -43 -102l14 -123l-102 43q-70 65 -180 94h6l-41 4l-41 2l-199 -2l-6 -2v-244h467l-49 -102h152l-82 -176l-111 -139q-41 69 -94 112l-8 -10 q-7 9 -19 29q-50 28 -100 28h-145v-16q0 -48 -11 -133v-264h144l41 4h-7q111 28 181 94l102 43l-14 -125q0 -10 6 -29q3 1 8 9l102 43l-14 -125q4 -29 35 -86l2 -27q-25 -53 -68 -53h-780l-59 71l41 31q-148 -104 -307 -104q-246 0 -412 164q-34 33 -51 55q-14 10 -52 47 q-184 183 -184 487zM37 612q0 -290 176 -465q156 -155 389 -155q217 0 410 205v-29q-2 -14 -2 -25v-18q-6 -16 -29 -45l-68 -49l31 -37h764q23 0 39 35q-39 75 -39 104l8 72l-49 -21q-74 -69 -188 -98l-41 -4h-246l-33 4v397q10 78 10 129v25q0 12 -2 22h179q147 0 225 -137 l80 101l59 131h-551v405l33 4h246l41 -4q114 -29 188 -98l49 -21l-8 70q0 31 39 107q-16 34 -39 34h-766l-29 -37l68 -49q31 -41 31 -84v-24q-164 176 -410 176q-230 0 -389 -156q-176 -173 -176 -465zM209 612q0 215 88 359q104 170 305 170q194 0 301 -174 q92 -150 92 -355q0 -212 -88 -356q-105 -172 -305 -172q-199 0 -305 172q-88 143 -88 356zM342 510q0 -200 84 -340q1 -3 2.5 -5t3.5 -5q70 -45 170 -45q181 0 279 157q84 135 84 340q0 199 -88 338q-5 4 -9 13q-69 45 -163 45q-181 0 -279 -156q-84 -134 -84 -342z" />
<glyph unicode="&#x153;" horiz-adv-x="1504" d="M6 344q0 186 119 293q111 100 301 100q182 0 301 -108q109 108 283 108q197 0 282 -147q17 -8 43 -29q72 -59 133 -229l-516 -92q4 -66 31 -115q39 -19 92 -19q86 0 164 52v-2q76 51 119 131l55 -25q-65 -178 -182 -254q59 12 110 47v-2q76 51 119 131l56 -24 q-111 -312 -396 -312q-162 0 -280 119q-121 -119 -312 -119q-182 0 -299 105q-39 35 -61 70q-14 10 -41 32q-121 110 -121 289zM37 344q0 -169 111 -268q107 -94 278 -94q199 0 311 131q117 -131 281 -131q262 0 366 290q-48 -88 -129 -141q-84 -55 -180 -55q-114 0 -185 87 t-71 199v7l506 90q-89 248 -315 248q-179 0 -281 -121q-115 121 -303 121q-177 0 -280 -92q-109 -96 -109 -271zM209 344q0 116 49 194q58 91 168 91q107 0 166 -92q49 -76 49 -193q0 -114 -49 -192q-58 -93 -166 -93q-113 0 -170 97q-47 79 -47 188zM342 242q0 -84 27 -144 q22 -8 57 -8q94 0 143 84q41 70 41 170q0 84 -26 143q-25 9 -56 9q-90 0 -141 -78q-45 -69 -45 -176zM815 451q16 33 45 100q41 66 125 78q56 8 106 -25t62 -88z" />
<glyph unicode="&#x178;" horiz-adv-x="1389" d="M-23 1266h451q25 0 90 -66q-15 -12 -45 -37h57q25 0 91 -65q-84 -66 -84 -97q0 -87 170 -403l147 213q135 199 145 260v2q0 4 -2 6q-23 15 -67 47l26 4q-23 24 -92 72q-59 25 -76 96q-8 0 -24 7q-12 -99 -127 -111q-117 0 -137 104q-94 17 -105 125q0 123 131 136 q107 0 133 -107q9 0 25 -6q12 100 131 113q109 0 131 -105q90 -14 107 -123v-4q0 -41 -17 -70h238l24 -49q-11 -18 -36 -53h114l25 -49q-224 -321 -508 -778l-358 -576q-7 -6 -9 -10q13 -15 23 -53q8 -3 26 -11l-4 3q60 -15 80 -97l-426 -8l66 107l-168 -5l403 644l-348 659 l-1 1t-1 3q-27 39 -82 117q-29 41 -87 124q-17 23 -30 40zM37 1235q154 -220 164 -231l362 -685l-383 -608l328 6q-6 27 -45 35q-20 6 -57 21q-9 6 -29 14q-8 6 -8 14q0 11 37 70l358 575q280 449 510 781h-297l-70 -15q117 -77 123 -139q-6 -68 -151 -278l-199 -289 q-277 481 -277 598q0 45 68 98q-33 33 -43 33h-391zM426 1425q4 -98 104 -98q103 12 103 103q-17 98 -105 98q-106 -10 -102 -103zM715 1425q4 -98 104 -98q101 14 101 103q-13 98 -103 98q-106 -10 -102 -103z" />
<glyph unicode="&#x2c6;" horiz-adv-x="723" d="M-16 791l170 118q57 39 125 131q50 -43 147 -116q46 -29 207 -78l-66 -45q51 -23 168 -58l-190 -129q-67 21 -187 99q-22 -17 -62 -42l-95 -61l-115 78l170 119q3 1 6 4q-3 1 -6 4q-46 -32 -158 -102zM37 791l61 -41q59 33 156 104q119 -84 184 -104l127 86 q-107 32 -155 61q-29 18 -125 98q-51 -67 -113 -110z" />
<glyph unicode="&#x2dc;" horiz-adv-x="850" d="M-66 1079q66 69 197 181q70 36 135 36q26 0 41 -4l88 -24l97 -43q61 -6 92 -6h20q20 5 125 36l31 -49q-31 -32 -96 -90h43q19 5 124 37l31 -49q-76 -82 -123 -109h2q-57 -34 -123 -34q-28 0 -53 6l-59 14q-44 21 -133 53q-26 4 -47 4q-24 0 -54 -4h2l-237 -57 q112 112 174 164q-20 -4 -41 -4h2zM37 1137l129 30q17 4 57 4q49 0 104 -21q33 -13 85 -36l63 -16q21 -5 42 -5q52 0 106 31q43 25 114 103q-125 -39 -134 -39.5t-22 -0.5q-38 0 -98 9l-108 47l-66 19q-87 14 -162 -29q-33 -19 -110 -96z" />
<glyph unicode="&#x2000;" horiz-adv-x="837" />
<glyph unicode="&#x2001;" horiz-adv-x="1675" />
<glyph unicode="&#x2002;" horiz-adv-x="837" />
<glyph unicode="&#x2003;" horiz-adv-x="1675" />
<glyph unicode="&#x2004;" horiz-adv-x="558" />
<glyph unicode="&#x2005;" horiz-adv-x="418" />
<glyph unicode="&#x2006;" horiz-adv-x="279" />
<glyph unicode="&#x2007;" horiz-adv-x="279" />
<glyph unicode="&#x2008;" horiz-adv-x="209" />
<glyph unicode="&#x2009;" horiz-adv-x="335" />
<glyph unicode="&#x200a;" horiz-adv-x="93" />
<glyph unicode="&#x2010;" horiz-adv-x="842" d="M-78 428q144 82 166 158h647l17 -58q-29 -16 -47 -45h133l16 -57q-59 -37 -63 -100h-766q90 53 133 102h-236zM37 459h622q5 51 76 96h-622q-15 -61 -76 -96z" />
<glyph unicode="&#x2011;" horiz-adv-x="842" d="M-78 428q144 82 166 158h647l17 -58q-29 -16 -47 -45h133l16 -57q-59 -37 -63 -100h-766q90 53 133 102h-236zM37 459h622q5 51 76 96h-622q-15 -61 -76 -96z" />
<glyph unicode="&#x2012;" horiz-adv-x="842" d="M-78 428q144 82 166 158h647l17 -58q-29 -16 -47 -45h133l16 -57q-59 -37 -63 -100h-766q90 53 133 102h-236zM37 459h622q5 51 76 96h-622q-15 -61 -76 -96z" />
<glyph unicode="&#x2013;" horiz-adv-x="901" d="M-70 428l232 147h649l-162 -102h264l-231 -147h-649l160 102h-263zM37 459h532l136 86h-533z" />
<glyph unicode="&#x2014;" horiz-adv-x="1264" d="M-70 428l232 147h1012l-164 -102h266l-236 -147h-1007l160 102h-263zM37 459h891l137 86h-893z" />
<glyph unicode="&#x2018;" horiz-adv-x="371" d="M6 1024q0 85 100 193q42 46 175 67l-23 -65q-25 -35 -59 -109h6l4 4q35 43 174 68l-23 -66q-49 -70 -59 -108h18q50 0 56 -50v-45q0 -53 -40.5 -84.5t-94.5 -31.5q-119 0 -131 104q-103 12 -103 123zM37 1024q0 -94 100 -94q41 0 73 24t32 66v37q-4 22 -25 22h-51 q0 72 65 156l5 12q-68 -10 -107 -51q-92 -96 -92 -172z" />
<glyph unicode="&#x2019;" horiz-adv-x="363" d="M0 895l20 61q52 70 58 111h-19q-44 0 -53 49v41q0 121 135 121q119 0 129 -104q105 -13 105 -125q0 -85 -101 -191q-50 -53 -172 -65l21 61q26 36 35 53q18 31 22 58h-4l-4 -4q-54 -54 -172 -66zM37 1120q4 -22 22 -22h54q0 -72 -66 -156l-4 -12q63 6 107 51 q92 94 92 170q0 96 -101 96q-104 0 -104 -90v-37z" />
<glyph unicode="&#x201a;" horiz-adv-x="363" d="M0 -209l20 62q50 65 58 110h-19q-44 0 -53 49v41q0 121 135 121q119 0 129 -104q105 -13 105 -125q0 -85 -101 -191q-50 -53 -172 -65l21 61q49 66 57 111h-4q-4 -1 -4 -4q-51 -54 -172 -66zM37 16q4 -22 22 -22h54q0 -72 -66 -156l-4 -12q63 6 107 51q92 94 92 170 q0 96 -101 96q-104 0 -104 -90v-37z" />
<glyph unicode="&#x201c;" horiz-adv-x="652" d="M6 1024q0 85 100 193q42 46 175 67l-23 -65q-25 -35 -59 -109h6l4 4q44 44 139 62q50 62 109 83q45 15 104 25l-22 -65q-50 -58 -62 -109h6l4 4q44 44 177 68l-23 -66q-49 -57 -61 -108h20q47 0 53 -52v-12q0 -8 2 -22v-4q0 -54 -39.5 -87.5t-95.5 -33.5q-121 0 -133 104 q-8 0 -12 2q-4 -48 -46 -78q-38 -28 -89 -28q-119 0 -131 104q-103 12 -103 123zM37 1024q0 -94 100 -94q41 0 73 24t32 66v35q-4 24 -25 24h-51q0 72 65 156l5 12q-68 -10 -107 -51q-92 -96 -92 -172zM315 1024q0 -94 103 -94q42 0 73 24.5t31 65.5q-2 14 -2 22v13 q-4 24 -22 24h-54q0 72 68 156l4 12q-68 -10 -108 -51q-93 -95 -93 -172z" />
<glyph unicode="&#x201d;" horiz-adv-x="643" d="M0 895l20 61q52 70 58 111h-19q-44 0 -53 49v41q0 121 135 121q119 0 129 -104q4 -3 15 -3q6 107 137 107q119 0 129 -104q104 -13 104 -125q0 -84 -100 -191q-51 -55 -182 -67l33 67q40 53 53 107h-2l-4 -4q-49 -49 -144 -64q-15 -18 -35 -39q-52 -53 -172 -65l21 61 q26 36 35 53q18 31 22 58h-4l-4 -4q-54 -54 -172 -66zM37 1120q4 -22 22 -22h54q0 -72 -66 -156l-4 -12q63 6 107 51q92 94 92 170q0 96 -101 96q-104 0 -104 -90v-37zM315 1120q4 -22 25 -22h53q-4 -76 -65 -156l-6 -12q65 6 108 51q92 96 92 170q0 96 -100 96 q-107 0 -107 -90v-37z" />
<glyph unicode="&#x201e;" horiz-adv-x="654" d="M0 -209l20 62q50 65 58 110h-19q-44 0 -53 49v41q0 121 135 121q119 0 129 -104q8 -1 25 -4q6 108 135 108q119 0 131 -104q105 -17 105 -125q0 -84 -101 -191q-51 -55 -182 -67l33 67q43 56 55 107h-4q-4 -1 -4 -4q-40 -46 -156 -64q-10 -13 -33 -39q-52 -53 -172 -65 l21 61q49 66 57 111h-4q-4 -1 -4 -4q-51 -54 -172 -66zM37 16q4 -22 22 -22h54q0 -72 -66 -156l-4 -12q63 6 107 51q92 94 92 170q0 96 -101 96q-104 0 -104 -90v-37zM326 16q4 -22 24 -22h53q-4 -76 -65 -156l-6 -12q65 6 108 51q92 96 92 170q0 96 -102 96 q-104 0 -104 -90v-37z" />
<glyph unicode="&#x2022;" horiz-adv-x="799" d="M6 762q0 141 107 237q98 88 245 88t246 -86q40 -35 60 -71q2 -1 43 -31q104 -92 104 -240q0 -146 -102.5 -236.5t-249.5 -90.5q-146 0 -248 88q-37 32 -59 69q-20 13 -43 33q-103 91 -103 240zM37 762q0 -136 93 -218q88 -79 226 -79q136 0 229 83t93 214q0 135 -94 217 q-89 78 -226 78q-135 0 -225 -80q-96 -86 -96 -215z" />
<glyph unicode="&#x2026;" horiz-adv-x="1112" d="M6 72q0 57 47 90q38 26 94 26q54 0 93 -26h-2q45 -31 51 -80q26 -6 53 -23h-2q51 -32 51 -90q0 -53 -51 -92q-41 -24 -90 -24q-135 0 -141 104q-103 16 -103 115zM37 72q0 -86 110 -86q44 0 74 20q37 25 37 66q0 39 -37 65q-30 21 -74 21q-110 0 -110 -86zM371 72 q0 116 141 116q53 0 92 -26h-2q45 -31 51 -80q27 -6 54 -23h-2q51 -32 51 -90q0 -53 -51 -92q-41 -24 -91 -24q-135 0 -141 104q-102 16 -102 115zM401 72q0 -86 111 -86q44 0 74 20q37 25 37 66q0 40 -37 65q-31 21 -74 21q-111 0 -111 -86zM737 72q0 55 46 87q41 29 98 29 q53 0 92 -26h-2q45 -31 51 -80q27 -6 53 -23h-2q51 -32 51 -90q0 -53 -51 -92q-41 -24 -90 -24q-137 0 -143 104q-103 14 -103 115zM768 72q0 -86 113 -86q44 0 73 20q37 25 37 66q0 39 -37 65q-30 21 -73 21q-44 0 -76 -21q-37 -24 -37 -65z" />
<glyph unicode="&#x202f;" horiz-adv-x="335" />
<glyph unicode="&#x2039;" horiz-adv-x="752" d="M-31 356q340 109 402 349l268 34q-10 -34 -22 -64l-25 -59l149 21q-92 -277 -256 -389l32 -32q15 -15 30 -32q155 -134 217 -286l-236 -58q-22 54 -65 113l-37 -10q-29 69 -66 110l-18 15q-8 6 -18 14h2l-254 172q11 3 32 10zM37 346l203 -137q157 -106 204 -229l174 43 q-59 151 -299 323q189 96 275 356l-197 -26q-61 -234 -360 -330z" />
<glyph unicode="&#x203a;" horiz-adv-x="725" d="M-4 690l233 53q28 -71 64 -112l39 10q21 -60 59 -106q19 -17 43 -31h-2l203 -137l-4 -31l106 -72l-6 -53q-282 -90 -350 -328l-262 -35q11 40 47 123l-150 -20q93 276 256 387l-30 31q-15 14 -29 30q-164 144 -217 291zM37 668q55 -148 301 -326q-186 -92 -277 -354 l195 26q63 232 362 328l-202 137q-156 106 -205 228z" />
<glyph unicode="&#x205f;" horiz-adv-x="418" />
<glyph unicode="&#x2122;" horiz-adv-x="1295" d="M4 1014l47 76q15 16 15 182q59 -105 102 -131v28q7 -11 22 -39h492l84 -102h18l72 -88l125 158l35 35l94 2l10 -60l-20 -10v-53l18 18l94 2l11 -59l-21 -10v-5l2 -346q0 -30 103 -92h-301q40 29 88 78v25h-191q40 28 88 77v27q-14 -18 -14 -25q0 3 -6 11l-45 -43l-97 108 l-6 -6l-35 39v-149q0 -37 105 -142h-248q47 78 49 103h-151q49 79 49 104v125l-4 -16q-60 68 -76 82q-12 10 -37 10h-4v-316q0 -26 53 -94h-225q17 29 47 70v-4l2 30v7h-151q17 28 47 69v-4l2 31v211q-23 -4 -31 -8l2 2l-72 -48l-39 37l48 76q8 8 10 43q-37 0 -51 -8l2 2 l-72 -47zM37 1008l61 41q25 12 68 12h82q4 -2 8 -6q20 -15 20 -47l-2 -324q-2 -10 -18 -33h102q-20 27 -20 64v346h35q34 0 55 -14q15 -10 41 -41l8 32q6 25 25 39l30 23h-329q-74 0 -107 57q0 -55 -18 -84zM369 1028h24q-6 2 -20 2h-4v-2zM506 1028l2 2v-2h84v4l-6 4 q-8 2 -25.5 10.5t-25.5 16.5l-15 -10q-8 -5 -14 -25zM545 1096q16 -17 20 -19q11 -6 29 -10l29 -16v-324q0 -35 -25 -74h117q-60 60 -60 111v248l191 -219q-2 3 -2 8q0 23 24 53l150 190q4 -16 4 -34v-312q-4 -30 -23 -45h97q-25 15 -25 62l-2 350q0 22 41 39l-80 -2 l-33 -33l-149 -188l-182 219h-93zM686 764q0 -12 8 -27v183l-8 10v-166zM918 866l32 -39l41 52v82z" />
<glyph unicode="&#x25fc;" horiz-adv-x="720" d="M0 0v720h720v-720h-720z" />
</font>
</defs>
</svg>
